<svg width="19" height="20" viewBox="0 0 19 20" fill="none" xmlns="http://www.w3.org/2000/svg">
<path d="M11.8335 16C11.1335 16 10.5418 15.7583 10.0585 15.275C9.57516 14.7917 9.3335 14.2 9.3335 13.5C9.3335 12.8 9.57516 12.2083 10.0585 11.725C10.5418 11.2417 11.1335 11 11.8335 11C12.5335 11 13.1252 11.2417 13.6085 11.725C14.0918 12.2083 14.3335 12.8 14.3335 13.5C14.3335 14.2 14.0918 14.7917 13.6085 15.275C13.1252 15.7583 12.5335 16 11.8335 16ZM2.3335 20C1.7835 20 1.31266 19.8042 0.920996 19.4125C0.529329 19.0208 0.333496 18.55 0.333496 18V4C0.333496 3.45 0.529329 2.97917 0.920996 2.5875C1.31266 2.19583 1.7835 2 2.3335 2H3.3335V1C3.3335 0.716667 3.42933 0.479167 3.621 0.2875C3.81266 0.0958333 4.05016 0 4.3335 0C4.61683 0 4.85433 0.0958333 5.046 0.2875C5.23766 0.479167 5.3335 0.716667 5.3335 1V2H13.3335V1C13.3335 0.716667 13.4293 0.479167 13.621 0.2875C13.8127 0.0958333 14.0502 0 14.3335 0C14.6168 0 14.8543 0.0958333 15.046 0.2875C15.2377 0.479167 15.3335 0.716667 15.3335 1V2H16.3335C16.8835 2 17.3543 2.19583 17.746 2.5875C18.1377 2.97917 18.3335 3.45 18.3335 4V18C18.3335 18.55 18.1377 19.0208 17.746 19.4125C17.3543 19.8042 16.8835 20 16.3335 20H2.3335ZM2.3335 18H16.3335V8H2.3335V18ZM2.3335 6H16.3335V4H2.3335V6Z" fill="#283583"/>
</svg>
