<svg width="15" height="20" viewBox="0 0 15 20" fill="none" xmlns="http://www.w3.org/2000/svg">
<path d="M3 7V1C3 0.716667 3.09583 0.479167 3.2875 0.2875C3.47917 0.0958333 3.71667 0 4 0C4.28333 0 4.52083 0.0958333 4.7125 0.2875C4.90417 0.479167 5 0.716667 5 1V7H6V1C6 0.716667 6.09583 0.479167 6.2875 0.2875C6.47917 0.0958333 6.71667 0 7 0C7.28333 0 7.52083 0.0958333 7.7125 0.2875C7.90417 0.479167 8 0.716667 8 1V7C8 7.93333 7.7125 8.75 7.1375 9.45C6.5625 10.15 5.85 10.6167 5 10.85V19C5 19.2833 4.90417 19.5208 4.7125 19.7125C4.52083 19.9042 4.28333 20 4 20C3.71667 20 3.47917 19.9042 3.2875 19.7125C3.09583 19.5208 3 19.2833 3 19V10.85C2.15 10.6167 1.4375 10.15 0.8625 9.45C0.2875 8.75 0 7.93333 0 7V1C0 0.716667 0.0958333 0.479167 0.2875 0.2875C0.479167 0.0958333 0.716667 0 1 0C1.28333 0 1.52083 0.0958333 1.7125 0.2875C1.90417 0.479167 2 0.716667 2 1V7H3ZM13 12H11C10.7167 12 10.4792 11.9042 10.2875 11.7125C10.0958 11.5208 10 11.2833 10 11V5C10 3.83333 10.4292 2.70833 11.2875 1.625C12.1458 0.541667 13.0333 0 13.95 0C14.25 0 14.5 0.116667 14.7 0.35C14.9 0.583333 15 0.858333 15 1.175V19C15 19.2833 14.9042 19.5208 14.7125 19.7125C14.5208 19.9042 14.2833 20 14 20C13.7167 20 13.4792 19.9042 13.2875 19.7125C13.0958 19.5208 13 19.2833 13 19V12Z" fill="#283583"/>
</svg>
