<svg width="25" height="24" viewBox="0 0 25 24" fill="none" xmlns="http://www.w3.org/2000/svg">
<path d="M5.69196 21C5.14196 21 4.67112 20.8042 4.27946 20.4125C3.88779 20.0208 3.69196 19.55 3.69196 19V11.05C3.30863 10.7 3.01279 10.25 2.80446 9.7C2.59612 9.15 2.59196 8.55 2.79196 7.9L3.84196 4.5C3.97529 4.06667 4.21279 3.70833 4.55446 3.425C4.89612 3.14167 5.29196 3 5.74196 3H19.642C20.092 3 20.4836 3.1375 20.817 3.4125C21.1503 3.6875 21.392 4.05 21.542 4.5L22.592 7.9C22.792 8.55 22.7878 9.14167 22.5795 9.675C22.3711 10.2083 22.0753 10.6667 21.692 11.05V19C21.692 19.55 21.4961 20.0208 21.1045 20.4125C20.7128 20.8042 20.242 21 19.692 21H5.69196ZM14.892 10C15.342 10 15.6836 9.84583 15.917 9.5375C16.1503 9.22917 16.242 8.88333 16.192 8.5L15.642 5H13.692V8.7C13.692 9.05 13.8086 9.35417 14.042 9.6125C14.2753 9.87083 14.5586 10 14.892 10ZM10.392 10C10.7753 10 11.0878 9.87083 11.3295 9.6125C11.5711 9.35417 11.692 9.05 11.692 8.7V5H9.74196L9.19196 8.5C9.12529 8.9 9.21279 9.25 9.45446 9.55C9.69613 9.85 10.0086 10 10.392 10ZM5.94196 10C6.24196 10 6.50446 9.89167 6.72946 9.675C6.95446 9.45833 7.09196 9.18333 7.14196 8.85L7.69196 5H5.74196L4.74196 8.35C4.64196 8.68333 4.69613 9.04167 4.90446 9.425C5.11279 9.80833 5.45862 10 5.94196 10ZM19.442 10C19.9253 10 20.2753 9.80833 20.492 9.425C20.7086 9.04167 20.7586 8.68333 20.642 8.35L19.592 5H17.692L18.242 8.85C18.292 9.18333 18.4295 9.45833 18.6545 9.675C18.8795 9.89167 19.142 10 19.442 10ZM5.69196 19H19.692V11.95C19.6086 11.9833 19.5545 12 19.5295 12H19.442C18.992 12 18.5961 11.925 18.2545 11.775C17.9128 11.625 17.5753 11.3833 17.242 11.05C16.942 11.35 16.6003 11.5833 16.217 11.75C15.8336 11.9167 15.4253 12 14.992 12C14.542 12 14.1211 11.9167 13.7295 11.75C13.3378 11.5833 12.992 11.35 12.692 11.05C12.4086 11.35 12.0795 11.5833 11.7045 11.75C11.3295 11.9167 10.9253 12 10.492 12C10.0086 12 9.57113 11.9167 9.17946 11.75C8.78779 11.5833 8.44196 11.35 8.14196 11.05C7.79196 11.4 7.44613 11.6458 7.10446 11.7875C6.76279 11.9292 6.37529 12 5.94196 12H5.82946C5.78779 12 5.74196 11.9833 5.69196 11.95V19Z" fill="#283583"/>
</svg>
