<svg width="24" height="24" viewBox="0 0 24 24" fill="none" xmlns="http://www.w3.org/2000/svg">
<path d="M3.00023 18.0008C2.58357 18.0008 2.28357 17.8174 2.10023 17.4508C1.9169 17.0841 1.95023 16.7341 2.20023 16.4008L6.20023 11.0758C6.30023 10.9424 6.42107 10.8424 6.56273 10.7758C6.7044 10.7091 6.85023 10.6758 7.00023 10.6758C7.15023 10.6758 7.29607 10.7091 7.43773 10.7758C7.5794 10.8424 7.70023 10.9424 7.80023 11.0758L11.5002 16.0008H19.0002L14.0002 9.35078L12.3002 11.6008C12.1002 11.8674 11.8669 12.0049 11.6002 12.0133C11.3336 12.0216 11.1002 11.9508 10.9002 11.8008C10.7002 11.6508 10.5669 11.4466 10.5002 11.1883C10.4336 10.9299 10.5002 10.6674 10.7002 10.4008L13.2002 7.07578C13.3002 6.94245 13.4211 6.84245 13.5627 6.77578C13.7044 6.70911 13.8502 6.67578 14.0002 6.67578C14.1502 6.67578 14.2961 6.70911 14.4377 6.77578C14.5794 6.84245 14.7002 6.94245 14.8002 7.07578L21.8002 16.4008C22.0502 16.7341 22.0836 17.0841 21.9002 17.4508C21.7169 17.8174 21.4169 18.0008 21.0002 18.0008H3.00023ZM11.5002 16.0008H19.0002H11.2002H12.9127H11.5002ZM5.00023 16.0008H9.00023L7.00023 13.3258L5.00023 16.0008Z" fill="#283583"/>
</svg>
