<svg width="34" height="34" viewBox="0 0 34 34" fill="none" xmlns="http://www.w3.org/2000/svg">
<path d="M16.9997 25.334C17.4719 25.334 17.8677 25.1743 18.1872 24.8548C18.5066 24.5354 18.6663 24.1395 18.6663 23.6673V17.0007C18.6663 16.5284 18.5066 16.1326 18.1872 15.8132C17.8677 15.4937 17.4719 15.334 16.9997 15.334C16.5275 15.334 16.1316 15.4937 15.8122 15.8132C15.4927 16.1326 15.333 16.5284 15.333 17.0007V23.6673C15.333 24.1395 15.4927 24.5354 15.8122 24.8548C16.1316 25.1743 16.5275 25.334 16.9997 25.334ZM16.9997 12.0007C17.4719 12.0007 17.8677 11.8409 18.1872 11.5215C18.5066 11.202 18.6663 10.8062 18.6663 10.334C18.6663 9.86176 18.5066 9.46593 18.1872 9.14649C17.8677 8.82704 17.4719 8.66732 16.9997 8.66732C16.5275 8.66732 16.1316 8.82704 15.8122 9.14649C15.4927 9.46593 15.333 9.86176 15.333 10.334C15.333 10.8062 15.4927 11.202 15.8122 11.5215C16.1316 11.8409 16.5275 12.0007 16.9997 12.0007ZM16.9997 33.6673C14.6941 33.6673 12.5275 33.2298 10.4997 32.3548C8.4719 31.4798 6.70801 30.2923 5.20801 28.7923C3.70801 27.2923 2.52051 25.5284 1.64551 23.5007C0.770508 21.4729 0.333008 19.3062 0.333008 17.0007C0.333008 14.6951 0.770508 12.5284 1.64551 10.5007C2.52051 8.47287 3.70801 6.70899 5.20801 5.20898C6.70801 3.70898 8.4719 2.52148 10.4997 1.64648C12.5275 0.771484 14.6941 0.333984 16.9997 0.333984C19.3052 0.333984 21.4719 0.771484 23.4997 1.64648C25.5275 2.52148 27.2913 3.70898 28.7913 5.20898C30.2913 6.70899 31.4788 8.47287 32.3538 10.5007C33.2288 12.5284 33.6663 14.6951 33.6663 17.0007C33.6663 19.3062 33.2288 21.4729 32.3538 23.5007C31.4788 25.5284 30.2913 27.2923 28.7913 28.7923C27.2913 30.2923 25.5275 31.4798 23.4997 32.3548C21.4719 33.2298 19.3052 33.6673 16.9997 33.6673ZM16.9997 30.334C20.7219 30.334 23.8747 29.0423 26.458 26.459C29.0413 23.8757 30.333 20.7229 30.333 17.0007C30.333 13.2784 29.0413 10.1257 26.458 7.54232C23.8747 4.95898 20.7219 3.66732 16.9997 3.66732C13.2775 3.66732 10.1247 4.95898 7.54134 7.54232C4.95801 10.1257 3.66634 13.2784 3.66634 17.0007C3.66634 20.7229 4.95801 23.8757 7.54134 26.459C10.1247 29.0423 13.2775 30.334 16.9997 30.334Z" fill="#6972A8"/>
</svg>
