<svg width="51" height="52" viewBox="0 0 51 52" fill="none" xmlns="http://www.w3.org/2000/svg">
<path d="M12.9563 31.8784C14.2049 33.127 15.7333 33.7513 17.5417 33.7513C19.35 33.7513 20.8785 33.127 22.1271 31.8784L32.4604 21.5451C33.709 20.2964 34.3333 18.768 34.3333 16.9596C34.3333 15.1513 33.709 13.6228 32.4604 12.3742C31.2118 11.1256 29.6833 10.5013 27.875 10.5013C26.0667 10.5013 24.5382 11.1256 23.2896 12.3742C21.6965 11.8145 20.125 11.6853 18.575 11.9867C17.025 12.2881 15.7118 12.977 14.6354 14.0534C13.559 15.1298 12.8701 16.443 12.5688 17.993C12.2674 19.543 12.3965 21.1145 12.9563 22.7076C11.7076 23.9562 11.0833 25.4846 11.0833 27.293C11.0833 29.1013 11.7076 30.6298 12.9563 31.8784ZM8.5 40.7263C6.04583 38.4874 4.14063 35.8718 2.78438 32.8794C1.42813 29.8871 0.75 26.7332 0.75 23.418C0.75 16.9596 3.01042 11.4701 7.53125 6.94922C12.0521 2.42839 17.5417 0.167969 24 0.167969C29.3819 0.167969 34.1503 1.75026 38.3052 4.91484C42.4601 8.07943 45.1618 12.202 46.4104 17.2826L49.9625 31.3617C50.1347 31.9645 50.0271 32.5135 49.6396 33.0086C49.2521 33.5037 48.7354 33.7513 48.0896 33.7513H42.0833V42.793C42.0833 43.8586 41.704 44.7707 40.9454 45.5294C40.1863 46.2884 39.274 46.668 38.2083 46.668H31.75V49.8971C31.75 50.4461 31.5631 50.9061 31.1894 51.2773C30.8161 51.6488 30.3533 51.8346 29.8009 51.8346C29.2489 51.8346 28.7899 51.6488 28.424 51.2773C28.058 50.9061 27.875 50.4461 27.875 49.8971V44.7305C27.875 44.1815 28.0608 43.7212 28.4324 43.3497C28.8035 42.9785 29.2635 42.793 29.8125 42.793H38.2083V31.8138C38.2083 31.2648 38.3941 30.8046 38.7657 30.433C39.1368 30.0619 39.5969 29.8763 40.1458 29.8763H45.5708L42.6646 18.2513C41.6313 14.0749 39.3708 10.6628 35.8833 8.01484C32.3958 5.36693 28.4347 4.04297 24 4.04297C18.6181 4.04297 14.0434 5.90512 10.276 9.62943C6.50868 13.3537 4.625 17.897 4.625 23.2591C4.625 26.0327 5.19161 28.6675 6.32483 31.1634C7.45849 33.6598 9.06618 35.8787 11.1479 37.82L12.375 38.9826V49.8971C12.375 50.4461 12.1881 50.9061 11.8144 51.2773C11.4411 51.6488 10.9783 51.8346 10.4259 51.8346C9.8739 51.8346 9.41493 51.6488 9.04896 51.2773C8.68299 50.9061 8.5 50.4461 8.5 49.8971V40.7263Z" fill="#18204F"/>
</svg>
