<svg width="28" height="32" viewBox="0 0 28 32" fill="none" xmlns="http://www.w3.org/2000/svg">
<path d="M4.00033 32.0007C3.5281 32.0007 3.13227 31.8409 2.81283 31.5215C2.49338 31.202 2.33366 30.8062 2.33366 30.334V26.9173C1.83366 26.3618 1.43088 25.7437 1.12533 25.0632C0.81977 24.3826 0.666992 23.6395 0.666992 22.834V7.00065C0.666992 4.6951 1.73644 3.0076 3.87533 1.93815C6.01421 0.868707 9.38921 0.333984 14.0003 0.333984C18.7781 0.333984 22.1948 0.847873 24.2503 1.87565C26.3059 2.90343 27.3337 4.61176 27.3337 7.00065V22.834C27.3337 23.6395 27.1809 24.3826 26.8753 25.0632C26.5698 25.7437 26.167 26.3618 25.667 26.9173V30.334C25.667 30.8062 25.5073 31.202 25.1878 31.5215C24.8684 31.8409 24.4725 32.0007 24.0003 32.0007H22.3337C21.8614 32.0007 21.4656 31.8409 21.1462 31.5215C20.8267 31.202 20.667 30.8062 20.667 30.334V28.6673H7.33366V30.334C7.33366 30.8062 7.17394 31.202 6.85449 31.5215C6.53505 31.8409 6.13921 32.0007 5.66699 32.0007H4.00033ZM14.0837 5.33398H23.417H4.75033H14.0837ZM20.667 17.0007H4.00033H24.0003H20.667ZM4.00033 13.6673H24.0003V8.66732H4.00033V13.6673ZM8.16699 23.6673C8.86144 23.6673 9.45171 23.4243 9.93783 22.9382C10.4239 22.452 10.667 21.8618 10.667 21.1673C10.667 20.4729 10.4239 19.8826 9.93783 19.3965C9.45171 18.9104 8.86144 18.6673 8.16699 18.6673C7.47255 18.6673 6.88227 18.9104 6.39616 19.3965C5.91005 19.8826 5.66699 20.4729 5.66699 21.1673C5.66699 21.8618 5.91005 22.452 6.39616 22.9382C6.88227 23.4243 7.47255 23.6673 8.16699 23.6673ZM19.8337 23.6673C20.5281 23.6673 21.1184 23.4243 21.6045 22.9382C22.0906 22.452 22.3337 21.8618 22.3337 21.1673C22.3337 20.4729 22.0906 19.8826 21.6045 19.3965C21.1184 18.9104 20.5281 18.6673 19.8337 18.6673C19.1392 18.6673 18.5489 18.9104 18.0628 19.3965C17.5767 19.8826 17.3337 20.4729 17.3337 21.1673C17.3337 21.8618 17.5767 22.452 18.0628 22.9382C18.5489 23.4243 19.1392 23.6673 19.8337 23.6673ZM4.75033 5.33398H23.417C23.0003 4.86176 22.1045 4.46593 20.7295 4.14648C19.3545 3.82704 17.1392 3.66732 14.0837 3.66732C11.1114 3.66732 8.93783 3.84093 7.56283 4.18815C6.18783 4.53537 5.25033 4.91732 4.75033 5.33398ZM7.33366 25.334H20.667C21.5837 25.334 22.3684 25.0076 23.0212 24.3548C23.6739 23.702 24.0003 22.9173 24.0003 22.0007V17.0007H4.00033V22.0007C4.00033 22.9173 4.32671 23.702 4.97949 24.3548C5.63227 25.0076 6.41699 25.334 7.33366 25.334Z" fill="#6972A8"/>
</svg>
