<svg width="36" height="30" viewBox="0 0 36 30" fill="none" xmlns="http://www.w3.org/2000/svg">
<path d="M7.08301 24.6257C6.52745 24.3201 6.0969 23.9104 5.79134 23.3965C5.48579 22.8826 5.33301 22.3062 5.33301 21.6673V13.6673L1.33301 11.459C1.02745 11.2923 0.80523 11.084 0.666341 10.834C0.527452 10.584 0.458008 10.3062 0.458008 10.0007C0.458008 9.6951 0.527452 9.41732 0.666341 9.16732C0.80523 8.91732 1.02745 8.70899 1.33301 8.54232L15.4163 0.875651C15.6663 0.736762 15.9233 0.632596 16.1872 0.563151C16.4511 0.493707 16.7219 0.458984 16.9997 0.458984C17.2775 0.458984 17.5483 0.493707 17.8122 0.563151C18.0761 0.632596 18.333 0.736762 18.583 0.875651L34.458 9.54232C34.7358 9.68121 34.9511 9.8826 35.1038 10.1465C35.2566 10.4104 35.333 10.6951 35.333 11.0007V21.6673C35.333 22.1395 35.1733 22.5354 34.8538 22.8548C34.5344 23.1743 34.1386 23.334 33.6663 23.334C33.1941 23.334 32.7983 23.1743 32.4788 22.8548C32.1594 22.5354 31.9997 22.1395 31.9997 21.6673V11.834L28.6663 13.6673V21.6673C28.6663 22.3062 28.5136 22.8826 28.208 23.3965C27.9025 23.9104 27.4719 24.3201 26.9163 24.6257L18.583 29.1257C18.333 29.2645 18.0761 29.3687 17.8122 29.4382C17.5483 29.5076 17.2775 29.5423 16.9997 29.5423C16.7219 29.5423 16.4511 29.5076 16.1872 29.4382C15.9233 29.3687 15.6663 29.2645 15.4163 29.1257L7.08301 24.6257ZM16.9997 16.1673L28.4163 10.0007L16.9997 3.83398L5.58301 10.0007L16.9997 16.1673ZM16.9997 26.209L25.333 21.709V15.4173L18.6247 19.1257C18.3747 19.2645 18.1108 19.3687 17.833 19.4382C17.5552 19.5076 17.2775 19.5423 16.9997 19.5423C16.7219 19.5423 16.4441 19.5076 16.1663 19.4382C15.8886 19.3687 15.6247 19.2645 15.3747 19.1257L8.66634 15.4173V21.709L16.9997 26.209Z" fill="#6972A8"/>
</svg>
