<svg width="34" height="32" viewBox="0 0 34 32" fill="none" xmlns="http://www.w3.org/2000/svg">
<path d="M31.9997 31.334C31.7775 31.334 31.5691 31.2923 31.3747 31.209C31.1802 31.1257 30.9997 31.0007 30.833 30.834L26.9997 27.0007H10.333C9.41634 27.0007 8.63162 26.6743 7.97884 26.0215C7.32606 25.3687 6.99968 24.584 6.99968 23.6673V22.0007H25.333C26.2497 22.0007 27.0344 21.6743 27.6872 21.0215C28.34 20.3687 28.6663 19.584 28.6663 18.6673V7.00065H30.333C31.2497 7.00065 32.0344 7.32704 32.6872 7.97982C33.34 8.6326 33.6663 9.41732 33.6663 10.334V29.6257C33.6663 30.1257 33.4997 30.5354 33.1663 30.8548C32.833 31.1743 32.4441 31.334 31.9997 31.334ZM3.66634 17.2923L5.62468 15.334H21.9997V3.66732H3.66634V17.2923ZM1.99967 23.0007C1.55523 23.0007 1.16634 22.8409 0.833008 22.5215C0.499674 22.202 0.333008 21.7923 0.333008 21.2923V3.66732C0.333008 2.75065 0.659397 1.96593 1.31217 1.31315C1.96495 0.660373 2.74967 0.333984 3.66634 0.333984H21.9997C22.9163 0.333984 23.7011 0.660373 24.3538 1.31315C25.0066 1.96593 25.333 2.75065 25.333 3.66732V15.334C25.333 16.2507 25.0066 17.0354 24.3538 17.6882C23.7011 18.3409 22.9163 18.6673 21.9997 18.6673H6.99968L3.16634 22.5007C2.99967 22.6673 2.81912 22.7923 2.62467 22.8757C2.43023 22.959 2.2219 23.0007 1.99967 23.0007Z" fill="#6972A8"/>
</svg>
