<svg width="48" height="48" viewBox="0 0 48 48" fill="none" xmlns="http://www.w3.org/2000/svg">
<path d="M21.55 27.15L30.025 18.675C30.225 18.475 30.4583 18.375 30.725 18.375C30.9916 18.375 31.225 18.475 31.425 18.675C31.625 18.875 31.725 19.1125 31.725 19.3875C31.725 19.6625 31.625 19.9 31.425 20.1L22.25 29.3C22.05 29.5 21.8166 29.6 21.55 29.6C21.2833 29.6 21.05 29.5 20.85 29.3L16.55 25C16.35 24.8 16.2541 24.5625 16.2625 24.2875C16.2708 24.0125 16.375 23.775 16.575 23.575C16.775 23.375 17.0125 23.275 17.2875 23.275C17.5625 23.275 17.8 23.375 18 23.575L21.55 27.15Z" fill="#88AF33"/>
</svg>
