<svg width="326" height="258" viewBox="0 0 326 258" fill="none" xmlns="http://www.w3.org/2000/svg">
<g filter="url(#filter0_d_615_22046)">
<path fill-rule="evenodd" clip-rule="evenodd" d="M256.975 176.563L255.849 177.696L254.725 178.821L253.604 179.938L252.484 181.048L251.365 182.151L250.249 183.247L249.133 184.336L248.019 185.42L246.906 186.497L245.793 187.568L244.68 188.634L243.568 189.693L242.454 190.748L241.34 191.797L240.224 192.84L239.106 193.877L237.985 194.909L236.862 195.935L235.735 196.954L234.604 197.968L233.468 198.975L232.327 199.975L231.18 200.969L230.027 201.954L228.867 202.932L227.699 203.902L226.524 204.863L225.34 205.815L224.148 206.757L222.945 207.689L221.734 208.61L220.511 209.519L219.279 210.417L218.035 211.302L216.78 212.174L215.513 213.032L214.235 213.875L212.945 214.703L211.642 215.516L210.327 216.311L209 217.09L207.66 217.851L206.307 218.593L204.943 219.316L203.565 220.02L202.176 220.703L200.775 221.366L199.362 222.007L197.937 222.626L196.501 223.223L195.055 223.798L193.597 224.349L192.13 224.876L190.652 225.38L189.166 225.859L187.67 226.313L186.166 226.742L184.654 227.146L183.134 227.524L181.608 227.876L180.075 228.201L178.536 228.5L176.992 228.772L175.444 229.017L173.891 229.236L172.335 229.427L170.776 229.59L169.215 229.727L167.652 229.836L166.089 229.918L164.525 229.972L162.962 230L161.4 230L159.84 229.973L158.282 229.92L156.728 229.84L155.177 229.733L153.63 229.601L152.089 229.443L150.553 229.259L149.023 229.05L147.501 228.817L145.986 228.559L144.478 228.278L142.98 227.973L141.49 227.645L140.01 227.295L138.541 226.923L137.082 226.529L135.633 226.115L134.197 225.681L132.772 225.228L131.359 224.756L129.959 224.265L128.572 223.758L127.198 223.233L125.838 222.692L124.491 222.136L123.158 221.565L121.839 220.98L120.534 220.382L119.244 219.771L117.968 219.148L116.706 218.514L115.459 217.869L114.226 217.214L113.008 216.551L111.804 215.879L110.614 215.199L109.439 214.512L108.278 213.819L107.13 213.121L105.996 212.417L104.875 211.709L103.768 210.997L102.673 210.281L101.591 209.564L100.521 208.844L99.4631 208.123L98.4167 207.401L97.3814 206.678L96.3568 205.956L95.3426 205.234L94.3383 204.513L93.3434 203.793L92.3575 203.076L91.38 202.36L90.4106 201.647L89.4488 200.937L88.4939 200.23L81.9659 195.383L81.0497 194.706L80.1364 194.033L79.2253 193.365L78.3161 192.7L77.4084 192.039L76.5018 191.381L75.596 190.727L74.6906 190.076L73.7854 189.428L72.8799 188.783L71.974 188.14L71.0675 187.499L70.16 186.86L69.2515 186.222L68.3418 185.585L61.9341 181.123L61.0132 180.479L60.0913 179.833L59.1685 179.183L58.2451 178.529L57.3212 177.87L56.3973 177.207L55.4736 176.538L54.5505 175.864L53.6284 175.183L52.7076 174.495L51.7887 173.8L50.8721 173.098L49.9584 172.387L49.048 171.668L48.1415 170.94L47.2395 170.202L46.3425 169.455L45.4512 168.699L44.5663 167.931L43.6883 167.154L42.8179 166.365L41.9559 165.566L41.1031 164.755L40.2602 163.933L39.4282 163.098L38.6079 162.252L37.8002 161.394L37.006 160.523L36.2265 159.64L35.4624 158.744L34.7148 157.835L33.9847 156.914L33.2731 155.981L32.581 155.035L31.9094 154.076L31.2593 153.105L30.6316 152.122L30.0273 151.127L29.4474 150.12L28.8926 149.102L28.364 148.073L27.8622 147.033L27.3882 145.983L26.9427 144.923L26.5263 143.854L26.1399 142.776L25.7839 141.69L25.459 140.597L25.1656 139.496L24.9043 138.388L24.6755 137.275L24.4795 136.157L24.3165 135.035L24.187 133.908L24.091 132.779L24.0286 131.648L24 130.514L24.0052 129.381L24.0441 128.247L24.1166 127.114L24.2226 125.982L24.362 124.853L24.5345 123.726L24.7398 122.604L24.9776 121.486L25.2476 120.372L25.5493 119.265L25.8824 118.164L26.2464 117.071L26.6409 115.985L27.0651 114.908L27.5187 113.84L28.0008 112.782L28.5108 111.734L29.0479 110.696L29.6111 109.671L30.1996 108.657L30.8125 107.655L31.4487 106.666L32.1072 105.69L32.7869 104.728L33.4867 103.779L34.2054 102.844L34.9418 101.923L35.6947 101.017L36.4629 100.125L37.2452 99.2471L38.0402 98.384L38.8467 97.5353L39.6634 96.701L40.4891 95.8809L41.3225 95.0748L42.1623 94.2826L43.0072 93.5039L43.8561 92.7384L44.7077 91.9858L45.5609 91.2457L46.4144 90.5177L47.2672 89.8012L48.1181 89.0957L48.9662 88.4008L49.8104 87.7157L50.6497 87.04L51.4832 86.373L52.3101 85.714L54.7432 83.7781L55.536 83.1441L56.3187 82.5146L57.0909 81.8887L57.852 81.2659L58.6019 80.6452L59.3402 80.0262L60.067 79.4081L60.7821 78.7902L61.4856 78.172L62.1776 77.5529L62.8583 76.9323L63.528 76.3098L64.1869 75.6848L64.8355 75.0569L65.4743 74.4257L66.1037 73.7909L66.7242 73.1522L67.3365 72.5093L67.9412 71.862L68.5389 71.2102L69.1304 70.5536L69.7164 69.8922L70.2976 69.226L70.8747 68.555L71.4486 67.8792L72.0201 67.1987L72.5899 66.5137L73.1588 65.8243L73.7276 65.1306L74.2971 64.4331L76.0174 62.3196L76.5972 61.6092L77.1814 60.8966L77.7707 60.182L78.3656 59.4659L78.9669 58.7488L79.5751 58.031L80.1908 57.3131L80.8145 56.5954L81.4466 55.8785L82.0876 55.1627L82.7379 54.4486L83.3979 53.7365L84.0679 53.027L84.7482 52.3203L85.4391 51.6169L86.1407 50.9172L86.8533 50.2216L87.577 49.5302L88.3119 48.8436L89.0581 48.1618L89.8156 47.4853L90.5846 46.8143L91.365 46.149L92.157 45.4898L92.9605 44.837L93.7756 44.1908L94.6023 43.5514L95.4404 42.9192L96.2901 42.2943L97.1513 41.6771L98.0239 41.0677L98.9078 40.4664L99.8031 39.8735L100.71 39.2891L101.627 38.7134L102.556 38.1468L103.496 37.5893L104.446 37.0412L105.407 36.5026L106.379 35.9738L107.362 35.4549L108.354 34.946L109.357 34.4474L110.37 33.9591L111.393 33.4814L112.426 33.0143L113.469 32.558L114.521 32.1126L115.582 31.6782L116.652 31.2548L117.732 30.8426L118.82 30.4416L119.917 30.0519L121.022 29.6735L122.136 29.3066L123.258 28.951L124.388 28.6069L125.526 28.2742L126.672 27.953L127.825 27.6431L128.986 27.3445L130.154 27.0571L131.329 26.7806L132.511 26.5147L133.7 26.2593L134.897 26.014L136.1 25.7784L137.309 25.5522L138.526 25.3349L139.75 25.1262L140.98 24.9256L142.218 24.7326L143.463 24.5467L144.715 24.3675L145.974 24.1945L147.241 24.0271L148.516 23.865L149.8 23.7076L151.091 23.5545L152.392 23.4053L153.702 23.2594L155.021 23.1166L156.35 22.9764L157.69 22.8385L159.04 22.7026L160.402 22.5684L161.775 22.4357L163.161 22.3043L164.559 22.174L165.971 22.0448L167.396 21.9166L168.836 21.7894L170.29 21.6633L171.76 21.5384L173.245 21.4149L174.746 21.293L176.263 21.1731L177.798 21.0554L179.349 20.9405L180.918 20.8288L182.505 20.7208L184.11 20.6172L185.733 20.5187L187.375 20.4259L189.034 20.3398L190.713 20.2611L192.409 20.1907L194.123 20.1297L195.856 20.0791L197.606 20.0399L199.373 20.0132L201.157 20L202.958 20.0014L204.774 20.0186L206.606 20.0526L208.452 20.1045L210.312 20.1754L212.185 20.2664L214.07 20.3785L215.966 20.5129L217.873 20.6706L219.789 20.8526L221.714 21.0598L223.645 21.2934L225.583 21.5541L227.525 21.843L229.471 22.1609L231.419 22.5086L233.368 22.887L235.317 23.2967L237.263 23.7385L239.207 24.2131L241.145 24.721L243.077 25.2628L245.001 25.839L246.916 26.45L248.82 27.0963L250.712 27.7781L252.59 28.4957L254.453 29.2494L256.298 30.0392L258.125 30.8652L259.932 31.7275L261.718 32.6261L263.48 33.5608L265.219 34.5315L266.931 35.5379L268.617 36.5799L270.273 37.6569L271.9 38.7688L273.496 39.915L275.059 41.0951L276.589 42.3086L278.083 43.5551L279.541 44.8338L280.962 46.1442L282.343 47.4857L283.685 48.8575L284.985 50.2589L286.244 51.6891L287.459 53.1473L288.629 54.6326L289.755 56.1441L290.834 57.6809L291.867 59.242L292.852 60.8264L293.788 62.4331L294.676 64.061L295.514 65.7089L296.301 67.3759L297.039 69.0606L297.725 70.7621L298.361 72.4791L298.945 74.2104L299.477 75.9548L299.958 77.7111L300.388 79.4782L300.766 81.2548L301.093 83.0396L301.37 84.8316L301.595 86.6295L301.77 88.4321L301.896 90.2383L301.972 92.0469L302 93.8567L301.98 95.6668L301.912 97.4759L301.798 99.2831L301.637 101.087L301.432 102.888L301.183 104.683L300.89 106.472L300.555 108.255L300.179 110.03L299.762 111.796L299.306 113.554L298.812 115.301L298.28 117.037L297.711 118.763L297.107 120.476L296.469 122.176L295.797 123.863L295.093 125.536L294.358 127.196L293.593 128.84L292.8 130.469L291.979 132.083L291.132 133.681L290.26 135.263L289.364 136.828L288.446 138.377L287.506 139.909L286.547 141.425L285.569 142.923L284.573 144.405L283.561 145.87L282.533 147.318L281.492 148.749L280.438 150.164L279.372 151.562L278.296 152.944L277.21 154.31L276.115 155.661L275.013 156.995L273.904 158.315L272.789 159.62L271.67 160.911L270.547 162.187L269.42 163.45L268.29 164.699L267.159 165.936L266.026 167.16L264.893 168.373L263.76 169.574L262.626 170.764L261.493 171.943L260.362 173.112L259.231 174.272L258.102 175.422L256.975 176.563Z" fill="url(#paint0_linear_615_22046)"/>
<path fill-rule="evenodd" clip-rule="evenodd" d="M256.975 176.563L255.849 177.696L254.725 178.821L253.604 179.938L252.484 181.048L251.365 182.151L250.249 183.247L249.133 184.336L248.019 185.42L246.906 186.497L245.793 187.568L244.68 188.634L243.568 189.693L242.454 190.748L241.34 191.797L240.224 192.84L239.106 193.877L237.985 194.909L236.862 195.935L235.735 196.954L234.604 197.968L233.468 198.975L232.327 199.975L231.18 200.969L230.027 201.954L228.867 202.932L227.699 203.902L226.524 204.863L225.34 205.815L224.148 206.757L222.945 207.689L221.734 208.61L220.511 209.519L219.279 210.417L218.035 211.302L216.78 212.174L215.513 213.032L214.235 213.875L212.945 214.703L211.642 215.516L210.327 216.311L209 217.09L207.66 217.851L206.307 218.593L204.943 219.316L203.565 220.02L202.176 220.703L200.775 221.366L199.362 222.007L197.937 222.626L196.501 223.223L195.055 223.798L193.597 224.349L192.13 224.876L190.652 225.38L189.166 225.859L187.67 226.313L186.166 226.742L184.654 227.146L183.134 227.524L181.608 227.876L180.075 228.201L178.536 228.5L176.992 228.772L175.444 229.017L173.891 229.236L172.335 229.427L170.776 229.59L169.215 229.727L167.652 229.836L166.089 229.918L164.525 229.972L162.962 230L161.4 230L159.84 229.973L158.282 229.92L156.728 229.84L155.177 229.733L153.63 229.601L152.089 229.443L150.553 229.259L149.023 229.05L147.501 228.817L145.986 228.559L144.478 228.278L142.98 227.973L141.49 227.645L140.01 227.295L138.541 226.923L137.082 226.529L135.633 226.115L134.197 225.681L132.772 225.228L131.359 224.756L129.959 224.265L128.572 223.758L127.198 223.233L125.838 222.692L124.491 222.136L123.158 221.565L121.839 220.98L120.534 220.382L119.244 219.771L117.968 219.148L116.706 218.514L115.459 217.869L114.226 217.214L113.008 216.551L111.804 215.879L110.614 215.199L109.439 214.512L108.278 213.819L107.13 213.121L105.996 212.417L104.875 211.709L103.768 210.997L102.673 210.281L101.591 209.564L100.521 208.844L99.4631 208.123L98.4167 207.401L97.3814 206.678L96.3568 205.956L95.3426 205.234L94.3383 204.513L93.3434 203.793L92.3575 203.076L91.38 202.36L90.4106 201.647L89.4488 200.937L88.4939 200.23L81.9659 195.383L81.0497 194.706L80.1364 194.033L79.2253 193.365L78.3161 192.7L77.4084 192.039L76.5018 191.381L75.596 190.727L74.6906 190.076L73.7854 189.428L72.8799 188.783L71.974 188.14L71.0675 187.499L70.16 186.86L69.2515 186.222L68.3418 185.585L61.9341 181.123L61.0132 180.479L60.0913 179.833L59.1685 179.183L58.2451 178.529L57.3212 177.87L56.3973 177.207L55.4736 176.538L54.5505 175.864L53.6284 175.183L52.7076 174.495L51.7887 173.8L50.8721 173.098L49.9584 172.387L49.048 171.668L48.1415 170.94L47.2395 170.202L46.3425 169.455L45.4512 168.699L44.5663 167.931L43.6883 167.154L42.8179 166.365L41.9559 165.566L41.1031 164.755L40.2602 163.933L39.4282 163.098L38.6079 162.252L37.8002 161.394L37.006 160.523L36.2265 159.64L35.4624 158.744L34.7148 157.835L33.9847 156.914L33.2731 155.981L32.581 155.035L31.9094 154.076L31.2593 153.105L30.6316 152.122L30.0273 151.127L29.4474 150.12L28.8926 149.102L28.364 148.073L27.8622 147.033L27.3882 145.983L26.9427 144.923L26.5263 143.854L26.1399 142.776L25.7839 141.69L25.459 140.597L25.1656 139.496L24.9043 138.388L24.6755 137.275L24.4795 136.157L24.3165 135.035L24.187 133.908L24.091 132.779L24.0286 131.648L24 130.514L24.0052 129.381L24.0441 128.247L24.1166 127.114L24.2226 125.982L24.362 124.853L24.5345 123.726L24.7398 122.604L24.9776 121.486L25.2476 120.372L25.5493 119.265L25.8824 118.164L26.2464 117.071L26.6409 115.985L27.0651 114.908L27.5187 113.84L28.0008 112.782L28.5108 111.734L29.0479 110.696L29.6111 109.671L30.1996 108.657L30.8125 107.655L31.4487 106.666L32.1072 105.69L32.7869 104.728L33.4867 103.779L34.2054 102.844L34.9418 101.923L35.6947 101.017L36.4629 100.125L37.2452 99.2471L38.0402 98.384L38.8467 97.5353L39.6634 96.701L40.4891 95.8809L41.3225 95.0748L42.1623 94.2826L43.0072 93.5039L43.8561 92.7384L44.7077 91.9858L45.5609 91.2457L46.4144 90.5177L47.2672 89.8012L48.1181 89.0957L48.9662 88.4008L49.8104 87.7157L50.6497 87.04L51.4832 86.373L52.3101 85.714L54.7432 83.7781L55.536 83.1441L56.3187 82.5146L57.0909 81.8887L57.852 81.2659L58.6019 80.6452L59.3402 80.0262L60.067 79.4081L60.7821 78.7902L61.4856 78.172L62.1776 77.5529L62.8583 76.9323L63.528 76.3098L64.1869 75.6848L64.8355 75.0569L65.4743 74.4257L66.1037 73.7909L66.7242 73.1522L67.3365 72.5093L67.9412 71.862L68.5389 71.2102L69.1304 70.5536L69.7164 69.8922L70.2976 69.226L70.8747 68.555L71.4486 67.8792L72.0201 67.1987L72.5899 66.5137L73.1588 65.8243L73.7276 65.1306L74.2971 64.4331L76.0174 62.3196L76.5972 61.6092L77.1814 60.8966L77.7707 60.182L78.3656 59.4659L78.9669 58.7488L79.5751 58.031L80.1908 57.3131L80.8145 56.5954L81.4466 55.8785L82.0876 55.1627L82.7379 54.4486L83.3979 53.7365L84.0679 53.027L84.7482 52.3203L85.4391 51.6169L86.1407 50.9172L86.8533 50.2216L87.577 49.5302L88.3119 48.8436L89.0581 48.1618L89.8156 47.4853L90.5846 46.8143L91.365 46.149L92.157 45.4898L92.9605 44.837L93.7756 44.1908L94.6023 43.5514L95.4404 42.9192L96.2901 42.2943L97.1513 41.6771L98.0239 41.0677L98.9078 40.4664L99.8031 39.8735L100.71 39.2891L101.627 38.7134L102.556 38.1468L103.496 37.5893L104.446 37.0412L105.407 36.5026L106.379 35.9738L107.362 35.4549L108.354 34.946L109.357 34.4474L110.37 33.9591L111.393 33.4814L112.426 33.0143L113.469 32.558L114.521 32.1126L115.582 31.6782L116.652 31.2548L117.732 30.8426L118.82 30.4416L119.917 30.0519L121.022 29.6735L122.136 29.3066L123.258 28.951L124.388 28.6069L125.526 28.2742L126.672 27.953L127.825 27.6431L128.986 27.3445L130.154 27.0571L131.329 26.7806L132.511 26.5147L133.7 26.2593L134.897 26.014L136.1 25.7784L137.309 25.5522L138.526 25.3349L139.75 25.1262L140.98 24.9256L142.218 24.7326L143.463 24.5467L144.715 24.3675L145.974 24.1945L147.241 24.0271L148.516 23.865L149.8 23.7076L151.091 23.5545L152.392 23.4053L153.702 23.2594L155.021 23.1166L156.35 22.9764L157.69 22.8385L159.04 22.7026L160.402 22.5684L161.775 22.4357L163.161 22.3043L164.559 22.174L165.971 22.0448L167.396 21.9166L168.836 21.7894L170.29 21.6633L171.76 21.5384L173.245 21.4149L174.746 21.293L176.263 21.1731L177.798 21.0554L179.349 20.9405L180.918 20.8288L182.505 20.7208L184.11 20.6172L185.733 20.5187L187.375 20.4259L189.034 20.3398L190.713 20.2611L192.409 20.1907L194.123 20.1297L195.856 20.0791L197.606 20.0399L199.373 20.0132L201.157 20L202.958 20.0014L204.774 20.0186L206.606 20.0526L208.452 20.1045L210.312 20.1754L212.185 20.2664L214.07 20.3785L215.966 20.5129L217.873 20.6706L219.789 20.8526L221.714 21.0598L223.645 21.2934L225.583 21.5541L227.525 21.843L229.471 22.1609L231.419 22.5086L233.368 22.887L235.317 23.2967L237.263 23.7385L239.207 24.2131L241.145 24.721L243.077 25.2628L245.001 25.839L246.916 26.45L248.82 27.0963L250.712 27.7781L252.59 28.4957L254.453 29.2494L256.298 30.0392L258.125 30.8652L259.932 31.7275L261.718 32.6261L263.48 33.5608L265.219 34.5315L266.931 35.5379L268.617 36.5799L270.273 37.6569L271.9 38.7688L273.496 39.915L275.059 41.0951L276.589 42.3086L278.083 43.5551L279.541 44.8338L280.962 46.1442L282.343 47.4857L283.685 48.8575L284.985 50.2589L286.244 51.6891L287.459 53.1473L288.629 54.6326L289.755 56.1441L290.834 57.6809L291.867 59.242L292.852 60.8264L293.788 62.4331L294.676 64.061L295.514 65.7089L296.301 67.3759L297.039 69.0606L297.725 70.7621L298.361 72.4791L298.945 74.2104L299.477 75.9548L299.958 77.7111L300.388 79.4782L300.766 81.2548L301.093 83.0396L301.37 84.8316L301.595 86.6295L301.77 88.4321L301.896 90.2383L301.972 92.0469L302 93.8567L301.98 95.6668L301.912 97.4759L301.798 99.2831L301.637 101.087L301.432 102.888L301.183 104.683L300.89 106.472L300.555 108.255L300.179 110.03L299.762 111.796L299.306 113.554L298.812 115.301L298.28 117.037L297.711 118.763L297.107 120.476L296.469 122.176L295.797 123.863L295.093 125.536L294.358 127.196L293.593 128.84L292.8 130.469L291.979 132.083L291.132 133.681L290.26 135.263L289.364 136.828L288.446 138.377L287.506 139.909L286.547 141.425L285.569 142.923L284.573 144.405L283.561 145.87L282.533 147.318L281.492 148.749L280.438 150.164L279.372 151.562L278.296 152.944L277.21 154.31L276.115 155.661L275.013 156.995L273.904 158.315L272.789 159.62L271.67 160.911L270.547 162.187L269.42 163.45L268.29 164.699L267.159 165.936L266.026 167.16L264.893 168.373L263.76 169.574L262.626 170.764L261.493 171.943L260.362 173.112L259.231 174.272L258.102 175.422L256.975 176.563Z" stroke="black"/>
</g>
<mask id="mask0_615_22046" style="mask-type:alpha" maskUnits="userSpaceOnUse" x="24" y="20" width="278" height="210">
<path fill-rule="evenodd" clip-rule="evenodd" d="M256.975 176.563L255.849 177.696L254.725 178.821L253.604 179.938L252.484 181.048L251.365 182.151L250.249 183.247L249.133 184.336L248.019 185.42L246.906 186.497L245.793 187.568L244.68 188.634L243.568 189.693L242.454 190.748L241.34 191.797L240.224 192.84L239.106 193.877L237.985 194.909L236.862 195.935L235.735 196.954L234.604 197.968L233.468 198.975L232.327 199.975L231.18 200.969L230.027 201.954L228.867 202.932L227.699 203.902L226.524 204.863L225.34 205.815L224.148 206.757L222.945 207.689L221.734 208.61L220.511 209.519L219.279 210.417L218.035 211.302L216.78 212.174L215.513 213.032L214.235 213.875L212.945 214.703L211.642 215.516L210.327 216.311L209 217.09L207.66 217.851L206.307 218.593L204.943 219.316L203.565 220.02L202.176 220.703L200.775 221.366L199.362 222.007L197.937 222.626L196.501 223.223L195.055 223.798L193.597 224.349L192.13 224.876L190.652 225.38L189.166 225.859L187.67 226.313L186.166 226.742L184.654 227.146L183.134 227.524L181.608 227.876L180.075 228.201L178.536 228.5L176.992 228.772L175.444 229.017L173.891 229.236L172.335 229.427L170.776 229.59L169.215 229.727L167.652 229.836L166.089 229.918L164.525 229.972L162.962 230L161.4 230L159.84 229.973L158.282 229.92L156.728 229.84L155.177 229.733L153.63 229.601L152.089 229.443L150.553 229.259L149.023 229.05L147.501 228.817L145.986 228.559L144.478 228.278L142.98 227.973L141.49 227.645L140.01 227.295L138.541 226.923L137.082 226.529L135.633 226.115L134.197 225.681L132.772 225.228L131.359 224.756L129.959 224.265L128.572 223.758L127.198 223.233L125.838 222.692L124.491 222.136L123.158 221.565L121.839 220.98L120.534 220.382L119.244 219.771L117.968 219.148L116.706 218.514L115.459 217.869L114.226 217.214L113.008 216.551L111.804 215.879L110.614 215.199L109.439 214.512L108.278 213.819L107.13 213.121L105.996 212.417L104.875 211.709L103.768 210.997L102.673 210.281L101.591 209.564L100.521 208.844L99.4631 208.123L98.4167 207.401L97.3814 206.678L96.3568 205.956L95.3426 205.234L94.3383 204.513L93.3434 203.793L92.3575 203.076L91.38 202.36L90.4106 201.647L89.4488 200.937L88.4939 200.23L81.9659 195.383L81.0497 194.706L80.1364 194.033L79.2253 193.365L78.3161 192.7L77.4084 192.039L76.5018 191.381L75.596 190.727L74.6906 190.076L73.7854 189.428L72.8799 188.783L71.974 188.14L71.0675 187.499L70.16 186.86L69.2515 186.222L68.3418 185.585L61.9341 181.123L61.0132 180.479L60.0913 179.833L59.1685 179.183L58.2451 178.529L57.3212 177.87L56.3973 177.207L55.4736 176.538L54.5505 175.864L53.6284 175.183L52.7076 174.495L51.7887 173.8L50.8721 173.098L49.9584 172.387L49.048 171.668L48.1415 170.94L47.2395 170.202L46.3425 169.455L45.4512 168.699L44.5663 167.931L43.6883 167.154L42.8179 166.365L41.9559 165.566L41.1031 164.755L40.2602 163.933L39.4282 163.098L38.6079 162.252L37.8002 161.394L37.006 160.523L36.2265 159.64L35.4624 158.744L34.7148 157.835L33.9847 156.914L33.2731 155.981L32.581 155.035L31.9094 154.076L31.2593 153.105L30.6316 152.122L30.0273 151.127L29.4474 150.12L28.8926 149.102L28.364 148.073L27.8622 147.033L27.3882 145.983L26.9427 144.923L26.5263 143.854L26.1399 142.776L25.7839 141.69L25.459 140.597L25.1656 139.496L24.9043 138.388L24.6755 137.275L24.4795 136.157L24.3165 135.035L24.187 133.908L24.091 132.779L24.0286 131.648L24 130.514L24.0052 129.381L24.0441 128.247L24.1166 127.114L24.2226 125.982L24.362 124.853L24.5345 123.726L24.7398 122.604L24.9776 121.486L25.2476 120.372L25.5493 119.265L25.8824 118.164L26.2464 117.071L26.6409 115.985L27.0651 114.908L27.5187 113.84L28.0008 112.782L28.5108 111.734L29.0479 110.696L29.6111 109.671L30.1996 108.657L30.8125 107.655L31.4487 106.666L32.1072 105.69L32.7869 104.728L33.4867 103.779L34.2054 102.844L34.9418 101.923L35.6947 101.017L36.4629 100.125L37.2452 99.2471L38.0402 98.384L38.8467 97.5353L39.6634 96.701L40.4891 95.8809L41.3225 95.0748L42.1623 94.2826L43.0072 93.5039L43.8561 92.7384L44.7077 91.9858L45.5609 91.2457L46.4144 90.5177L47.2672 89.8012L48.1181 89.0957L48.9662 88.4008L49.8104 87.7157L50.6497 87.04L51.4832 86.373L52.3101 85.714L54.7432 83.7781L55.536 83.1441L56.3187 82.5146L57.0909 81.8887L57.852 81.2659L58.6019 80.6452L59.3402 80.0262L60.067 79.4081L60.7821 78.7902L61.4856 78.172L62.1776 77.5529L62.8583 76.9323L63.528 76.3098L64.1869 75.6848L64.8355 75.0569L65.4743 74.4257L66.1037 73.7909L66.7242 73.1522L67.3365 72.5093L67.9412 71.862L68.5389 71.2102L69.1304 70.5536L69.7164 69.8922L70.2976 69.226L70.8747 68.555L71.4486 67.8792L72.0201 67.1987L72.5899 66.5137L73.1588 65.8243L73.7276 65.1306L74.2971 64.4331L76.0174 62.3196L76.5972 61.6092L77.1814 60.8966L77.7707 60.182L78.3656 59.4659L78.9669 58.7488L79.5751 58.031L80.1908 57.3131L80.8145 56.5954L81.4466 55.8785L82.0876 55.1627L82.7379 54.4486L83.3979 53.7365L84.0679 53.027L84.7482 52.3203L85.4391 51.6169L86.1407 50.9172L86.8533 50.2216L87.577 49.5302L88.3119 48.8436L89.0581 48.1618L89.8156 47.4853L90.5846 46.8143L91.365 46.149L92.157 45.4898L92.9605 44.837L93.7756 44.1908L94.6023 43.5514L95.4404 42.9192L96.2901 42.2943L97.1513 41.6771L98.0239 41.0677L98.9078 40.4664L99.8031 39.8735L100.71 39.2891L101.627 38.7134L102.556 38.1468L103.496 37.5893L104.446 37.0412L105.407 36.5026L106.379 35.9738L107.362 35.4549L108.354 34.946L109.357 34.4474L110.37 33.9591L111.393 33.4814L112.426 33.0143L113.469 32.558L114.521 32.1126L115.582 31.6782L116.652 31.2548L117.732 30.8426L118.82 30.4416L119.917 30.0519L121.022 29.6735L122.136 29.3066L123.258 28.951L124.388 28.6069L125.526 28.2742L126.672 27.953L127.825 27.6431L128.986 27.3445L130.154 27.0571L131.329 26.7806L132.511 26.5147L133.7 26.2593L134.897 26.014L136.1 25.7784L137.309 25.5522L138.526 25.3349L139.75 25.1262L140.98 24.9256L142.218 24.7326L143.463 24.5467L144.715 24.3675L145.974 24.1945L147.241 24.0271L148.516 23.865L149.8 23.7076L151.091 23.5545L152.392 23.4053L153.702 23.2594L155.021 23.1166L156.35 22.9764L157.69 22.8385L159.04 22.7026L160.402 22.5684L161.775 22.4357L163.161 22.3043L164.559 22.174L165.971 22.0448L167.396 21.9166L168.836 21.7894L170.29 21.6633L171.76 21.5384L173.245 21.4149L174.746 21.293L176.263 21.1731L177.798 21.0554L179.349 20.9405L180.918 20.8288L182.505 20.7208L184.11 20.6172L185.733 20.5187L187.375 20.4259L189.034 20.3398L190.713 20.2611L192.409 20.1907L194.123 20.1297L195.856 20.0791L197.606 20.0399L199.373 20.0132L201.157 20L202.958 20.0014L204.774 20.0186L206.606 20.0526L208.452 20.1045L210.312 20.1754L212.185 20.2664L214.07 20.3785L215.966 20.5129L217.873 20.6706L219.789 20.8526L221.714 21.0598L223.645 21.2934L225.583 21.5541L227.525 21.843L229.471 22.1609L231.419 22.5086L233.368 22.887L235.317 23.2967L237.263 23.7385L239.207 24.2131L241.145 24.721L243.077 25.2628L245.001 25.839L246.916 26.45L248.82 27.0963L250.712 27.7781L252.59 28.4957L254.453 29.2494L256.298 30.0392L258.125 30.8652L259.932 31.7275L261.718 32.6261L263.48 33.5608L265.219 34.5315L266.931 35.5379L268.617 36.5799L270.273 37.6569L271.9 38.7688L273.496 39.915L275.059 41.0951L276.589 42.3086L278.083 43.5551L279.541 44.8338L280.962 46.1442L282.343 47.4857L283.685 48.8575L284.985 50.2589L286.244 51.6891L287.459 53.1473L288.629 54.6326L289.755 56.1441L290.834 57.6809L291.867 59.242L292.852 60.8264L293.788 62.4331L294.676 64.061L295.514 65.7089L296.301 67.3759L297.039 69.0606L297.725 70.7621L298.361 72.4791L298.945 74.2104L299.477 75.9548L299.958 77.7111L300.388 79.4782L300.766 81.2548L301.093 83.0396L301.37 84.8316L301.595 86.6295L301.77 88.4321L301.896 90.2383L301.972 92.0469L302 93.8567L301.98 95.6668L301.912 97.4759L301.798 99.2831L301.637 101.087L301.432 102.888L301.183 104.683L300.89 106.472L300.555 108.255L300.179 110.03L299.762 111.796L299.306 113.554L298.812 115.301L298.28 117.037L297.711 118.763L297.107 120.476L296.469 122.176L295.797 123.863L295.093 125.536L294.358 127.196L293.593 128.84L292.8 130.469L291.979 132.083L291.132 133.681L290.26 135.263L289.364 136.828L288.446 138.377L287.506 139.909L286.547 141.425L285.569 142.923L284.573 144.405L283.561 145.87L282.533 147.318L281.492 148.749L280.438 150.164L279.372 151.562L278.296 152.944L277.21 154.31L276.115 155.661L275.013 156.995L273.904 158.315L272.789 159.62L271.67 160.911L270.547 162.187L269.42 163.45L268.29 164.699L267.159 165.936L266.026 167.16L264.893 168.373L263.76 169.574L262.626 170.764L261.493 171.943L260.362 173.112L259.231 174.272L258.102 175.422L256.975 176.563Z" fill="url(#paint1_linear_615_22046)"/>
</mask>
<g mask="url(#mask0_615_22046)">
<path fill-rule="evenodd" clip-rule="evenodd" d="M81.4512 121.496C80.3549 120.23 79.6603 118.355 79.6603 116.264C79.6603 113.032 81.321 110.315 83.5596 109.567C84.4277 106.463 87.3972 104.173 90.9226 104.173C92.824 104.173 94.5637 104.839 95.8992 105.94C96.3888 106.105 99.3012 107.014 102.177 106.219C105.33 105.349 115.227 104.521 128.277 98.6434C134.543 95.8211 153.239 89.021 153.239 89.021C153.239 89.021 164.789 87.3155 170.654 87.1743C171.252 86.964 171.574 86.8501 171.574 86.8501C171.574 86.8501 196.39 85.9395 214.874 94.7163C232.401 103.038 228.713 106.847 232.087 107.579C235.715 108.365 246.2 133.197 247.911 157.008C249.621 180.819 249.087 218.715 245.773 222.117C245.636 222.257 245.426 222.482 245.148 222.785C247.53 222.818 250.639 222.684 254.642 222.223C265.55 220.965 277.768 204.384 281.042 196.79C283.923 190.109 290.559 196.685 290.976 200.838C291.393 204.99 293.9 223.676 277.82 246.721C263.295 267.54 239.227 275.651 232.403 277.178L233.105 284.435L240.837 288.586L242.069 292.055L240.358 294.028L238.306 294.776L240.153 298.722L240.29 302.736L235.774 304.437L230.437 303.484L227.358 301.171L226.879 306.069L221.884 309.471L215.657 307.158L210.936 302.191L210.183 305.866L207.378 308.042L202.383 308.11L198.939 306.627L197.593 302.804L197.456 297.973L194.308 299.266L188.766 301.579H183.223L179.529 300.219L178.913 294.981L186.713 289.81L188.492 280.353L188.554 278.627C188.229 278.725 187.937 278.778 187.68 278.779C182.409 278.822 173.776 277.979 164.86 276.528C165.246 278.512 165.885 280.705 166.933 282.231C169.327 285.718 169.926 285.803 172.064 287.418C174.203 289.034 175.564 290.999 174.623 292.529C173.682 294.06 172.68 295.088 170.798 295.343C168.916 295.599 166.854 293.322 165.23 292.556C163.604 291.791 159.321 288.864 159.919 289.714C160.518 290.565 158.636 300.77 157.438 302.301C156.242 303.831 148.831 303.129 148.458 301.96C147.776 299.825 148.201 295.497 148.201 295.497L148.819 291.299L147.175 290.14L140.247 297.113L135.03 298.134L132.208 298.649L129.292 296.93L129.042 292.01L125.621 292.096L121.142 291.648L119.121 286.908L122.235 284.461L123.055 282.912L122.821 279.421L131.865 276.364L132.72 272.622L133.062 267.264L133.18 266.839C126.933 262.005 121.721 260.057 117.392 250.128C114.036 242.431 113.879 235.468 115.361 226.136L115.081 227.097C115.031 227.269 114.962 227.43 114.875 227.578C114.729 229.032 113.043 230.181 110.988 230.181C108.837 230.181 107.09 228.922 107.09 227.372C107.09 227.114 107.139 226.865 107.229 226.628C106.826 226.108 106.668 225.412 106.865 224.735L110.253 213.086L108.581 213.651L103.312 215.295L100.902 213.344L100.818 210.279L103.34 207.13L108.469 204.901L114.383 196.402L116.793 190.104L116.856 190.144L120.605 177.254C120.685 176.98 120.815 176.734 120.984 176.524C120.211 173.918 119.231 171.315 118.182 168.51C116.99 165.323 100.957 159.474 98.6563 131.079C98.6483 130.979 98.6403 130.88 98.6326 130.782C97.8959 130.864 97.1419 130.907 96.3747 130.907C88.8769 130.907 82.6455 126.833 81.4512 121.496Z" fill="#ABB288"/>
<path fill-rule="evenodd" clip-rule="evenodd" d="M125.47 99.6961C130.47 97.5281 140.468 93.1922 146.381 91.2057C151.106 89.6178 156.653 88.4754 160.941 87.7769C164.623 87.1771 169.426 87.1238 172.109 87.0149C173.75 86.9483 175.399 86.9666 177.035 87.1238C181.943 87.5955 193.676 87.5095 201.558 89.8451C213.047 93.2489 227.888 100.389 234.881 111.629C245.207 128.225 247.965 148.516 248.737 172.687C249.271 189.398 247.511 211.834 246.086 222.776C245.37 228.273 242.066 234.526 240.184 238.338C238.845 241.051 236.078 245.042 234.795 245.652C233.513 246.261 232.955 243.356 232.486 241.995C231.973 240.506 232.173 237.927 231.716 236.722C231.39 235.859 229.972 235.661 229.749 234.766C229.507 233.788 229.875 232.112 230.262 230.855C230.961 228.587 233.399 223.442 233.94 221.16C234.25 219.856 234.239 217.631 233.513 217.163C232.786 216.695 230.547 218.637 229.578 218.354C228.609 218.07 227.576 216.604 227.697 215.463C227.896 213.563 229.564 209.297 230.776 206.959C231.838 204.907 234.368 203.542 234.966 201.431C235.566 199.319 234.881 196.073 234.368 194.287C233.968 192.896 232.144 191.892 231.888 190.715C231.631 189.539 232.311 188.317 232.828 187.229C233.698 185.401 236.392 181.617 237.105 179.746C237.549 178.579 237.333 177.053 237.105 176.004C236.9 175.062 236.116 174.34 235.736 173.452C235.294 172.418 235.066 170.76 234.454 169.796C233.881 168.897 233.087 167.963 232.059 167.67C230.818 167.315 228.381 168.038 227.012 167.67C225.768 167.335 224.579 166.515 223.847 165.459C223.092 164.367 222.337 162.341 222.479 161.122C222.621 159.903 223.881 159.073 224.702 158.145C226.086 156.587 229.422 153.596 230.776 151.767C231.774 150.418 232.68 148.844 232.828 147.176C232.986 145.404 232.316 142.64 231.716 141.138C231.239 139.94 230.22 138.629 229.236 138.161C228.253 137.694 226.813 138.048 225.814 138.331C224.855 138.604 224.204 139.848 223.249 139.862C222.294 139.876 220.911 138.997 220.084 138.416C219.342 137.895 219.044 136.877 218.288 136.375C217.39 135.78 215.696 135.675 214.696 134.845C213.655 133.98 212.087 132.648 212.044 131.188C212.002 129.728 213.527 127.503 214.439 126.086C215.267 124.801 216.264 123.393 217.518 122.684C218.773 121.975 221.082 122.556 221.966 121.834C222.85 121.111 222.921 119.538 222.821 118.347C222.722 117.156 222.437 115.456 221.368 114.69C220.199 113.854 217.162 114.336 215.808 113.33C214.453 112.323 213.569 110.07 213.242 108.652C212.95 107.394 213.727 106.002 213.841 104.826C213.945 103.753 214.485 102.517 213.926 101.594C213.256 100.489 211.275 98.8729 209.82 98.1925C208.413 97.5337 206.442 97.9515 205.202 97.5122C204.122 97.1295 203.522 95.6427 202.379 95.5563C197.504 95.1878 181.224 95.2304 175.95 95.3012C174.197 95.3247 172.13 95.698 170.733 95.9815C169.646 96.202 168.648 96.7525 167.568 97.002C166.157 97.3279 163.905 97.9091 162.266 97.9375C160.733 97.9639 159.13 97.2287 157.732 97.1721C156.442 97.1197 155.067 97.1579 153.883 97.5973C152.7 98.0367 151.475 98.8067 150.633 99.8083C149.764 100.843 149.892 103.125 148.666 103.805C147.44 104.485 145.074 103.909 143.277 103.89C141.239 103.869 138.51 103.499 136.438 103.679C134.533 103.845 132.696 104.917 130.848 104.972C129.001 105.027 126.25 104.889 125.354 104.009C124.457 103.13 125.132 100.841 125.47 99.6961ZM230.398 186.25C230 186.59 229.38 186.696 228.866 186.599C228.325 186.498 227.614 186.107 227.158 185.642C226.639 185.111 226.084 184.232 225.756 183.42C225.413 182.572 225.129 181.36 225.099 180.547C225.075 179.861 225.413 179.103 225.581 178.544C225.72 178.082 225.865 177.557 226.107 177.195C226.334 176.852 226.661 176.559 227.027 176.367C227.537 176.098 228.478 175.54 229.172 175.584C229.865 175.627 230.705 176.135 231.186 176.628C231.668 177.121 231.928 177.856 232.062 178.544C232.223 179.371 232.179 180.678 232.15 181.592C232.124 182.409 232.175 183.265 231.887 184.031C231.595 184.807 230.902 185.822 230.398 186.25ZM212.234 122.519C211.722 122.657 211.033 122.652 210.463 122.497C209.805 122.319 208.8 121.995 208.287 121.449C207.776 120.903 207.548 119.967 207.391 119.22C207.236 118.485 207.13 117.552 207.346 116.969C207.559 116.396 208.239 115.928 208.691 115.72C209.105 115.53 209.609 115.648 210.059 115.72C210.825 115.843 212.544 116.151 213.288 116.456C213.797 116.664 214.214 117.125 214.521 117.548C214.827 117.972 215.096 118.518 215.127 118.997C215.156 119.476 214.955 119.997 214.7 120.424C214.435 120.87 213.946 121.323 213.534 121.672C213.141 122.007 212.734 122.385 212.234 122.519ZM206.217 142.424C205.975 142.416 205.739 142.271 205.566 142.102C205.285 141.829 204.67 141.326 204.535 140.787C204.269 139.728 203.72 137.075 203.974 135.749C204.199 134.576 205.2 133.338 206.059 132.828C206.919 132.319 208.279 132.401 209.131 132.695C209.983 132.988 210.746 133.767 211.172 134.59C211.736 135.678 212.416 138.086 212.517 139.226C212.585 139.999 212.098 140.928 211.777 141.434C211.519 141.839 211.064 142.174 210.588 142.258C209.662 142.423 207.054 142.45 206.217 142.424ZM226.639 187.781C227.061 187.681 227.629 187.639 227.985 187.71C228.291 187.771 228.577 187.969 228.774 188.209C229.01 188.497 229.324 188.991 229.402 189.44C229.48 189.889 229.379 190.432 229.241 190.903C229.076 191.458 228.726 192.386 228.415 192.775C228.179 193.071 227.74 193.214 227.375 193.239C227.01 193.263 226.574 193.11 226.227 192.918C225.829 192.698 225.258 192.375 224.989 191.919C224.708 191.44 224.463 190.647 224.541 190.047C224.619 189.446 225.106 188.694 225.456 188.316C225.75 188 226.218 187.883 226.639 187.781ZM223.003 205.262C223.17 204.882 223.698 204.672 224.114 204.691C224.642 204.714 225.574 205.026 226.165 205.404C226.758 205.782 227.392 206.543 227.666 206.956C227.839 207.217 227.908 207.586 227.81 207.883C227.615 208.472 226.904 209.913 226.5 210.487C226.234 210.866 225.82 211.153 225.388 211.325C224.949 211.5 224.285 211.733 223.864 211.539C223.442 211.346 223.095 210.677 222.859 210.166C222.623 209.655 222.429 209.053 222.447 208.472C222.47 207.654 222.724 205.892 223.003 205.262ZM228.399 195.891C228.886 195.489 229.722 195.415 230.282 195.668C230.843 195.921 231.468 196.706 231.762 197.407C232.079 198.164 232.15 199.302 232.188 200.216C232.225 201.109 232.277 202.237 231.986 202.891C231.717 203.494 230.91 203.923 230.439 204.139C230.052 204.316 229.527 204.336 229.161 204.184C228.795 204.032 228.509 203.579 228.242 203.225C227.917 202.795 227.372 202.219 227.211 201.598C227.001 200.792 226.788 199.339 226.986 198.388C227.181 197.453 227.85 196.344 228.399 195.891ZM212.411 155.145C211.925 154.631 211.835 153.752 211.738 153.138C211.65 152.587 211.851 152.024 211.827 151.467C211.801 150.853 211.599 150.134 211.581 149.461C211.562 148.762 211.506 147.975 211.716 147.276C211.959 146.462 212.545 145.255 213.039 144.579C213.455 144.006 214.148 143.434 214.675 143.219C215.146 143.026 215.708 143.156 216.2 143.285C216.935 143.479 218.195 144.04 219.092 144.378C219.921 144.691 221.002 145.039 221.581 145.314C221.948 145.488 222.341 145.692 222.568 146.027C222.848 146.444 223.17 147.18 223.263 147.811C223.378 148.602 223.303 149.843 223.263 150.776C223.224 151.656 223.24 152.704 223.016 153.407C222.821 154.017 222.399 154.577 221.917 154.989C221.435 155.402 220.756 155.668 220.123 155.881C219.35 156.141 218.161 156.465 217.276 156.55C216.456 156.629 215.6 156.622 214.809 156.394C213.998 156.159 212.923 155.687 212.411 155.145ZM211.404 106.527C210.614 106.841 210.353 106.948 209.852 106.962C206.801 107.046 206.595 105.352 205.737 104.342C204.923 103.384 205.13 101.422 205.737 100.58C206.344 99.7383 208.382 99.1228 209.38 99.2913C210.379 99.4596 211.219 100.702 211.728 101.59C212.235 102.478 212.568 103.779 212.428 104.621C212.29 105.454 212.376 106.139 211.404 106.527ZM221.387 177.065C220.608 176.726 220.349 176.616 219.988 176.27C217.787 174.167 218.858 172.833 218.98 171.516C219.096 170.267 220.648 169.038 221.678 168.878C222.707 168.718 224.577 169.731 225.156 170.557C225.737 171.382 225.435 172.85 225.155 173.833C224.874 174.816 224.175 175.964 223.473 176.454C222.778 176.941 222.348 177.483 221.387 177.065ZM229.013 220.731C229.704 221.222 229.935 221.383 230.216 221.796C231.93 224.308 230.604 225.392 230.21 226.655C229.836 227.852 228.062 228.735 227.021 228.679C225.98 228.623 224.363 227.246 223.968 226.319C223.573 225.392 224.174 224.019 224.653 223.115C225.133 222.211 226.056 221.233 226.846 220.897C227.627 220.565 228.16 220.124 229.013 220.731ZM208.545 151.965C208.354 152.668 207.539 153.272 206.808 153.303C205.93 153.34 204.005 152.676 203.276 152.189C202.722 151.817 202.417 151.042 202.436 150.377C202.459 149.55 202.963 147.907 203.416 147.228C203.779 146.685 204.501 146.377 205.154 146.309C205.822 146.239 206.92 146.485 207.424 146.81C207.884 147.106 208.065 147.727 208.181 148.259C208.368 149.119 208.774 151.125 208.545 151.965ZM224.446 145.086C223.958 144.972 223.467 144.625 223.257 144.172C223.036 143.697 223.007 142.734 223.123 142.233C223.224 141.794 223.552 141.373 223.952 141.163C224.546 140.851 225.929 140.431 226.688 140.36C227.303 140.303 228.051 140.468 228.503 140.739C228.944 141.003 229.333 141.481 229.401 141.988C229.479 142.571 229.269 143.704 228.975 144.239C228.709 144.72 228.171 145.096 227.629 145.198C226.874 145.339 225.175 145.257 224.446 145.086Z" fill="#838A60"/>
<path fill-rule="evenodd" clip-rule="evenodd" d="M186.874 230.365C187.375 230.264 188.569 230.709 189.337 230.419C190.131 230.12 190.906 229.227 191.636 228.568C192.512 227.779 193.762 226.527 194.593 225.684C195.288 224.977 196.317 223.199 196.617 223.507C196.918 223.815 196.892 226.382 196.399 227.534C195.906 228.687 194.401 229.738 193.661 230.419C193.153 230.888 192.6 231.34 191.965 231.617C191.235 231.934 190.113 232.615 189.283 232.742C188.525 232.858 187.477 232.596 186.984 232.378C186.521 232.174 186.345 231.353 186.327 231.017C186.311 230.735 186.595 230.42 186.874 230.365Z" fill="#8F9970"/>
<path fill-rule="evenodd" clip-rule="evenodd" d="M183.589 212.55C184.274 212.465 185.757 212.422 186.755 212.295C187.703 212.174 188.779 211.771 189.577 211.785C190.262 211.797 191.188 212.082 191.544 212.38C191.853 212.638 191.878 213.204 191.715 213.571C191.444 214.18 190.862 215.646 189.919 216.036C188.893 216.462 186.626 216.263 185.557 216.122C184.811 216.023 183.989 215.739 183.504 215.186C183.019 214.633 182.635 213.244 182.648 212.805C182.659 212.483 183.267 212.59 183.589 212.55Z" fill="#8F9970"/>
<path fill-rule="evenodd" clip-rule="evenodd" d="M196.841 234.848C197.133 234.485 199.983 235.212 200.558 234.709C201.17 234.173 201.699 233.272 202.146 232.477C202.666 231.552 203.149 230.2 203.678 229.157C204.186 228.156 204.974 226.263 205.321 226.218C205.668 226.173 205.93 228.001 205.758 228.885C205.54 230.01 204.919 231.771 204.298 232.877C203.772 233.815 203.1 234.988 202.462 235.614C201.936 236.13 200.915 237.119 200.377 237.346C199.953 237.525 199.06 237.627 198.201 237.354C196.749 236.89 196.581 235.171 196.841 234.848Z" fill="#8F9970"/>
<path fill-rule="evenodd" clip-rule="evenodd" d="M208.823 232.314C209.462 232.169 211.174 232.237 211.725 231.389C212.391 230.364 212.498 227.914 212.82 226.164C213.267 223.733 213.832 219.17 214.407 216.803C214.815 215.122 215.684 213.587 216.268 211.959C216.879 210.254 217.521 208.383 218.075 206.571C218.641 204.72 219.48 200.557 219.663 200.856C219.845 201.155 219.559 205.888 219.17 208.367C218.768 210.925 217.71 213.9 217.254 216.204C216.863 218.18 216.7 220.194 216.432 222.191C216.159 224.232 215.903 226.808 215.612 228.45C215.395 229.667 215.147 231.09 214.681 232.042C214.268 232.886 213.648 233.714 212.82 234.165C211.934 234.645 210.184 235.017 209.371 234.926C208.729 234.855 208.194 234.065 207.948 233.62C207.728 233.223 207.747 232.477 207.893 232.26C208.039 232.042 208.521 232.383 208.823 232.314Z" fill="#8F9970"/>
<path fill-rule="evenodd" clip-rule="evenodd" d="M188.546 278.826L188.554 278.627C188.229 278.725 187.937 278.778 187.68 278.78C182.409 278.823 173.776 277.979 164.86 276.528C165.246 278.512 165.885 280.705 166.933 282.231C169.327 285.718 169.926 285.803 172.065 287.418C174.203 289.035 175.564 290.999 174.623 292.529C173.682 294.06 172.68 295.088 170.798 295.344C168.916 295.599 166.854 293.323 165.23 292.557C163.604 291.791 159.321 288.864 159.919 289.715C160.518 290.566 158.636 300.77 157.438 302.301C156.242 303.831 148.831 303.13 148.458 301.96C147.776 299.825 148.202 295.497 148.202 295.497L148.819 291.3L147.175 290.14L140.247 297.114L135.03 298.134L132.208 298.649L129.292 296.931L129.042 292.011L125.621 292.096L121.142 291.648L119.121 286.909L122.235 284.461L123.055 282.912L122.821 279.421L131.865 276.364L132.72 272.622L133.062 267.264L133.18 266.839C126.933 262.005 121.721 260.058 117.392 250.129C117.062 249.37 116.762 248.619 116.492 247.872C116.639 247.758 116.784 247.642 116.926 247.524C120.089 250.802 122.654 254.778 126.414 257.357C130.29 260.014 135.367 262.03 140.179 263.469C145.659 265.107 152.859 266.31 159.29 267.19C165.772 268.075 172.461 268.478 179.069 268.784C181.945 268.917 185.266 269.072 188.764 269.205C188.834 271.221 188.934 274.148 188.815 276.14C188.761 277.031 188.67 277.933 188.546 278.826ZM232.173 267.615C232.841 267.484 233.494 267.343 234.13 267.19C240.754 265.592 246.892 262.051 252.705 258.686C258.496 255.332 264.355 250.934 269.01 246.993C273.255 243.397 277.598 239.683 280.636 235.034C283.777 230.228 285.982 223.585 287.853 218.159C289.387 213.71 289.905 206.494 291.225 203.502C291.73 210.457 291.586 226.992 277.82 246.722C263.295 267.54 239.227 275.651 232.403 277.178L233.007 283.422C232.697 282.602 232.448 281.717 232.35 280.903C232.036 278.309 232.236 272.895 232.179 270.018C232.164 269.277 232.17 268.444 232.173 267.615ZM233.555 284.676L240.837 288.586L242.069 292.055L240.358 294.028L238.306 294.776L238.37 294.913C237.977 294.396 237.298 293.965 236.797 293.574C235.728 292.738 232.507 291.235 232.265 290.853C232.022 290.47 234.46 291.334 235.343 291.277C236.126 291.228 237.068 290.81 237.567 290.512C237.934 290.294 238.473 289.895 238.337 289.492C238.166 288.981 237.21 288.063 236.541 287.451C235.828 286.799 234.617 286.45 234.06 285.58C233.895 285.322 233.723 285.015 233.555 284.676ZM238.671 295.556L240.153 298.722L240.29 302.736L235.774 304.437L230.437 303.485L227.358 301.171L226.879 306.07L221.884 309.471L215.657 307.158L210.936 302.192L210.183 305.866L207.378 308.043L202.383 308.111L198.939 306.628L197.593 302.804L197.456 297.973L194.308 299.266L188.766 301.58H183.223L179.529 300.219L178.913 294.981L183.814 291.732C184.218 292.437 185.117 293.143 185.906 293.318C187.304 293.63 190.354 293.106 191.98 292.894C193.227 292.73 194.464 292.294 195.191 292.507C195.908 292.716 196.08 293.472 196.342 294.169C196.783 295.345 197.252 297.023 198.022 297.703C198.791 298.383 201.816 300.731 203.099 301.142C204.031 301.441 205.165 301.511 206.007 301.568C206.718 301.616 207.493 301.29 208.044 300.84C208.757 300.259 209.314 298.052 210.283 298.081C211.252 298.109 212.496 300.767 213.96 301.653C215.742 302.73 218.323 304.544 220.974 304.544C221.928 304.544 222.343 304.575 222.506 304.604C222.432 304.684 222.75 304.647 222.506 304.604C222.521 304.588 222.55 304.569 222.6 304.544C223.512 304.09 225.864 302.744 226.448 301.823C226.954 301.025 226.663 299.779 226.106 299.016C224.98 297.471 219.72 292.752 219.691 292.553C219.663 292.355 224.466 296.663 225.935 297.825C226.74 298.462 227.505 299.273 228.501 299.527C229.784 299.853 232.093 299.782 233.632 299.782C235.172 299.782 235.455 299.951 236.113 299.442C236.954 298.789 238.565 296.848 238.679 295.87C238.691 295.762 238.688 295.657 238.671 295.556Z" fill="#8F9970"/>
<path fill-rule="evenodd" clip-rule="evenodd" d="M124.917 113.211C124.962 113.241 124.966 113.399 124.945 113.543C124.47 116.881 121.605 119.757 116.865 119.757C112.296 119.757 109.777 117.619 109.083 114.454C109.035 114.234 109.024 113.982 109.088 113.933C109.152 113.884 109.301 114.039 109.47 114.16C111.516 115.633 113.337 116.287 116.797 116.287C120.443 116.287 122.642 114.977 124.677 113.366C124.784 113.282 124.872 113.182 124.917 113.211Z" fill="#8F9970"/>
<path fill-rule="evenodd" clip-rule="evenodd" d="M137.447 137.071C136.437 137.09 135.423 137.101 134.407 137.101C126.621 137.101 112.508 136.597 105.997 135.854C103.503 135.569 101.351 135.179 99.495 134.708L99.4133 134.687V130.83L104.984 131.743L123.031 132.508L149.204 130.978L171.669 128.273L182.475 124.089L183.791 121.165C185.048 122.13 185.725 123.14 185.725 124.175C185.725 127.252 179.232 130.568 169.327 133.071C168.608 136.274 167.359 140.146 165.488 140.452C163.743 140.738 162.275 137.645 161.431 134.757C159.937 135.025 158.396 135.273 156.818 135.501C156.207 138.366 155.143 141.541 153.401 141.826C151.708 142.103 150.274 139.196 149.42 136.384C147.889 136.53 146.334 136.655 144.761 136.758C144.136 139.484 143.096 142.324 141.453 142.592C139.743 142.872 138.298 139.907 137.447 137.071Z" fill="#8F9970"/>
<path fill-rule="evenodd" clip-rule="evenodd" d="M102.662 208.062L107.589 204.796L111.593 200.283L113.939 196.523L116.402 190.537L120.617 176.658L121.602 182.21L121.876 191.353L121.383 201.204L119.467 209.912L116.73 219.11L114.541 226.675L112.461 229.56L109.833 230.594L107.206 228.09L107.096 224.172L111.147 212.089L109.505 213.341L105.509 214.539L102.881 215.192L100.801 212.96L101.13 210.294L102.662 208.062Z" fill="#8F9970"/>
<path fill-rule="evenodd" clip-rule="evenodd" d="M134.908 132.224L143.428 131.733C143.428 131.733 142.554 140.561 139.414 141.007C136.276 141.453 134.056 132.135 134.908 132.224Z" fill="#FDFFDD"/>
<path fill-rule="evenodd" clip-rule="evenodd" d="M146.522 131.577L155.042 131.087C155.042 131.087 154.168 139.915 151.028 140.361C147.89 140.806 145.67 131.488 146.522 131.577Z" fill="#FDFFDD"/>
<path fill-rule="evenodd" clip-rule="evenodd" d="M158.271 130.418L167.254 129.348C167.254 129.348 165.917 138.755 162.777 139.201C159.639 139.647 157.419 130.329 158.271 130.418Z" fill="#FDFFDD"/>
<path fill-rule="evenodd" clip-rule="evenodd" d="M178.2 103.583C176.462 101.261 175.43 98.3588 175.43 95.2125C175.43 87.5948 181.483 81.4102 188.939 81.4102C196.395 81.4102 202.449 87.5948 202.449 95.2125C202.449 98.4211 201.375 101.375 199.574 103.721C196.422 102.966 192.645 102.527 188.588 102.527C184.785 102.527 181.228 102.913 178.2 103.583Z" fill="white"/>
<path fill-rule="evenodd" clip-rule="evenodd" d="M126.311 99.384C125.903 98.0677 125.682 96.6662 125.682 95.2125C125.682 87.5948 131.736 81.4102 139.191 81.4102C144.647 81.4102 149.352 84.721 151.483 89.4814L145.082 91.4245L133.783 96.4316L126.311 99.384Z" fill="white"/>
<path d="M189.551 99.7288C191.887 99.7288 193.781 97.2902 193.781 94.2819C193.781 91.2736 191.887 88.835 189.551 88.835C187.214 88.835 185.32 91.2736 185.32 94.2819C185.32 97.2902 187.214 99.7288 189.551 99.7288Z" fill="black"/>
<path d="M186.692 93.6788C187.753 93.6788 188.613 92.8235 188.613 91.7686C188.613 90.7136 187.753 89.8584 186.692 89.8584C185.63 89.8584 184.77 90.7136 184.77 91.7686C184.77 92.8235 185.63 93.6788 186.692 93.6788Z" fill="white"/>
<path fill-rule="evenodd" clip-rule="evenodd" d="M134.318 95.4353C134.154 94.856 134.066 94.2312 134.066 93.5797C134.066 90.5735 135.962 88.1328 138.296 88.1328C140.3 88.1328 141.981 89.9312 142.416 92.3419C141.336 92.5722 139.377 93.6678 138.244 94.0588C136.484 94.6665 135.865 94.9734 134.318 95.4353Z" fill="black"/>
<path d="M135.437 92.9766C136.498 92.9766 137.358 92.1214 137.358 91.0664C137.358 90.0115 136.498 89.1562 135.437 89.1562C134.376 89.1562 133.516 90.0115 133.516 91.0664C133.516 92.1214 134.376 92.9766 135.437 92.9766Z" fill="white"/>
<path fill-rule="evenodd" clip-rule="evenodd" d="M151.759 88.8204C159.375 86.8884 169.782 85.1434 177.228 86.637C177.311 86.6537 177.387 86.6856 177.455 86.7292C180.036 83.2593 184.181 81.0078 188.851 81.0078C194.544 81.0078 199.458 84.3535 201.708 89.1735C201.752 89.1722 201.796 89.1751 201.84 89.1827C201.84 89.1827 228.994 93.8444 240.413 120.082C251.626 145.849 251.253 199.964 246.721 221.882C249.099 222.37 258.574 223.483 268.5 213.28C274.579 207.032 277.757 201.088 279.896 197.469C280.874 195.815 281.666 194.628 282.392 194.053C283.532 193.15 284.995 193.08 286.413 193.595C288.386 194.313 290.251 196.187 290.838 198.222C291.801 201.553 295.662 218.469 281.956 241.934C268.534 264.912 239.279 276.716 232.843 277.983C232.861 278.262 232.88 278.537 232.902 278.807C233.041 280.59 233.244 282.159 233.542 283.286C233.708 283.914 233.881 284.39 234.122 284.634C235.536 286.058 237.858 286.738 239.622 287.398C240.413 287.695 241.103 287.988 241.595 288.316C242.019 288.6 242.312 288.921 242.465 289.269C242.956 290.381 243.108 292.146 242.159 293.423C241.626 294.141 240.744 294.732 239.339 294.936C240.116 296.025 240.967 297.863 241.193 299.665C241.38 301.155 241.139 302.607 240.207 303.638C239.582 304.331 238.64 304.851 237.264 305.04C233.089 305.614 229.836 303.853 228.122 302.608C228.145 305.038 227.25 308.501 222.818 309.76C220.267 310.484 217.758 309.488 215.677 307.982C213.924 306.713 212.482 305.094 211.594 303.98C211.403 304.845 211.083 305.649 210.592 306.284C208.509 308.977 206.714 309.209 203.936 309.278C201.156 309.347 199.257 307.866 197.52 305.794C197.063 305.248 196.812 304.471 196.711 303.6C196.579 302.46 196.694 301.15 196.771 300.125C196.79 299.862 196.797 299.569 196.799 299.33C194.924 300.114 189.913 302.122 187.168 302.633C183.948 303.234 180.722 301.669 179.448 301.202C178.923 301.009 178.503 300.413 178.302 299.558C177.95 298.059 178.149 295.735 178.343 295.062C178.449 294.691 178.707 294.341 179.243 293.932C180.143 293.242 182.002 292.216 185.369 289.627C185.867 289.243 186.243 288.528 186.562 287.594C187.101 286.01 187.428 283.829 187.615 281.363C187.659 280.78 187.695 280.181 187.724 279.571C180.206 279.68 172.601 278.868 166.213 277.863C166.393 278.599 166.754 279.8 167.327 281.08C168.196 283.022 169.553 285.162 171.605 286.091C173.538 286.966 174.543 287.998 175.062 288.966C175.861 290.45 175.536 291.826 175.447 292.462C175.385 292.908 174.792 293.954 173.806 294.807C172.352 296.066 170.131 296.935 167.923 295.086C165.6 293.143 162.253 291.606 160.748 290.969C160.672 293.351 160.298 296.684 159.656 299.129C159.286 300.536 158.806 301.659 158.277 302.219C157.392 303.157 156.613 303.753 155.687 304.068C154.352 304.523 152.673 304.385 149.769 303.685C148.152 303.294 147.313 301.885 147.026 300.031C146.56 297.008 147.566 292.782 147.978 291.239L147.187 290.962C146.19 292.136 142.872 295.961 140.773 297.374C138.195 299.111 134.704 299.626 131.209 298.882C129.616 298.542 128.78 297.331 128.435 295.895C128.17 294.791 128.213 293.563 128.373 292.584C127.081 292.988 124.477 293.408 122.052 292.62C120.443 292.096 119.498 290.883 118.979 289.603C118.482 288.379 118.384 287.105 118.427 286.404C118.444 286.129 118.567 285.835 118.814 285.551C119.058 285.271 119.443 284.98 119.911 284.708C120.552 284.333 121.359 283.979 122.093 283.691C121.892 283.323 121.773 282.88 121.725 282.393C121.641 281.559 121.758 280.583 121.88 279.73C121.915 279.489 122.047 279.228 122.314 278.983C122.664 278.661 123.33 278.317 124.175 277.981C125.677 277.384 127.79 276.761 129.433 276.107C130.391 275.727 131.188 275.37 131.502 274.963C131.838 274.529 132.005 273.678 132.122 272.714C132.386 270.529 132.265 267.779 132.227 267.074C126.397 263.435 118.209 256.572 114.896 245.374C113.557 240.848 113.01 235.614 113.742 229.595C113.275 230.065 112.677 230.496 111.895 230.84C110.2 231.584 108.879 231.002 107.943 230.004C107.088 229.091 106.583 227.803 106.439 226.98C106.382 226.651 106.478 225.834 106.714 224.743C107.36 221.749 108.943 216.423 109.648 214.094C107.829 214.598 105.903 215.046 104.497 215.605C103.3 216.08 101.968 215.722 101.008 214.813C99.0135 212.924 98.5034 208.361 105.667 205.293C108.331 204.153 110.65 201.091 112.637 197.403C117.234 188.875 119.939 176.954 120.146 176.022C119.041 171.099 117.592 168.306 117.202 167.61C98.8755 155.052 98.5143 134.304 98.531 132.031C94.5272 131.544 91.111 130.896 88.5276 130.078C86.081 129.303 84.3583 128.35 83.5079 127.275C80.0638 122.921 79.2163 119.133 79.4118 116.164C79.6799 112.09 81.9253 109.517 82.3891 109.026C82.7342 108.34 84.7809 104.594 88.734 103.697C90.5946 103.275 92.8845 103.468 95.6188 104.939C97.549 105.978 100.878 105.86 104.891 105.136C110.984 104.037 118.595 101.468 125.416 98.8545C125.083 97.6572 124.904 96.3963 124.904 95.0942C124.904 87.3197 131.253 81.0078 139.072 81.0078C144.625 81.0078 149.436 84.1908 151.759 88.8204ZM150.474 89.1548C148.32 85.0795 144.02 82.2973 139.072 82.2973C131.969 82.2973 126.201 88.0314 126.201 95.0942C126.201 96.2317 126.351 97.3349 126.632 98.3851C134.365 95.3766 140.874 92.4184 142.666 91.6587C144.044 91.0749 146.878 90.1149 150.474 89.1548ZM154.738 131.437C152.128 131.719 149.426 131.97 146.669 132.187C146.908 133.261 147.64 136.22 148.815 138.24C149.102 138.735 149.416 139.172 149.76 139.496C150.039 139.757 150.33 139.945 150.652 139.989C150.929 140.027 151.185 139.908 151.431 139.715C151.776 139.445 152.092 139.035 152.389 138.547C153.47 136.768 154.237 134.003 154.58 132.304C154.649 131.958 154.704 131.662 154.738 131.437ZM156.963 131.186C156.659 131.222 156.355 131.257 156.048 131.292C156.02 131.6 155.956 132.037 155.851 132.558C155.485 134.371 154.653 137.316 153.498 139.214C152.652 140.606 151.58 141.418 150.475 141.266C149.42 141.121 148.453 140.195 147.692 138.886C146.374 136.619 145.572 133.242 145.364 132.287C145.014 132.312 144.665 132.338 144.315 132.363C144.286 132.654 144.229 133.045 144.137 133.502C143.792 135.229 142.996 138.013 141.866 139.801C141.037 141.113 139.987 141.878 138.876 141.725C137.822 141.581 136.856 140.654 136.094 139.345C134.852 137.211 134.07 134.092 133.808 132.938C122.777 133.366 111.74 133.246 102.812 132.473C101.789 132.385 100.793 132.287 99.8273 132.181C99.8302 134.883 100.463 154.489 117.872 166.491C117.975 166.527 118.07 166.59 118.145 166.677C122.038 169.316 126.756 171.576 132.476 173.192C132.82 173.289 133.021 173.646 132.923 173.989C132.825 174.331 132.466 174.529 132.122 174.432C127.142 173.026 122.9 171.145 119.286 168.953C121.705 174.627 126.646 191.331 117.391 219.437C116.701 221.534 116.157 223.552 115.744 225.493C115.75 225.597 115.731 225.704 115.683 225.805L115.675 225.822C114.132 233.32 114.561 239.673 116.14 245.009C120.819 260.823 135.561 267.684 138.581 268.971C138.909 269.112 139.062 269.491 138.921 269.817C138.78 270.145 138.398 270.296 138.07 270.156C137.256 269.81 135.619 269.069 133.558 267.875C133.597 269.092 133.617 271.148 133.409 272.868C133.258 274.113 132.964 275.189 132.53 275.75C132.216 276.156 131.572 276.576 130.722 276.963C129.013 277.741 126.418 278.478 124.656 279.178C124.162 279.375 123.738 279.566 123.432 279.756C123.324 279.824 123.198 279.936 123.156 279.973C123.05 280.713 122.944 281.547 123.015 282.264C123.053 282.645 123.133 282.991 123.338 283.232L123.339 283.233C123.732 283.098 124.011 283.011 124.09 282.986L132.294 279.832C132.628 279.704 133.003 279.869 133.133 280.201C133.262 280.534 133.095 280.907 132.762 281.036L124.537 284.197C124.523 284.202 124.508 284.207 124.493 284.212C124.493 284.212 122.055 284.95 120.567 285.819C120.288 285.982 120.044 286.148 119.87 286.316C119.808 286.376 119.735 286.481 119.721 286.501C119.688 287.084 119.777 288.122 120.182 289.121C120.569 290.075 121.254 291.004 122.456 291.394C125.033 292.232 127.853 291.531 128.407 291.196C128.522 291.126 128.649 291.096 128.774 291.102C128.812 291.02 128.849 290.951 128.885 290.895C129.498 289.969 137.953 282.384 137.953 282.384C138.219 282.147 138.63 282.168 138.87 282.433C139.108 282.697 139.087 283.105 138.82 283.343C138.82 283.343 130.565 290.702 129.969 291.604C129.852 291.781 129.745 292.173 129.658 292.665C129.511 293.502 129.46 294.609 129.697 295.595C129.925 296.546 130.426 297.395 131.481 297.621C134.608 298.287 137.739 297.861 140.046 296.306C142.441 294.694 146.478 289.795 146.478 289.795C146.651 289.586 146.937 289.506 147.195 289.597L148.981 290.224C149.308 290.338 149.487 290.688 149.386 291.018C149.386 291.018 148.195 294.924 148.2 298.279C148.202 299.332 148.317 300.329 148.653 301.113C148.934 301.769 149.375 302.262 150.075 302.431C152.626 303.047 154.094 303.248 155.266 302.848C156.011 302.595 156.62 302.091 157.331 301.337C157.702 300.943 158.003 300.188 158.277 299.251C158.985 296.828 159.39 293.252 159.456 290.804C159.483 289.775 159.357 288.649 159.338 288.485C159.161 288.282 159.124 287.981 159.268 287.736C159.45 287.429 159.847 287.326 160.156 287.507L160.28 287.596L160.406 287.735L160.561 288.043C160.654 288.311 160.724 288.794 160.75 289.431C160.752 289.479 160.753 289.527 160.754 289.576C161.93 290.055 166.021 291.809 168.758 294.1C170.334 295.419 171.916 294.733 172.955 293.835C173.398 293.451 173.75 293.027 173.968 292.674C174.07 292.511 174.149 292.378 174.162 292.285C174.231 291.792 174.536 290.722 173.918 289.573C173.495 288.785 172.645 287.979 171.068 287.265C168.731 286.208 167.132 283.816 166.143 281.604C165.405 279.957 165.007 278.419 164.852 277.643C156.192 276.206 150.087 274.497 150.087 274.497C149.743 274.401 149.543 274.044 149.639 273.702C149.736 273.36 150.095 273.16 150.439 273.256C150.439 273.256 169.385 278.563 187.775 278.282C188.068 268.847 186.852 257.357 186.852 257.357C186.815 257.004 187.074 256.686 187.43 256.649C187.786 256.612 188.105 256.869 188.142 257.223C188.142 257.223 189.656 271.574 188.908 281.459C188.712 284.053 188.358 286.343 187.79 288.007C187.37 289.237 186.819 290.142 186.162 290.647C183.261 292.878 181.473 293.956 180.452 294.654C180.151 294.86 179.924 295.026 179.762 295.183C179.677 295.265 179.614 295.333 179.589 295.416C179.447 295.913 179.314 297.455 179.467 298.697C179.513 299.077 179.585 299.428 179.702 299.702C179.758 299.833 179.796 299.956 179.895 299.992C181.058 300.418 183.99 301.914 186.929 301.366C189.966 300.801 195.848 298.342 196.86 297.902L197.115 297.829L197.329 297.828L197.517 297.874L197.687 297.964L197.843 298.104L197.98 298.319C198.033 298.434 198.077 298.59 198.098 298.784C198.179 299.526 197.907 301.199 197.952 302.755C197.977 303.619 198.083 304.451 198.516 304.967C199.986 306.722 201.551 308.048 203.904 307.988C206.257 307.93 207.798 307.779 209.564 305.498C210.185 304.695 210.455 303.57 210.529 302.429C210.513 302.334 210.518 302.238 210.543 302.147C210.57 301.433 210.525 300.722 210.446 300.088C210.358 299.383 210.223 298.77 210.082 298.346C210.029 298.19 209.935 297.998 209.923 297.973C209.687 297.721 209.693 297.325 209.94 297.08C210.193 296.828 210.604 296.828 210.857 297.08C211.069 297.29 211.385 297.999 211.584 298.999C211.758 299.878 211.868 300.993 211.822 302.129C212.272 302.775 214.045 305.206 216.441 306.939C218.2 308.213 220.303 309.132 222.461 308.52C226.956 307.243 227.047 303.22 226.739 301.427C226.622 301.274 226.584 301.083 226.622 300.904C226.599 300.823 226.576 300.756 226.555 300.701C225.648 298.394 222.837 294.97 219.231 293.04C218.916 292.871 218.799 292.48 218.968 292.167C219.138 291.853 219.531 291.736 219.847 291.905C223.755 293.997 226.778 297.731 227.762 300.231C227.813 300.358 227.87 300.547 227.922 300.785C228.76 301.561 232.226 304.431 237.086 303.763C238.087 303.625 238.787 303.282 239.242 302.778C239.931 302.014 240.044 300.926 239.906 299.824C239.658 297.845 238.575 295.789 237.836 295.16C236.747 294.231 234.269 292.812 232.434 292.073C231.742 291.795 231.161 291.599 230.817 291.624C230.461 291.649 230.15 291.383 230.124 291.028C230.098 290.673 230.366 290.363 230.723 290.338C231.187 290.304 231.988 290.502 232.921 290.877C234.648 291.573 236.907 292.842 238.213 293.812C238.305 293.756 238.412 293.721 238.528 293.716C239.853 293.662 240.67 293.257 241.116 292.657C241.77 291.776 241.616 290.554 241.277 289.786C241.186 289.578 240.955 289.425 240.667 289.261C240.262 289.031 239.742 288.821 239.164 288.605C237.243 287.886 234.74 287.092 233.199 285.539C232.849 285.186 232.53 284.526 232.288 283.614C231.975 282.429 231.755 280.781 231.608 278.907C231.051 271.764 231.535 261.283 231.535 261.283C231.551 260.928 231.855 260.652 232.213 260.669C232.57 260.685 232.846 260.988 232.83 261.343C232.83 261.343 232.437 269.825 232.769 276.683C239.35 275.305 267.747 263.691 280.834 241.287C294.23 218.352 290.532 201.833 289.592 198.578C289.111 196.915 287.579 195.393 285.967 194.806C284.994 194.452 283.983 194.442 283.2 195.062C282.555 195.573 281.884 196.652 281.014 198.123C278.841 201.798 275.607 207.83 269.432 214.177C259.051 224.847 249.096 223.697 246.447 223.145C245.84 225.832 243.417 236.084 241.092 239.377C240.886 239.668 240.481 239.738 240.188 239.534C239.896 239.33 239.825 238.927 240.031 238.636C242.613 234.978 245.274 222.46 245.322 222.23L245.323 222.227V222.225C249.941 200.881 250.456 146.405 239.223 120.594C229.128 97.3975 206.426 91.487 202.276 90.5858C202.758 92.0015 203.019 93.5178 203.019 95.0942C203.019 98.1803 202.019 101.036 200.323 103.358C201.922 103.713 203.544 104.157 205.176 104.704C205.515 104.818 205.698 105.184 205.583 105.521C205.469 105.858 205.1 106.04 204.761 105.926C202.833 105.279 200.919 104.782 199.044 104.406C190.689 102.732 183.103 103.478 178.543 104.285L178.541 104.285C175.763 104.778 174.115 105.292 174.115 105.292C173.774 105.399 173.41 105.21 173.303 104.871C173.195 104.531 173.385 104.169 173.726 104.062C173.726 104.062 175.028 103.654 177.273 103.211C175.642 100.916 174.683 98.1154 174.683 95.0942C174.683 92.4453 175.421 89.9661 176.702 87.8486C169.277 86.4525 158.971 88.2839 151.575 90.1989C151.568 90.2008 151.561 90.2026 151.555 90.2043C147.686 91.2067 144.616 92.2342 143.175 92.8449C141.328 93.6279 134.483 96.7401 126.444 99.8417C118.221 103.015 108.753 106.169 102.07 106.843C99.0656 107.146 96.6011 106.934 95.0016 106.073C92.6241 104.794 90.6403 104.587 89.0225 104.954C85.3659 105.783 83.6151 109.457 83.5217 109.658C83.5047 109.697 83.4837 109.734 83.4587 109.77C83.4343 109.805 83.4069 109.836 83.3768 109.865C83.259 109.984 80.9634 112.338 80.7059 116.248C80.5257 118.986 81.3514 122.463 84.5273 126.478C85.2658 127.411 86.7966 128.177 88.921 128.849C92.3151 129.924 97.1771 130.691 102.925 131.189C125.427 133.137 161.43 130.924 176.566 126.236C179.172 125.429 181.144 124.561 182.278 123.612C182.822 123.156 183.164 122.704 183.198 122.211C183.217 121.913 183.115 121.613 182.907 121.301C182.71 121.004 182.791 120.604 183.089 120.407C183.388 120.211 183.791 120.292 183.989 120.589C184.761 121.747 184.66 122.857 183.802 123.91C182.76 125.19 180.371 126.408 176.951 127.467C174.455 128.241 171.394 128.947 167.922 129.58C167.939 129.808 167.868 130.444 167.685 131.303C167.285 133.186 166.39 136.261 165.195 138.248C164.708 139.057 164.163 139.692 163.594 140.049C163.123 140.345 162.631 140.468 162.124 140.399C161.069 140.254 160.103 139.328 159.341 138.018C157.865 135.48 157.038 131.55 156.963 131.186ZM166.633 129.809C164.029 130.257 161.217 130.665 158.255 131.031C158.397 131.71 159.156 135.124 160.464 137.373C160.752 137.868 161.066 138.305 161.41 138.629C161.688 138.89 161.979 139.077 162.301 139.121C162.578 139.159 162.834 139.031 163.084 138.827C163.441 138.539 163.77 138.104 164.082 137.586C165.208 135.713 166.039 132.81 166.417 131.037C166.538 130.465 166.621 130.027 166.633 129.809ZM205.274 227.313C204.693 228.897 203.836 231.082 202.879 232.806C202.194 234.039 201.441 235.039 200.713 235.51C198.056 237.231 195.65 235.187 195.093 233.897C194.983 233.641 194.948 232.935 195.04 231.969C195.229 229.994 195.807 226.731 196.234 224.47C194.385 226.653 192.436 228.749 191.043 229.895C190.307 230.501 189.681 230.848 189.274 230.912C186.726 231.315 185.094 230.016 183.994 228.634C183.605 228.146 183.534 227.295 183.836 226.278C184.393 224.392 186.13 221.807 187.574 220.598C188.294 219.994 188.927 218.807 189.458 217.572C190.3 215.615 190.86 213.516 190.95 213.098C190.959 213.056 190.93 213.02 190.904 212.982C190.854 212.91 190.784 212.844 190.704 212.784C190.455 212.595 190.115 212.466 189.802 212.448C189.478 212.429 188.733 212.615 187.791 212.805C186.2 213.125 184.115 213.483 182.416 213.26C181.388 213.125 180.732 212.717 180.311 212.184C179.897 211.661 179.707 210.996 179.662 210.277C179.611 209.458 179.748 208.562 179.857 207.787C180.02 206.62 180.451 206.121 181.201 205.643C181.784 205.272 182.62 204.921 183.76 204.09C186.022 202.44 189.686 198.433 192.402 193.533C193.468 191.609 193.732 188.48 193.699 185.423C193.648 180.707 192.844 176.148 192.844 176.148C192.782 175.797 193.018 175.463 193.371 175.402C193.724 175.34 194.06 175.575 194.121 175.925C194.121 175.925 194.944 180.587 194.996 185.408C195.032 188.709 194.688 192.078 193.538 194.155C190.711 199.256 186.882 203.412 184.526 205.13C183.574 205.824 182.827 206.199 182.254 206.52C181.62 206.875 181.259 207.126 181.141 207.964C181.045 208.659 180.911 209.462 180.956 210.197C180.985 210.643 181.074 211.063 181.33 211.387C181.578 211.7 181.982 211.902 182.585 211.982C184.15 212.187 186.068 211.835 187.534 211.54C188.63 211.32 189.502 211.139 189.878 211.161C190.555 211.2 191.302 211.531 191.75 211.985C192.146 212.386 192.324 212.877 192.218 213.368C192.123 213.808 191.538 216.019 190.651 218.079C190.03 219.521 189.25 220.881 188.41 221.584C187.124 222.661 185.576 224.962 185.079 226.642C184.986 226.954 184.931 227.242 184.934 227.49C184.935 227.628 184.943 227.75 185.011 227.834C185.861 228.901 187.102 229.95 189.07 229.638C189.342 229.595 189.725 229.307 190.217 228.902C191.627 227.741 193.619 225.572 195.48 223.357C195.946 222.802 196.403 222.245 196.841 221.7C196.847 221.692 196.853 221.685 196.859 221.678C198.173 220.041 199.311 218.512 199.971 217.492C200.237 217.079 200.46 216.628 200.485 216.576C200.524 216.244 200.816 215.993 201.158 216.007C201.515 216.023 201.792 216.325 201.778 216.68C201.772 216.784 201.743 216.935 201.664 217.121C201.562 217.366 201.357 217.733 201.062 218.189C200.4 219.211 199.271 220.734 197.962 222.371C197.787 223.241 196.906 227.678 196.489 230.761C196.372 231.621 196.292 232.373 196.275 232.904C196.269 233.121 196.291 233.373 196.293 233.407C196.675 234.26 198.262 235.558 200.006 234.429C200.603 234.043 201.182 233.194 201.743 232.183C203.178 229.598 204.375 225.953 204.729 224.999C204.809 224.786 204.917 224.503 205.045 224.172C205.049 224.162 205.052 224.152 205.056 224.142C205.761 222.318 207.049 219.103 207.529 218.15C207.689 217.831 208.078 217.702 208.399 217.861C208.719 218.02 208.849 218.408 208.689 218.726C208.229 219.641 207.011 222.681 206.312 224.488C206.351 225.094 206.529 227.596 206.933 229.439C207.043 229.944 207.169 230.398 207.319 230.737C207.384 230.883 207.441 231.004 207.517 231.073C208.379 231.848 209.406 231.956 210.514 231.345C210.703 231.24 210.854 231.029 211.001 230.775C211.195 230.438 211.36 230.023 211.502 229.579C211.957 228.159 212.176 226.44 212.235 225.732C212.308 224.867 212.988 220.071 213.62 216.9C213.911 215.443 214.218 214.313 214.434 213.966C215.09 212.912 218.666 204.349 219.422 197.831C220.017 192.699 220.282 187.735 217.951 178.831C217.86 178.486 218.068 178.135 218.414 178.044C218.761 177.955 219.115 178.161 219.205 178.506C221.595 187.631 221.321 192.72 220.71 197.978C219.928 204.715 216.215 213.555 215.536 214.644C215.353 214.94 215.14 215.913 214.892 217.151C214.27 220.27 213.599 224.988 213.528 225.838C213.453 226.732 213.137 229.107 212.463 230.726C212.119 231.553 211.659 232.187 211.143 232.472C209.48 233.391 207.941 233.193 206.647 232.029C206.264 231.684 205.905 230.806 205.665 229.713C205.502 228.965 205.373 228.112 205.274 227.313ZM198.917 103.067C200.673 100.879 201.722 98.1076 201.722 95.0942C201.722 88.0314 195.955 82.2973 188.851 82.2973C181.748 82.2973 175.98 88.0314 175.98 95.0942C175.98 98.0543 176.994 100.781 178.694 102.95C183.324 102.163 190.742 101.495 198.917 103.067ZM114.43 225.44C114.857 223.389 115.428 221.256 116.159 219.037C122.127 200.912 122.108 187.63 120.734 179.082C119.626 183.359 117.225 191.623 113.781 198.013C111.633 201.997 109.059 205.246 106.18 206.478C100.404 208.951 100.294 212.356 101.903 213.88C102.487 214.432 103.287 214.697 104.015 214.407C105.747 213.719 108.26 213.195 110.404 212.531C110.418 212.527 110.431 212.522 110.444 212.519C110.679 212.446 110.91 212.371 111.134 212.294C112.469 211.835 113.592 211.345 114.022 210.603C114.2 210.295 114.597 210.188 114.907 210.365C115.217 210.543 115.324 210.938 115.146 211.246C114.6 212.188 113.25 212.931 111.557 213.513C111.419 213.56 111.279 213.606 111.138 213.652C110.74 214.948 109.242 219.884 108.359 223.412C108.1 224.448 107.894 225.36 107.788 226.017C107.731 226.365 107.693 226.622 107.717 226.759C107.83 227.403 108.223 228.411 108.892 229.125C109.479 229.752 110.307 230.127 111.371 229.66C112.829 229.019 113.47 227.991 113.85 227.067C114.104 226.449 114.257 225.871 114.43 225.44ZM143.009 132.453C140.405 132.627 137.768 132.771 135.124 132.884C135.409 134.109 136.119 136.813 137.216 138.699C137.504 139.195 137.818 139.632 138.163 139.956C138.441 140.217 138.732 140.404 139.054 140.448C139.334 140.486 139.592 140.379 139.839 140.197C140.176 139.948 140.482 139.568 140.768 139.115C141.819 137.452 142.543 134.857 142.865 133.251C142.928 132.936 142.978 132.664 143.009 132.453Z" fill="black"/>
<path fill-rule="evenodd" clip-rule="evenodd" d="M110.372 110.726C110.097 110.953 109.688 110.915 109.459 110.641C109.231 110.367 109.269 109.961 109.544 109.733C109.544 109.733 116.331 104.102 124.504 109.474C124.803 109.67 124.885 110.07 124.688 110.367C124.49 110.664 124.088 110.746 123.789 110.55C116.46 105.733 110.372 110.726 110.372 110.726ZM111.93 118.918C111.603 118.775 111.454 118.394 111.598 118.068C111.742 117.743 112.125 117.594 112.453 117.738C112.453 117.738 116.569 119.531 120.89 117.485C121.213 117.332 121.601 117.468 121.755 117.79C121.908 118.111 121.771 118.496 121.448 118.649C116.573 120.957 111.93 118.918 111.93 118.918ZM116.79 110.412C118.247 110.412 119.535 110.783 120.336 111.326C121.022 111.792 121.38 112.395 121.38 113.016C121.38 113.637 121.022 114.24 120.336 114.706C119.535 115.249 118.247 115.62 116.79 115.62C115.333 115.62 114.045 115.249 113.244 114.706C112.558 114.24 112.2 113.637 112.2 113.016C112.2 112.395 112.558 111.792 113.244 111.326C114.045 110.783 115.333 110.412 116.79 110.412ZM116.79 111.701C115.637 111.701 114.609 111.962 113.975 112.392C113.703 112.576 113.497 112.771 113.497 113.016C113.497 113.261 113.703 113.456 113.975 113.64C114.609 114.07 115.637 114.331 116.79 114.331C117.943 114.331 118.971 114.07 119.605 113.64C119.876 113.456 120.083 113.261 120.083 113.016C120.083 112.771 119.876 112.576 119.605 112.392C118.971 111.962 117.943 111.701 116.79 111.701ZM89.6169 105.144C90.7099 105.144 91.6733 105.484 92.2741 105.978C92.7763 106.391 93.0462 106.914 93.0462 107.465C93.0462 108.015 92.7763 108.538 92.2741 108.951C91.6733 109.445 90.7099 109.786 89.6169 109.786C88.524 109.786 87.5605 109.445 86.9597 108.951C86.4576 108.538 86.1877 108.015 86.1877 107.465C86.1877 106.914 86.4576 106.391 86.9597 105.978C87.5605 105.484 88.524 105.144 89.6169 105.144ZM89.6169 106.433C88.9817 106.433 88.4039 106.58 87.9872 106.831C87.7042 107.001 87.4846 107.205 87.4846 107.465C87.4846 107.725 87.7042 107.928 87.9872 108.098C88.4039 108.35 88.9817 108.496 89.6169 108.496C90.2522 108.496 90.83 108.35 91.2466 108.098C91.5296 107.928 91.7493 107.725 91.7493 107.465C91.7493 107.205 91.5296 107.001 91.2466 106.831C90.83 106.58 90.2522 106.433 89.6169 106.433Z" fill="black"/>
<path d="M116.79 114.975C118.966 114.975 120.731 114.098 120.731 113.016C120.731 111.934 118.966 111.057 116.79 111.057C114.613 111.057 112.849 111.934 112.849 113.016C112.849 114.098 114.613 114.975 116.79 114.975Z" fill="black"/>
<path d="M89.617 109.141C91.1527 109.141 92.3977 108.39 92.3977 107.464C92.3977 106.539 91.1527 105.788 89.617 105.788C88.0812 105.788 86.8362 106.539 86.8362 107.464C86.8362 108.39 88.0812 109.141 89.617 109.141Z" fill="black"/>
<path fill-rule="evenodd" clip-rule="evenodd" d="M204.848 70.3991C204.702 72.0139 203.267 73.2078 201.646 73.0636L178.625 71.0162C177.004 70.872 175.807 69.444 175.953 67.8292C176.1 66.2143 177.535 65.0204 179.156 65.1646L202.176 67.2119C203.798 67.3561 204.995 68.7842 204.848 70.3991Z" fill="#2A2E17"/>
<path fill-rule="evenodd" clip-rule="evenodd" d="M151.609 67.9723C151.739 69.5881 150.527 71.004 148.905 71.1321L127.81 72.798C126.187 72.9261 124.764 71.7183 124.634 70.1025C124.504 68.4866 125.716 67.0708 127.338 66.9426L148.433 65.2768C150.055 65.1486 151.478 66.3564 151.609 67.9723Z" fill="#2A2E17"/>
</g>
<defs>
<filter id="filter0_d_615_22046" x="0" y="0" width="326" height="258" filterUnits="userSpaceOnUse" color-interpolation-filters="sRGB">
<feFlood flood-opacity="0" result="BackgroundImageFix"/>
<feColorMatrix in="SourceAlpha" type="matrix" values="0 0 0 0 0 0 0 0 0 0 0 0 0 0 0 0 0 0 127 0" result="hardAlpha"/>
<feOffset dy="4"/>
<feGaussianBlur stdDeviation="12"/>
<feComposite in2="hardAlpha" operator="out"/>
<feColorMatrix type="matrix" values="0 0 0 0 0.156863 0 0 0 0 0.207843 0 0 0 0 0.513726 0 0 0 0.1 0"/>
<feBlend mode="normal" in2="BackgroundImageFix" result="effect1_dropShadow_615_22046"/>
<feBlend mode="normal" in="SourceGraphic" in2="effect1_dropShadow_615_22046" result="shape"/>
</filter>
<linearGradient id="paint0_linear_615_22046" x1="175.178" y1="20.5667" x2="140.621" y2="229.846" gradientUnits="userSpaceOnUse">
<stop stop-color="white"/>
<stop offset="1" stop-color="#F6F8FF"/>
</linearGradient>
<linearGradient id="paint1_linear_615_22046" x1="305.131" y1="-151.401" x2="187.06" y2="-344.594" gradientUnits="userSpaceOnUse">
<stop stop-color="#A6858F"/>
<stop offset="1" stop-color="#877596"/>
</linearGradient>
</defs>
</svg>
