<svg width="80" height="80" viewBox="0 0 80 80" fill="none" xmlns="http://www.w3.org/2000/svg">
<path d="M62.0833 22.2917L74.6875 34.8958C75.3125 35.5208 76.0417 35.8333 76.875 35.8333C77.7083 35.8333 78.4375 35.5208 79.0625 34.8958C79.6181 34.3403 79.9132 33.6285 79.9479 32.7604C79.9826 31.8924 79.7222 31.1458 79.1667 30.5208L75.4167 26.6667L79.0625 23.0208C79.6875 22.3958 80 21.6667 80 20.8333C80 20 79.6875 19.2708 79.0625 18.6458L72.3958 11.9792L74.5833 9.79167C75.2083 9.16667 75.5208 8.4375 75.5208 7.60417C75.5208 6.77083 75.2083 6.04167 74.5833 5.41667C74.0278 4.86111 73.316 4.56597 72.4479 4.53125C71.5799 4.49653 70.8333 4.75694 70.2083 5.3125L67.9167 7.5L61.3542 0.9375C60.7292 0.3125 60 0 59.1667 0C58.3333 0 57.6042 0.3125 56.9792 0.9375L53.3333 4.58333L49.4792 0.833333C48.8542 0.277778 48.125 0 47.2917 0C46.4583 0 45.7292 0.3125 45.1042 0.9375C44.4792 1.5625 44.1667 2.29167 44.1667 3.125C44.1667 3.95833 44.4792 4.6875 45.1042 5.3125L57.7083 17.9167L17.9167 57.7083L5.3125 45.1042C4.6875 44.4792 3.95834 44.1667 3.125 44.1667C2.29167 44.1667 1.5625 44.4792 0.9375 45.1042C0.381943 45.6597 0.0868073 46.3715 0.0520859 47.2396C0.0173645 48.1076 0.277779 48.8542 0.833336 49.4792L4.58334 53.3333L0.9375 56.9792C0.3125 57.6042 0 58.3333 0 59.1667C0 60 0.3125 60.7292 0.9375 61.3542L7.70834 68.125L5.52084 70.3125C4.89584 70.9375 4.58334 71.6667 4.58334 72.5C4.58334 73.3333 4.89584 74.0625 5.52084 74.6875C6.14584 75.3125 6.875 75.625 7.70834 75.625C8.54167 75.625 9.27084 75.3125 9.89584 74.6875L12.0833 72.5L18.6458 79.0625C19.2708 79.6875 20 80 20.8333 80C21.6667 80 22.3958 79.6875 23.0208 79.0625L26.6667 75.4167L30.5208 79.1667C31.1458 79.7222 31.875 80 32.7083 80C33.5417 80 34.2708 79.6875 34.8958 79.0625C35.5208 78.4375 35.8333 77.7083 35.8333 76.875C35.8333 76.0417 35.5208 75.3125 34.8958 74.6875L22.2917 62.0833L62.0833 22.2917Z" fill="#18204F"/>
</svg>
