<svg width="48" height="48" viewBox="0 0 48 48" fill="none" xmlns="http://www.w3.org/2000/svg">
<path d="M0 24C0 10.7452 10.7452 0 24 0C37.2548 0 48 10.7452 48 24C48 37.2548 37.2548 48 24 48C10.7452 48 0 37.2548 0 24Z" fill="#283583"/>
<path d="M23 32C22.7166 32 22.4791 31.9042 22.2875 31.7125C22.0958 31.5208 22 31.2833 22 31V25L16.2 17.6C15.95 17.2667 15.9125 16.9167 16.0875 16.55C16.2625 16.1833 16.5666 16 17 16H31C31.4333 16 31.7375 16.1833 31.9125 16.55C32.0875 16.9167 32.05 17.2667 31.8 17.6L26 25V31C26 31.2833 25.9041 31.5208 25.7125 31.7125C25.5208 31.9042 25.2833 32 25 32H23ZM24 24.3L28.95 18H19.05L24 24.3Z" fill="white"/>
</svg>
