<svg width="32" height="34" viewBox="0 0 32 34" fill="none" xmlns="http://www.w3.org/2000/svg">
<path d="M0 33.6673V30.334H3.33333V25.0007C2.36111 24.6673 1.5625 24.077 0.9375 23.2298C0.3125 22.3826 0 21.4173 0 20.334V7.00065H10V20.334C10 21.4173 9.6875 22.3826 9.0625 23.2298C8.4375 24.077 7.63889 24.6673 6.66667 25.0007V30.334H10V33.6673H0ZM3.33333 15.334H6.66667V10.334H3.33333V15.334ZM5 22.0007C5.47222 22.0007 5.86806 21.8409 6.1875 21.5215C6.50694 21.202 6.66667 20.8062 6.66667 20.334V18.6673H3.33333V20.334C3.33333 20.8062 3.49306 21.202 3.8125 21.5215C4.13194 21.8409 4.52778 22.0007 5 22.0007ZM16.6667 33.6673C15.75 33.6673 14.9653 33.3409 14.3125 32.6882C13.6597 32.0354 13.3333 31.2507 13.3333 30.334V14.4173C13.3333 13.6951 13.5417 13.0493 13.9583 12.4798C14.375 11.9104 14.9167 11.5007 15.5833 11.2507L17.1667 10.6673C17.5556 10.5284 17.8472 10.327 18.0417 10.0632C18.2361 9.79926 18.3333 9.47287 18.3333 9.08399V2.00065C18.3333 1.52843 18.4931 1.1326 18.8125 0.813151C19.1319 0.493707 19.5278 0.333984 20 0.333984H25C25.4722 0.333984 25.8681 0.493707 26.1875 0.813151C26.5069 1.1326 26.6667 1.52843 26.6667 2.00065V9.08399C26.6667 9.47287 26.7639 9.79926 26.9583 10.0632C27.1528 10.327 27.4444 10.5284 27.8333 10.6673L29.4167 11.2507C30.0833 11.5007 30.625 11.9104 31.0417 12.4798C31.4583 13.0493 31.6667 13.6951 31.6667 14.4173V30.334C31.6667 31.2507 31.3403 32.0354 30.6875 32.6882C30.0347 33.3409 29.25 33.6673 28.3333 33.6673H16.6667ZM21.6667 5.33398H23.3333V3.66732H21.6667V5.33398ZM16.6667 17.0007H28.3333V14.4173L26.75 13.834C25.6944 13.4451 24.8611 12.834 24.25 12.0007C23.6389 11.1673 23.3333 10.2229 23.3333 9.16732V8.66732H21.6667V9.16732C21.6667 10.2229 21.3611 11.1673 20.75 12.0007C20.1389 12.834 19.3056 13.4451 18.25 13.834L16.6667 14.4173V17.0007ZM16.6667 30.334H28.3333V27.0007H16.6667V30.334ZM16.6667 23.6673H28.3333V20.334H16.6667V23.6673Z" fill="#6972A8"/>
</svg>
