<svg width="28" height="30" viewBox="0 0 28 30" fill="none" xmlns="http://www.w3.org/2000/svg">
<path d="M4.00033 26.6663H9.00033V18.333C9.00033 17.8608 9.16005 17.465 9.47949 17.1455C9.79894 16.8261 10.1948 16.6663 10.667 16.6663H17.3337C17.8059 16.6663 18.2017 16.8261 18.5212 17.1455C18.8406 17.465 19.0003 17.8608 19.0003 18.333V26.6663H24.0003V11.6663L14.0003 4.16634L4.00033 11.6663V26.6663ZM0.666992 26.6663V11.6663C0.666992 11.1386 0.785048 10.6386 1.02116 10.1663C1.25727 9.69412 1.58366 9.30523 2.00033 8.99967L12.0003 1.49967C12.5837 1.05523 13.2503 0.833008 14.0003 0.833008C14.7503 0.833008 15.417 1.05523 16.0003 1.49967L26.0003 8.99967C26.417 9.30523 26.7434 9.69412 26.9795 10.1663C27.2156 10.6386 27.3337 11.1386 27.3337 11.6663V26.6663C27.3337 27.583 27.0073 28.3677 26.3545 29.0205C25.7017 29.6733 24.917 29.9997 24.0003 29.9997H17.3337C16.8614 29.9997 16.4656 29.84 16.1462 29.5205C15.8267 29.2011 15.667 28.8052 15.667 28.333V19.9997H12.3337V28.333C12.3337 28.8052 12.1739 29.2011 11.8545 29.5205C11.535 29.84 11.1392 29.9997 10.667 29.9997H4.00033C3.08366 29.9997 2.29894 29.6733 1.64616 29.0205C0.993381 28.3677 0.666992 27.583 0.666992 26.6663Z" fill="#6972A8"/>
</svg>
