<svg width="15" height="20" viewBox="0 0 15 20" fill="none" xmlns="http://www.w3.org/2000/svg">
<path d="M7.5 14.475C9.15 13.1417 10.3958 11.8583 11.2375 10.625C12.0792 9.39167 12.5 8.23333 12.5 7.15C12.5 5.65 12.0333 4.41667 11.1 3.45C10.1667 2.48333 8.96667 2 7.5 2C6.03333 2 4.83333 2.48333 3.9 3.45C2.96667 4.41667 2.5 5.65 2.5 7.15C2.5 8.23333 2.92083 9.39167 3.7625 10.625C4.60417 11.8583 5.85 13.1417 7.5 14.475ZM7.5 16.525C7.3 16.525 7.1 16.4917 6.9 16.425C6.7 16.3583 6.51667 16.2583 6.35 16.125C4.38333 14.5583 2.91667 13.0292 1.95 11.5375C0.983333 10.0458 0.5 8.58333 0.5 7.15C0.5 5.06667 1.15 3.35417 2.45 2.0125C3.75 0.670833 5.43333 0 7.5 0C9.56667 0 11.25 0.670833 12.55 2.0125C13.85 3.35417 14.5 5.06667 14.5 7.15C14.5 8.58333 14.0167 10.0458 13.05 11.5375C12.0833 13.0292 10.6167 14.5583 8.65 16.125C8.48333 16.2583 8.3 16.3583 8.1 16.425C7.9 16.4917 7.7 16.525 7.5 16.525ZM7.5 9C8.05 9 8.52083 8.80417 8.9125 8.4125C9.30417 8.02083 9.5 7.55 9.5 7C9.5 6.45 9.30417 5.97917 8.9125 5.5875C8.52083 5.19583 8.05 5 7.5 5C6.95 5 6.47917 5.19583 6.0875 5.5875C5.69583 5.97917 5.5 6.45 5.5 7C5.5 7.55 5.69583 8.02083 6.0875 8.4125C6.47917 8.80417 6.95 9 7.5 9ZM1.5 20C1.21667 20 0.979167 19.9042 0.7875 19.7125C0.595833 19.5208 0.5 19.2833 0.5 19C0.5 18.7167 0.595833 18.4792 0.7875 18.2875C0.979167 18.0958 1.21667 18 1.5 18H13.5C13.7833 18 14.0208 18.0958 14.2125 18.2875C14.4042 18.4792 14.5 18.7167 14.5 19C14.5 19.2833 14.4042 19.5208 14.2125 19.7125C14.0208 19.9042 13.7833 20 13.5 20H1.5Z" fill="white"/>
</svg>
