<svg width="28" height="28" viewBox="0 0 28 28" fill="none" xmlns="http://www.w3.org/2000/svg">
<path d="M14.0003 13.9993C12.167 13.9993 10.5975 13.3466 9.29199 12.041C7.98644 10.7355 7.33366 9.16601 7.33366 7.33268C7.33366 5.49935 7.98644 3.9299 9.29199 2.62435C10.5975 1.31879 12.167 0.666016 14.0003 0.666016C15.8337 0.666016 17.4031 1.31879 18.7087 2.62435C20.0142 3.9299 20.667 5.49935 20.667 7.33268C20.667 9.16601 20.0142 10.7355 18.7087 12.041C17.4031 13.3466 15.8337 13.9993 14.0003 13.9993ZM0.666992 23.9993V22.666C0.666992 21.7216 0.910048 20.8535 1.39616 20.0618C1.88227 19.2702 2.5281 18.666 3.33366 18.2493C5.05588 17.3882 6.80588 16.7424 8.58366 16.3118C10.3614 15.8813 12.167 15.666 14.0003 15.666C15.8337 15.666 17.6392 15.8813 19.417 16.3118C21.1948 16.7424 22.9448 17.3882 24.667 18.2493C25.4725 18.666 26.1184 19.2702 26.6045 20.0618C27.0906 20.8535 27.3337 21.7216 27.3337 22.666V23.9993C27.3337 24.916 27.0073 25.7007 26.3545 26.3535C25.7017 27.0063 24.917 27.3327 24.0003 27.3327H4.00033C3.08366 27.3327 2.29894 27.0063 1.64616 26.3535C0.993381 25.7007 0.666992 24.916 0.666992 23.9993ZM4.00033 23.9993H24.0003V22.666C24.0003 22.3605 23.9239 22.0827 23.7712 21.8327C23.6184 21.5827 23.417 21.3882 23.167 21.2493C21.667 20.4993 20.1531 19.9368 18.6253 19.5618C17.0975 19.1868 15.5559 18.9993 14.0003 18.9993C12.4448 18.9993 10.9031 19.1868 9.37533 19.5618C7.84755 19.9368 6.33366 20.4993 4.83366 21.2493C4.58366 21.3882 4.38227 21.5827 4.22949 21.8327C4.07671 22.0827 4.00033 22.3605 4.00033 22.666V23.9993ZM14.0003 10.666C14.917 10.666 15.7017 10.3396 16.3545 9.68685C17.0073 9.03407 17.3337 8.24935 17.3337 7.33268C17.3337 6.41602 17.0073 5.63129 16.3545 4.97852C15.7017 4.32574 14.917 3.99935 14.0003 3.99935C13.0837 3.99935 12.2989 4.32574 11.6462 4.97852C10.9934 5.63129 10.667 6.41602 10.667 7.33268C10.667 8.24935 10.9934 9.03407 11.6462 9.68685C12.2989 10.3396 13.0837 10.666 14.0003 10.666Z" fill="#6972A8"/>
</svg>
