<svg width="56" height="50" viewBox="0 0 56 50" fill="none" xmlns="http://www.w3.org/2000/svg">
<path d="M28 50C27.5007 50 26.9925 49.9097 26.4754 49.729C25.9583 49.5483 25.5036 49.2593 25.1111 48.862L21.42 45.4482C15.6333 40.0794 10.6167 34.9557 6.37 30.077C2.12333 25.1984 0 20.098 0 14.7759C0 10.5672 1.41167 7.05229 4.235 4.23109C7.05833 1.41036 10.5467 0 14.7 0C17.08 0 19.4367 0.571895 21.77 1.71569C24.1033 2.85948 26.18 4.73856 28 7.35294C30.0533 4.73856 32.1767 2.85948 34.37 1.71569C36.5633 0.571895 38.8733 0 41.3 0C45.4533 0 48.9417 1.41036 51.765 4.23109C54.5883 7.05229 56 10.5672 56 14.7759C56 20.098 53.8767 25.1984 49.63 30.077C45.3833 34.9557 40.3667 40.0794 34.58 45.4482L30.87 48.8796C30.485 49.2708 30.0389 49.5553 29.5316 49.7332C29.0239 49.9111 28.5133 50 28 50ZM26.18 11.9748C24.92 9.68721 23.2633 7.8198 21.21 6.37255C19.1567 4.9253 16.9867 4.20168 14.7 4.20168C11.62 4.20168 9.1 5.19374 7.14 7.17787C5.18 9.162 4.2 11.7047 4.2 14.806C4.2 17.4937 5.1072 20.3233 6.9216 23.2948C8.736 26.2668 10.906 29.1496 13.4316 31.9433C15.9572 34.7374 18.5733 37.3366 21.28 39.7409C23.9867 42.1452 26.2267 44.1643 28 45.7983C29.7733 44.211 32.0133 42.2035 34.72 39.7759C37.4267 37.3483 40.04 34.7222 42.56 31.8978C45.08 29.0733 47.25 26.1744 49.07 23.201C50.89 20.2276 51.8 17.4192 51.8 14.7759C51.8 11.6947 50.8083 9.162 48.825 7.17787C46.8417 5.19374 44.3333 4.20168 41.3 4.20168C38.9667 4.20168 36.785 4.91363 34.755 6.33754C32.725 7.76144 31.0333 9.64052 29.68 11.9748C29.4467 12.3483 29.19 12.6167 28.91 12.7801C28.63 12.9435 28.3033 13.0252 27.93 13.0252C27.5567 13.0252 27.2183 12.9435 26.915 12.7801C26.6117 12.6167 26.3667 12.3483 26.18 11.9748Z" fill="#283583"/>
</svg>
