<svg width="18" height="18" viewBox="0 0 18 18" fill="none" xmlns="http://www.w3.org/2000/svg">
<path d="M14.0106 5.40416L12.5964 6.81838C12.396 7.01872 12.1603 7.1189 11.8893 7.1189C11.6182 7.1189 11.3825 7.01872 11.1822 6.81838C10.9818 6.61803 10.8816 6.38233 10.8816 6.11127C10.8816 5.84021 10.9818 5.60451 11.1822 5.40416L12.5964 3.98995C12.7967 3.7896 13.0324 3.68943 13.3035 3.68943C13.5745 3.68943 13.8102 3.7896 14.0106 3.98995C14.2109 4.1903 14.3111 4.426 14.3111 4.69706C14.3111 4.96811 14.2109 5.20382 14.0106 5.40416ZM13.5863 11.2024C13.5392 10.9196 13.5981 10.6721 13.7631 10.46C13.9281 10.2478 14.152 10.1182 14.4348 10.0711L16.4147 9.78822C16.6976 9.74108 16.9451 9.80001 17.1572 9.965C17.3693 10.13 17.499 10.3539 17.5461 10.6368C17.5933 10.9196 17.5343 11.1671 17.3693 11.3792C17.2043 11.5913 16.9804 11.721 16.6976 11.7681L14.7177 12.051C14.4348 12.0981 14.1874 12.0392 13.9752 11.8742C13.7631 11.7092 13.6335 11.4853 13.5863 11.2024ZM8.21231 1.58579L7.92946 3.56568C7.88232 3.84853 7.75269 4.07244 7.54056 4.23744C7.32842 4.40243 7.08094 4.46135 6.79809 4.41421C6.51525 4.36707 6.29133 4.23744 6.12634 4.0253C5.96135 3.81317 5.90242 3.56568 5.94957 3.28284L6.23241 1.30294C6.27955 1.0201 6.40918 0.796183 6.62132 0.631191C6.83345 0.466199 7.08094 0.407274 7.36378 0.454414C7.64662 0.501555 7.87054 0.631191 8.03553 0.843323C8.20052 1.05545 8.25945 1.30294 8.21231 1.58579ZM6.93951 15.3037L4.81819 17.425C4.61785 17.6253 4.38215 17.7255 4.11109 17.7255C3.84003 17.7255 3.60433 17.6253 3.40398 17.425L0.575554 14.5965C0.375207 14.3962 0.275033 14.1605 0.275033 13.8894C0.275033 13.6184 0.375207 13.3827 0.575554 13.1823L2.69687 11.061L2.69687 6.39411C2.69687 5.94628 2.90311 5.63986 3.31559 5.47487C3.72807 5.30988 4.09341 5.38648 4.41161 5.70468L12.2958 13.5889C12.614 13.9071 12.6906 14.2725 12.5257 14.6849C12.3607 15.0974 12.0543 15.3037 11.6064 15.3037L6.93951 15.3037ZM4.71213 8.83363V11.8742L2.69687 13.8894L4.11109 15.3037L6.12634 13.2884L9.1669 13.2884L4.71213 8.83363Z" fill="white"/>
</svg>
