<svg width="25" height="24" viewBox="0 0 25 24" fill="none" xmlns="http://www.w3.org/2000/svg">
<path d="M12.6641 5C12.3807 5 12.1432 4.90417 11.9516 4.7125C11.7599 4.52083 11.6641 4.28333 11.6641 4V2C11.6641 1.71667 11.7599 1.47917 11.9516 1.2875C12.1432 1.09583 12.3807 1 12.6641 1C12.9474 1 13.1849 1.09583 13.3766 1.2875C13.5682 1.47917 13.6641 1.71667 13.6641 2V4C13.6641 4.28333 13.5682 4.52083 13.3766 4.7125C13.1849 4.90417 12.9474 5 12.6641 5ZM17.6141 7.05C17.4307 6.86667 17.3391 6.63333 17.3391 6.35C17.3391 6.06667 17.4307 5.83333 17.6141 5.65L19.0141 4.225C19.2141 4.025 19.4516 3.925 19.7266 3.925C20.0016 3.925 20.2391 4.025 20.4391 4.225C20.6224 4.40833 20.7141 4.64167 20.7141 4.925C20.7141 5.20833 20.6224 5.44167 20.4391 5.625L19.0141 7.05C18.8307 7.23333 18.5974 7.325 18.3141 7.325C18.0307 7.325 17.7974 7.23333 17.6141 7.05ZM20.6641 13C20.3807 13 20.1432 12.9042 19.9516 12.7125C19.7599 12.5208 19.6641 12.2833 19.6641 12C19.6641 11.7167 19.7599 11.4792 19.9516 11.2875C20.1432 11.0958 20.3807 11 20.6641 11H22.6641C22.9474 11 23.1849 11.0958 23.3766 11.2875C23.5682 11.4792 23.6641 11.7167 23.6641 12C23.6641 12.2833 23.5682 12.5208 23.3766 12.7125C23.1849 12.9042 22.9474 13 22.6641 13H20.6641ZM19.0141 19.775L17.6141 18.35C17.4307 18.1667 17.3391 17.9333 17.3391 17.65C17.3391 17.3667 17.4307 17.1333 17.6141 16.95C17.7974 16.7667 18.0307 16.675 18.3141 16.675C18.5974 16.675 18.8307 16.7667 19.0141 16.95L20.4391 18.35C20.6391 18.55 20.7391 18.7875 20.7391 19.0625C20.7391 19.3375 20.6391 19.575 20.4391 19.775C20.2391 19.975 20.0016 20.075 19.7266 20.075C19.4516 20.075 19.2141 19.975 19.0141 19.775ZM6.31406 7.05L4.88906 5.625C4.70573 5.44167 4.61406 5.20833 4.61406 4.925C4.61406 4.64167 4.70573 4.40833 4.88906 4.225C5.08906 4.025 5.32656 3.925 5.60156 3.925C5.87656 3.925 6.11406 4.025 6.31406 4.225L7.71406 5.65C7.8974 5.83333 7.98906 6.06667 7.98906 6.35C7.98906 6.63333 7.8974 6.86667 7.71406 7.05C7.53073 7.23333 7.2974 7.325 7.01406 7.325C6.73073 7.325 6.4974 7.23333 6.31406 7.05ZM6.66406 19H11.1641C11.5807 19 11.9349 18.8542 12.2266 18.5625C12.5182 18.2708 12.6641 17.9167 12.6641 17.5C12.6641 17.0833 12.5224 16.7292 12.2391 16.4375C11.9557 16.1458 11.6057 16 11.1891 16H9.91406L9.41406 14.8C9.18073 14.25 8.81406 13.8125 8.31406 13.4875C7.81406 13.1625 7.26406 13 6.66406 13C5.83073 13 5.1224 13.2917 4.53906 13.875C3.95573 14.4583 3.66406 15.1667 3.66406 16C3.66406 16.8333 3.95573 17.5417 4.53906 18.125C5.1224 18.7083 5.83073 19 6.66406 19ZM6.66406 21C5.28073 21 4.10156 20.5125 3.12656 19.5375C2.15156 18.5625 1.66406 17.3833 1.66406 16C1.66406 14.6167 2.15156 13.4375 3.12656 12.4625C4.10156 11.4875 5.28073 11 6.66406 11C7.66406 11 8.57656 11.2708 9.40156 11.8125C10.2266 12.3542 10.8391 13.0833 11.2391 14C12.2057 14 13.0182 14.3583 13.6766 15.075C14.3349 15.7917 14.6641 16.65 14.6641 17.65C14.6307 18.6 14.2766 19.3958 13.6016 20.0375C12.9266 20.6792 12.1141 21 11.1641 21H6.66406ZM14.6641 17.65C14.5807 17.3167 14.4974 16.9917 14.4141 16.675C14.3307 16.3583 14.2474 16.0333 14.1641 15.7C14.9141 15.3833 15.5182 14.8917 15.9766 14.225C16.4349 13.5583 16.6641 12.8167 16.6641 12C16.6641 10.9 16.2724 9.95833 15.4891 9.175C14.7057 8.39167 13.7641 8 12.6641 8C11.6641 8 10.7891 8.325 10.0391 8.975C9.28906 9.625 8.8474 10.45 8.71406 11.45C8.38073 11.3667 8.03906 11.2917 7.68906 11.225C7.33906 11.1583 6.9974 11.0833 6.66406 11C6.8974 9.53333 7.5849 8.33333 8.72656 7.4C9.86823 6.46667 11.1807 6 12.6641 6C14.3307 6 15.7474 6.58333 16.9141 7.75C18.0807 8.91667 18.6641 10.3333 18.6641 12C18.6641 13.2833 18.2974 14.4375 17.5641 15.4625C16.8307 16.4875 15.8641 17.2167 14.6641 17.65Z" fill="#283583"/>
</svg>
