<svg width="18" height="18" viewBox="0 0 18 18" fill="none" xmlns="http://www.w3.org/2000/svg">
<path d="M3.4 16H14.575L12.475 13.9C11.9917 14.25 11.4542 14.5208 10.8625 14.7125C10.2708 14.9042 9.65 15 9 15C8.35 15 7.72917 14.9 7.1375 14.7C6.54583 14.5 6.00833 14.225 5.525 13.875L3.4 16ZM2 14.575L4.1 12.475C3.75 11.9917 3.47917 11.4542 3.2875 10.8625C3.09583 10.2708 3 9.65 3 9C3 8.35 3.1 7.72917 3.3 7.1375C3.5 6.54583 3.775 6.00833 4.125 5.525L2 3.4V14.575ZM5.55 11.025L7.6 9L5.55 6.975C5.36667 7.275 5.22917 7.59167 5.1375 7.925C5.04583 8.25833 5 8.61667 5 9C5 9.38333 5.04583 9.74167 5.1375 10.075C5.22917 10.4083 5.36667 10.725 5.55 11.025ZM9 13C9.38333 13 9.74167 12.9542 10.075 12.8625C10.4083 12.7708 10.725 12.6333 11.025 12.45L9 10.4L6.95 12.45C7.25 12.6333 7.57083 12.7708 7.9125 12.8625C8.25417 12.9542 8.61667 13 9 13ZM9 7.575L11.025 5.55C10.725 5.36667 10.4083 5.22917 10.075 5.1375C9.74167 5.04583 9.38333 5 9 5C8.61667 5 8.25833 5.04583 7.925 5.1375C7.59167 5.22917 7.275 5.36667 6.975 5.55L9 7.575ZM12.45 11.025C12.6333 10.725 12.7708 10.4083 12.8625 10.075C12.9542 9.74167 13 9.38333 13 9C13 8.61667 12.9542 8.25417 12.8625 7.9125C12.7708 7.57083 12.6333 7.25 12.45 6.95L10.425 8.975L12.45 11.025ZM16 14.575V3.4L13.875 5.525C14.225 6.00833 14.5 6.54583 14.7 7.1375C14.9 7.72917 15 8.35 15 9C15 9.65 14.9042 10.2708 14.7125 10.8625C14.5208 11.4542 14.25 11.9917 13.9 12.475L16 14.575ZM12.475 4.125L14.6 2H3.425L5.525 4.1C6.00833 3.75 6.54583 3.47917 7.1375 3.2875C7.72917 3.09583 8.35 3 9 3C9.65 3 10.2708 3.1 10.8625 3.3C11.4542 3.5 11.9917 3.775 12.475 4.125ZM2 18C1.45 18 0.979167 17.8042 0.5875 17.4125C0.195833 17.0208 0 16.55 0 16V2C0 1.45 0.195833 0.979167 0.5875 0.5875C0.979167 0.195833 1.45 0 2 0H16C16.55 0 17.0208 0.195833 17.4125 0.5875C17.8042 0.979167 18 1.45 18 2V16C18 16.55 17.8042 17.0208 17.4125 17.4125C17.0208 17.8042 16.55 18 16 18H2Z" fill="#283583"/>
</svg>
