<svg width="61" height="61" viewBox="0 0 61 61" fill="none" xmlns="http://www.w3.org/2000/svg">
<path d="M12.1175 46.5312C15.11 44.4412 18.0788 42.8381 21.0238 41.7219C23.9688 40.6056 27.1275 40.0475 30.5 40.0475C33.8725 40.0475 37.0431 40.6056 40.0119 41.7219C42.9806 42.8381 45.9613 44.4412 48.9538 46.5312C51.0438 43.9663 52.5281 41.3775 53.4069 38.765C54.2856 36.1525 54.725 33.3975 54.725 30.5C54.725 23.6125 52.4094 17.8531 47.7781 13.2219C43.1469 8.59062 37.3875 6.275 30.5 6.275C23.6125 6.275 17.8531 8.59062 13.2219 13.2219C8.59062 17.8531 6.275 23.6125 6.275 30.5C6.275 33.3975 6.72625 36.1525 7.62875 38.765C8.53125 41.3775 10.0275 43.9663 12.1175 46.5312ZM30.4865 32.6375C27.7405 32.6375 25.4294 31.6949 23.5531 29.8096C21.6769 27.9248 20.7388 25.6092 20.7388 22.8627C20.7388 20.1167 21.6814 17.8056 23.5667 15.9294C25.4515 14.0531 27.7671 13.115 30.5135 13.115C33.2595 13.115 35.5706 14.0576 37.4469 15.9429C39.3231 17.8277 40.2612 20.1433 40.2612 22.8898C40.2612 25.6358 39.3186 27.9469 37.4333 29.8231C35.5485 31.6994 33.2329 32.6375 30.4865 32.6375ZM30.5335 59C26.6162 59 22.9237 58.2519 19.4562 56.7556C15.9887 55.2594 12.9606 53.2169 10.3719 50.6281C7.78312 48.0394 5.74062 45.0167 4.24437 41.5601C2.74813 38.104 2 34.4109 2 30.4808C2 26.5511 2.74813 22.8644 4.24437 19.4206C5.74062 15.9769 7.78312 12.9606 10.3719 10.3719C12.9606 7.78312 15.9833 5.74062 19.4399 4.24437C22.896 2.74813 26.5891 2 30.5192 2C34.4489 2 38.1356 2.74813 41.5794 4.24437C45.0231 5.74062 48.0394 7.78312 50.6281 10.3719C53.2169 12.9606 55.2594 15.9776 56.7556 19.4228C58.2519 22.8679 59 26.5492 59 30.4665C59 34.3838 58.2519 38.0762 56.7556 41.5438C55.2594 45.0112 53.2169 48.0394 50.6281 50.6281C48.0394 53.2169 45.0224 55.2594 41.5772 56.7556C38.1321 58.2519 34.4508 59 30.5335 59ZM30.5 54.725C33.1125 54.725 35.6656 54.345 38.1594 53.585C40.6531 52.825 43.1112 51.495 45.5337 49.595C43.1112 47.885 40.6413 46.5788 38.1237 45.6763C35.6063 44.7738 33.065 44.3225 30.5 44.3225C27.935 44.3225 25.3937 44.7738 22.8762 45.6763C20.3587 46.5788 17.8888 47.885 15.4662 49.595C17.8888 51.495 20.3469 52.825 22.8406 53.585C25.3344 54.345 27.8875 54.725 30.5 54.725ZM30.5 28.3625C32.115 28.3625 33.4331 27.8519 34.4544 26.8306C35.4756 25.8094 35.9862 24.4912 35.9862 22.8762C35.9862 21.2612 35.4756 19.9431 34.4544 18.9219C33.4331 17.9006 32.115 17.39 30.5 17.39C28.885 17.39 27.5669 17.9006 26.5456 18.9219C25.5244 19.9431 25.0138 21.2612 25.0138 22.8762C25.0138 24.4912 25.5244 25.8094 26.5456 26.8306C27.5669 27.8519 28.885 28.3625 30.5 28.3625Z" fill="#283583"/>
</svg>
