<svg width="326" height="258" viewBox="0 0 326 258" fill="none" xmlns="http://www.w3.org/2000/svg">
<g filter="url(#filter0_d_780_16201)">
<path fill-rule="evenodd" clip-rule="evenodd" d="M256.975 176.563L255.849 177.696L254.725 178.821L253.604 179.938L252.484 181.048L251.365 182.151L250.249 183.247L249.133 184.336L248.019 185.42L246.906 186.497L245.793 187.568L244.68 188.634L243.568 189.693L242.454 190.748L241.34 191.797L240.224 192.84L239.106 193.877L237.985 194.909L236.862 195.935L235.735 196.954L234.604 197.968L233.468 198.975L232.327 199.975L231.18 200.969L230.027 201.954L228.867 202.932L227.699 203.902L226.524 204.863L225.34 205.815L224.148 206.757L222.945 207.689L221.734 208.61L220.511 209.519L219.279 210.417L218.035 211.302L216.78 212.174L215.513 213.032L214.235 213.875L212.945 214.703L211.642 215.516L210.327 216.311L209 217.09L207.66 217.851L206.307 218.593L204.943 219.316L203.565 220.02L202.176 220.703L200.775 221.366L199.362 222.007L197.937 222.626L196.501 223.223L195.055 223.798L193.597 224.349L192.13 224.876L190.652 225.38L189.166 225.859L187.67 226.313L186.166 226.742L184.654 227.146L183.134 227.524L181.608 227.876L180.075 228.201L178.536 228.5L176.992 228.772L175.444 229.017L173.891 229.236L172.335 229.427L170.776 229.59L169.215 229.727L167.652 229.836L166.089 229.918L164.525 229.972L162.962 230L161.4 230L159.84 229.973L158.282 229.92L156.728 229.84L155.177 229.733L153.63 229.601L152.089 229.443L150.553 229.259L149.023 229.05L147.501 228.817L145.986 228.559L144.478 228.278L142.98 227.973L141.49 227.645L140.01 227.295L138.541 226.923L137.082 226.529L135.633 226.115L134.197 225.681L132.772 225.228L131.359 224.756L129.959 224.265L128.572 223.758L127.198 223.233L125.838 222.692L124.491 222.136L123.158 221.565L121.839 220.98L120.534 220.382L119.244 219.771L117.968 219.148L116.706 218.514L115.459 217.869L114.226 217.214L113.008 216.551L111.804 215.879L110.614 215.199L109.439 214.512L108.278 213.819L107.13 213.121L105.996 212.417L104.875 211.709L103.768 210.997L102.673 210.281L101.591 209.564L100.521 208.844L99.4631 208.123L98.4167 207.401L97.3814 206.678L96.3568 205.956L95.3426 205.234L94.3383 204.513L93.3434 203.793L92.3575 203.076L91.38 202.36L90.4106 201.647L89.4488 200.937L88.4939 200.23L81.9659 195.383L81.0497 194.706L80.1364 194.033L79.2253 193.365L78.3161 192.7L77.4084 192.039L76.5018 191.381L75.596 190.727L74.6906 190.076L73.7854 189.428L72.8799 188.783L71.974 188.14L71.0675 187.499L70.16 186.86L69.2515 186.222L68.3418 185.585L61.9341 181.123L61.0132 180.479L60.0913 179.833L59.1685 179.183L58.2451 178.529L57.3212 177.87L56.3973 177.207L55.4736 176.538L54.5505 175.864L53.6284 175.183L52.7076 174.495L51.7887 173.8L50.8721 173.098L49.9584 172.387L49.048 171.668L48.1415 170.94L47.2395 170.202L46.3425 169.455L45.4512 168.699L44.5663 167.931L43.6883 167.154L42.8179 166.365L41.9559 165.566L41.1031 164.755L40.2602 163.933L39.4282 163.098L38.6079 162.252L37.8002 161.394L37.006 160.523L36.2265 159.64L35.4624 158.744L34.7148 157.835L33.9847 156.914L33.2731 155.981L32.581 155.035L31.9094 154.076L31.2593 153.105L30.6316 152.122L30.0273 151.127L29.4474 150.12L28.8926 149.102L28.364 148.073L27.8622 147.033L27.3882 145.983L26.9427 144.923L26.5263 143.854L26.1399 142.776L25.7839 141.69L25.459 140.597L25.1656 139.496L24.9043 138.388L24.6755 137.275L24.4795 136.157L24.3165 135.035L24.187 133.908L24.091 132.779L24.0286 131.648L24 130.514L24.0052 129.381L24.0441 128.247L24.1166 127.114L24.2226 125.982L24.362 124.853L24.5345 123.726L24.7398 122.604L24.9776 121.486L25.2476 120.372L25.5493 119.265L25.8824 118.164L26.2464 117.071L26.6409 115.985L27.0651 114.908L27.5187 113.84L28.0008 112.782L28.5108 111.734L29.0479 110.696L29.6111 109.671L30.1996 108.657L30.8125 107.655L31.4487 106.666L32.1072 105.69L32.7869 104.728L33.4867 103.779L34.2054 102.844L34.9418 101.923L35.6947 101.017L36.4629 100.125L37.2452 99.2471L38.0402 98.384L38.8467 97.5353L39.6634 96.701L40.4891 95.8809L41.3225 95.0748L42.1623 94.2826L43.0072 93.5039L43.8561 92.7384L44.7077 91.9858L45.5609 91.2457L46.4144 90.5177L47.2672 89.8012L48.1181 89.0957L48.9662 88.4008L49.8104 87.7157L50.6497 87.04L51.4832 86.373L52.3101 85.714L54.7432 83.7781L55.536 83.1441L56.3187 82.5146L57.0909 81.8887L57.852 81.2659L58.6019 80.6452L59.3402 80.0262L60.067 79.4081L60.7821 78.7902L61.4856 78.172L62.1776 77.5529L62.8583 76.9323L63.528 76.3098L64.1869 75.6848L64.8355 75.0569L65.4743 74.4257L66.1037 73.7909L66.7242 73.1522L67.3365 72.5093L67.9412 71.862L68.5389 71.2102L69.1304 70.5536L69.7164 69.8922L70.2976 69.226L70.8747 68.555L71.4486 67.8792L72.0201 67.1987L72.5899 66.5137L73.1588 65.8243L73.7276 65.1306L74.2971 64.4331L76.0174 62.3196L76.5972 61.6092L77.1814 60.8966L77.7707 60.182L78.3656 59.4659L78.9669 58.7488L79.5751 58.031L80.1908 57.3131L80.8145 56.5954L81.4466 55.8785L82.0876 55.1627L82.7379 54.4486L83.3979 53.7365L84.0679 53.027L84.7482 52.3203L85.4391 51.6169L86.1407 50.9172L86.8533 50.2216L87.577 49.5302L88.3119 48.8436L89.0581 48.1618L89.8156 47.4853L90.5846 46.8143L91.365 46.149L92.157 45.4898L92.9605 44.837L93.7756 44.1908L94.6023 43.5514L95.4404 42.9192L96.2901 42.2943L97.1513 41.6771L98.0239 41.0677L98.9078 40.4664L99.8031 39.8735L100.71 39.2891L101.627 38.7134L102.556 38.1468L103.496 37.5893L104.446 37.0412L105.407 36.5026L106.379 35.9738L107.362 35.4549L108.354 34.946L109.357 34.4474L110.37 33.9591L111.393 33.4814L112.426 33.0143L113.469 32.558L114.521 32.1126L115.582 31.6782L116.652 31.2548L117.732 30.8426L118.82 30.4416L119.917 30.0519L121.022 29.6735L122.136 29.3066L123.258 28.951L124.388 28.6069L125.526 28.2742L126.672 27.953L127.825 27.6431L128.986 27.3445L130.154 27.0571L131.329 26.7806L132.511 26.5147L133.7 26.2593L134.897 26.014L136.1 25.7784L137.309 25.5522L138.526 25.3349L139.75 25.1262L140.98 24.9256L142.218 24.7326L143.463 24.5467L144.715 24.3675L145.974 24.1945L147.241 24.0271L148.516 23.865L149.8 23.7076L151.091 23.5545L152.392 23.4053L153.702 23.2594L155.021 23.1166L156.35 22.9764L157.69 22.8385L159.04 22.7026L160.402 22.5684L161.775 22.4357L163.161 22.3043L164.559 22.174L165.971 22.0448L167.396 21.9166L168.836 21.7894L170.29 21.6633L171.76 21.5384L173.245 21.4149L174.746 21.293L176.263 21.1731L177.798 21.0554L179.349 20.9405L180.918 20.8288L182.505 20.7208L184.11 20.6172L185.733 20.5187L187.375 20.4259L189.034 20.3398L190.713 20.2611L192.409 20.1907L194.123 20.1297L195.856 20.0791L197.606 20.0399L199.373 20.0132L201.157 20L202.958 20.0014L204.774 20.0186L206.606 20.0526L208.452 20.1045L210.312 20.1754L212.185 20.2664L214.07 20.3785L215.966 20.5129L217.873 20.6706L219.789 20.8526L221.714 21.0598L223.645 21.2934L225.583 21.5541L227.525 21.843L229.471 22.1609L231.419 22.5086L233.368 22.887L235.317 23.2967L237.263 23.7385L239.207 24.2131L241.145 24.721L243.077 25.2628L245.001 25.839L246.916 26.45L248.82 27.0963L250.712 27.7781L252.59 28.4957L254.453 29.2494L256.298 30.0392L258.125 30.8652L259.932 31.7275L261.718 32.6261L263.48 33.5608L265.219 34.5315L266.931 35.5379L268.617 36.5799L270.273 37.6569L271.9 38.7688L273.496 39.915L275.059 41.0951L276.589 42.3086L278.083 43.5551L279.541 44.8338L280.962 46.1442L282.343 47.4857L283.685 48.8575L284.985 50.2589L286.244 51.6891L287.459 53.1473L288.629 54.6326L289.755 56.1441L290.834 57.6809L291.867 59.242L292.852 60.8264L293.788 62.4331L294.676 64.061L295.514 65.7089L296.301 67.3759L297.039 69.0606L297.725 70.7621L298.361 72.4791L298.945 74.2104L299.477 75.9548L299.958 77.7111L300.388 79.4782L300.766 81.2548L301.093 83.0396L301.37 84.8316L301.595 86.6295L301.77 88.4321L301.896 90.2383L301.972 92.0469L302 93.8567L301.98 95.6668L301.912 97.4759L301.798 99.2831L301.637 101.087L301.432 102.888L301.183 104.683L300.89 106.472L300.555 108.255L300.179 110.03L299.762 111.796L299.306 113.554L298.812 115.301L298.28 117.037L297.711 118.763L297.107 120.476L296.469 122.176L295.797 123.863L295.093 125.536L294.358 127.196L293.593 128.84L292.8 130.469L291.979 132.083L291.132 133.681L290.26 135.263L289.364 136.828L288.446 138.377L287.506 139.909L286.547 141.425L285.569 142.923L284.573 144.405L283.561 145.87L282.533 147.318L281.492 148.749L280.438 150.164L279.372 151.562L278.296 152.944L277.21 154.31L276.115 155.661L275.013 156.995L273.904 158.315L272.789 159.62L271.67 160.911L270.547 162.187L269.42 163.45L268.29 164.699L267.159 165.936L266.026 167.16L264.893 168.373L263.76 169.574L262.626 170.764L261.493 171.943L260.362 173.112L259.231 174.272L258.102 175.422L256.975 176.563Z" fill="url(#paint0_linear_780_16201)"/>
<path fill-rule="evenodd" clip-rule="evenodd" d="M256.975 176.563L255.849 177.696L254.725 178.821L253.604 179.938L252.484 181.048L251.365 182.151L250.249 183.247L249.133 184.336L248.019 185.42L246.906 186.497L245.793 187.568L244.68 188.634L243.568 189.693L242.454 190.748L241.34 191.797L240.224 192.84L239.106 193.877L237.985 194.909L236.862 195.935L235.735 196.954L234.604 197.968L233.468 198.975L232.327 199.975L231.18 200.969L230.027 201.954L228.867 202.932L227.699 203.902L226.524 204.863L225.34 205.815L224.148 206.757L222.945 207.689L221.734 208.61L220.511 209.519L219.279 210.417L218.035 211.302L216.78 212.174L215.513 213.032L214.235 213.875L212.945 214.703L211.642 215.516L210.327 216.311L209 217.09L207.66 217.851L206.307 218.593L204.943 219.316L203.565 220.02L202.176 220.703L200.775 221.366L199.362 222.007L197.937 222.626L196.501 223.223L195.055 223.798L193.597 224.349L192.13 224.876L190.652 225.38L189.166 225.859L187.67 226.313L186.166 226.742L184.654 227.146L183.134 227.524L181.608 227.876L180.075 228.201L178.536 228.5L176.992 228.772L175.444 229.017L173.891 229.236L172.335 229.427L170.776 229.59L169.215 229.727L167.652 229.836L166.089 229.918L164.525 229.972L162.962 230L161.4 230L159.84 229.973L158.282 229.92L156.728 229.84L155.177 229.733L153.63 229.601L152.089 229.443L150.553 229.259L149.023 229.05L147.501 228.817L145.986 228.559L144.478 228.278L142.98 227.973L141.49 227.645L140.01 227.295L138.541 226.923L137.082 226.529L135.633 226.115L134.197 225.681L132.772 225.228L131.359 224.756L129.959 224.265L128.572 223.758L127.198 223.233L125.838 222.692L124.491 222.136L123.158 221.565L121.839 220.98L120.534 220.382L119.244 219.771L117.968 219.148L116.706 218.514L115.459 217.869L114.226 217.214L113.008 216.551L111.804 215.879L110.614 215.199L109.439 214.512L108.278 213.819L107.13 213.121L105.996 212.417L104.875 211.709L103.768 210.997L102.673 210.281L101.591 209.564L100.521 208.844L99.4631 208.123L98.4167 207.401L97.3814 206.678L96.3568 205.956L95.3426 205.234L94.3383 204.513L93.3434 203.793L92.3575 203.076L91.38 202.36L90.4106 201.647L89.4488 200.937L88.4939 200.23L81.9659 195.383L81.0497 194.706L80.1364 194.033L79.2253 193.365L78.3161 192.7L77.4084 192.039L76.5018 191.381L75.596 190.727L74.6906 190.076L73.7854 189.428L72.8799 188.783L71.974 188.14L71.0675 187.499L70.16 186.86L69.2515 186.222L68.3418 185.585L61.9341 181.123L61.0132 180.479L60.0913 179.833L59.1685 179.183L58.2451 178.529L57.3212 177.87L56.3973 177.207L55.4736 176.538L54.5505 175.864L53.6284 175.183L52.7076 174.495L51.7887 173.8L50.8721 173.098L49.9584 172.387L49.048 171.668L48.1415 170.94L47.2395 170.202L46.3425 169.455L45.4512 168.699L44.5663 167.931L43.6883 167.154L42.8179 166.365L41.9559 165.566L41.1031 164.755L40.2602 163.933L39.4282 163.098L38.6079 162.252L37.8002 161.394L37.006 160.523L36.2265 159.64L35.4624 158.744L34.7148 157.835L33.9847 156.914L33.2731 155.981L32.581 155.035L31.9094 154.076L31.2593 153.105L30.6316 152.122L30.0273 151.127L29.4474 150.12L28.8926 149.102L28.364 148.073L27.8622 147.033L27.3882 145.983L26.9427 144.923L26.5263 143.854L26.1399 142.776L25.7839 141.69L25.459 140.597L25.1656 139.496L24.9043 138.388L24.6755 137.275L24.4795 136.157L24.3165 135.035L24.187 133.908L24.091 132.779L24.0286 131.648L24 130.514L24.0052 129.381L24.0441 128.247L24.1166 127.114L24.2226 125.982L24.362 124.853L24.5345 123.726L24.7398 122.604L24.9776 121.486L25.2476 120.372L25.5493 119.265L25.8824 118.164L26.2464 117.071L26.6409 115.985L27.0651 114.908L27.5187 113.84L28.0008 112.782L28.5108 111.734L29.0479 110.696L29.6111 109.671L30.1996 108.657L30.8125 107.655L31.4487 106.666L32.1072 105.69L32.7869 104.728L33.4867 103.779L34.2054 102.844L34.9418 101.923L35.6947 101.017L36.4629 100.125L37.2452 99.2471L38.0402 98.384L38.8467 97.5353L39.6634 96.701L40.4891 95.8809L41.3225 95.0748L42.1623 94.2826L43.0072 93.5039L43.8561 92.7384L44.7077 91.9858L45.5609 91.2457L46.4144 90.5177L47.2672 89.8012L48.1181 89.0957L48.9662 88.4008L49.8104 87.7157L50.6497 87.04L51.4832 86.373L52.3101 85.714L54.7432 83.7781L55.536 83.1441L56.3187 82.5146L57.0909 81.8887L57.852 81.2659L58.6019 80.6452L59.3402 80.0262L60.067 79.4081L60.7821 78.7902L61.4856 78.172L62.1776 77.5529L62.8583 76.9323L63.528 76.3098L64.1869 75.6848L64.8355 75.0569L65.4743 74.4257L66.1037 73.7909L66.7242 73.1522L67.3365 72.5093L67.9412 71.862L68.5389 71.2102L69.1304 70.5536L69.7164 69.8922L70.2976 69.226L70.8747 68.555L71.4486 67.8792L72.0201 67.1987L72.5899 66.5137L73.1588 65.8243L73.7276 65.1306L74.2971 64.4331L76.0174 62.3196L76.5972 61.6092L77.1814 60.8966L77.7707 60.182L78.3656 59.4659L78.9669 58.7488L79.5751 58.031L80.1908 57.3131L80.8145 56.5954L81.4466 55.8785L82.0876 55.1627L82.7379 54.4486L83.3979 53.7365L84.0679 53.027L84.7482 52.3203L85.4391 51.6169L86.1407 50.9172L86.8533 50.2216L87.577 49.5302L88.3119 48.8436L89.0581 48.1618L89.8156 47.4853L90.5846 46.8143L91.365 46.149L92.157 45.4898L92.9605 44.837L93.7756 44.1908L94.6023 43.5514L95.4404 42.9192L96.2901 42.2943L97.1513 41.6771L98.0239 41.0677L98.9078 40.4664L99.8031 39.8735L100.71 39.2891L101.627 38.7134L102.556 38.1468L103.496 37.5893L104.446 37.0412L105.407 36.5026L106.379 35.9738L107.362 35.4549L108.354 34.946L109.357 34.4474L110.37 33.9591L111.393 33.4814L112.426 33.0143L113.469 32.558L114.521 32.1126L115.582 31.6782L116.652 31.2548L117.732 30.8426L118.82 30.4416L119.917 30.0519L121.022 29.6735L122.136 29.3066L123.258 28.951L124.388 28.6069L125.526 28.2742L126.672 27.953L127.825 27.6431L128.986 27.3445L130.154 27.0571L131.329 26.7806L132.511 26.5147L133.7 26.2593L134.897 26.014L136.1 25.7784L137.309 25.5522L138.526 25.3349L139.75 25.1262L140.98 24.9256L142.218 24.7326L143.463 24.5467L144.715 24.3675L145.974 24.1945L147.241 24.0271L148.516 23.865L149.8 23.7076L151.091 23.5545L152.392 23.4053L153.702 23.2594L155.021 23.1166L156.35 22.9764L157.69 22.8385L159.04 22.7026L160.402 22.5684L161.775 22.4357L163.161 22.3043L164.559 22.174L165.971 22.0448L167.396 21.9166L168.836 21.7894L170.29 21.6633L171.76 21.5384L173.245 21.4149L174.746 21.293L176.263 21.1731L177.798 21.0554L179.349 20.9405L180.918 20.8288L182.505 20.7208L184.11 20.6172L185.733 20.5187L187.375 20.4259L189.034 20.3398L190.713 20.2611L192.409 20.1907L194.123 20.1297L195.856 20.0791L197.606 20.0399L199.373 20.0132L201.157 20L202.958 20.0014L204.774 20.0186L206.606 20.0526L208.452 20.1045L210.312 20.1754L212.185 20.2664L214.07 20.3785L215.966 20.5129L217.873 20.6706L219.789 20.8526L221.714 21.0598L223.645 21.2934L225.583 21.5541L227.525 21.843L229.471 22.1609L231.419 22.5086L233.368 22.887L235.317 23.2967L237.263 23.7385L239.207 24.2131L241.145 24.721L243.077 25.2628L245.001 25.839L246.916 26.45L248.82 27.0963L250.712 27.7781L252.59 28.4957L254.453 29.2494L256.298 30.0392L258.125 30.8652L259.932 31.7275L261.718 32.6261L263.48 33.5608L265.219 34.5315L266.931 35.5379L268.617 36.5799L270.273 37.6569L271.9 38.7688L273.496 39.915L275.059 41.0951L276.589 42.3086L278.083 43.5551L279.541 44.8338L280.962 46.1442L282.343 47.4857L283.685 48.8575L284.985 50.2589L286.244 51.6891L287.459 53.1473L288.629 54.6326L289.755 56.1441L290.834 57.6809L291.867 59.242L292.852 60.8264L293.788 62.4331L294.676 64.061L295.514 65.7089L296.301 67.3759L297.039 69.0606L297.725 70.7621L298.361 72.4791L298.945 74.2104L299.477 75.9548L299.958 77.7111L300.388 79.4782L300.766 81.2548L301.093 83.0396L301.37 84.8316L301.595 86.6295L301.77 88.4321L301.896 90.2383L301.972 92.0469L302 93.8567L301.98 95.6668L301.912 97.4759L301.798 99.2831L301.637 101.087L301.432 102.888L301.183 104.683L300.89 106.472L300.555 108.255L300.179 110.03L299.762 111.796L299.306 113.554L298.812 115.301L298.28 117.037L297.711 118.763L297.107 120.476L296.469 122.176L295.797 123.863L295.093 125.536L294.358 127.196L293.593 128.84L292.8 130.469L291.979 132.083L291.132 133.681L290.26 135.263L289.364 136.828L288.446 138.377L287.506 139.909L286.547 141.425L285.569 142.923L284.573 144.405L283.561 145.87L282.533 147.318L281.492 148.749L280.438 150.164L279.372 151.562L278.296 152.944L277.21 154.31L276.115 155.661L275.013 156.995L273.904 158.315L272.789 159.62L271.67 160.911L270.547 162.187L269.42 163.45L268.29 164.699L267.159 165.936L266.026 167.16L264.893 168.373L263.76 169.574L262.626 170.764L261.493 171.943L260.362 173.112L259.231 174.272L258.102 175.422L256.975 176.563Z" stroke="black"/>
</g>
<mask id="mask0_780_16201" style="mask-type:alpha" maskUnits="userSpaceOnUse" x="24" y="20" width="278" height="210">
<path fill-rule="evenodd" clip-rule="evenodd" d="M256.975 176.563L255.849 177.696L254.725 178.821L253.604 179.938L252.484 181.048L251.365 182.151L250.249 183.247L249.133 184.336L248.019 185.42L246.906 186.497L245.793 187.568L244.68 188.634L243.568 189.693L242.454 190.748L241.34 191.797L240.224 192.84L239.106 193.877L237.985 194.909L236.862 195.935L235.735 196.954L234.604 197.968L233.468 198.975L232.327 199.975L231.18 200.969L230.027 201.954L228.867 202.932L227.699 203.902L226.524 204.863L225.34 205.815L224.148 206.757L222.945 207.689L221.734 208.61L220.511 209.519L219.279 210.417L218.035 211.302L216.78 212.174L215.513 213.032L214.235 213.875L212.945 214.703L211.642 215.516L210.327 216.311L209 217.09L207.66 217.851L206.307 218.593L204.943 219.316L203.565 220.02L202.176 220.703L200.775 221.366L199.362 222.007L197.937 222.626L196.501 223.223L195.055 223.798L193.597 224.349L192.13 224.876L190.652 225.38L189.166 225.859L187.67 226.313L186.166 226.742L184.654 227.146L183.134 227.524L181.608 227.876L180.075 228.201L178.536 228.5L176.992 228.772L175.444 229.017L173.891 229.236L172.335 229.427L170.776 229.59L169.215 229.727L167.652 229.836L166.089 229.918L164.525 229.972L162.962 230L161.4 230L159.84 229.973L158.282 229.92L156.728 229.84L155.177 229.733L153.63 229.601L152.089 229.443L150.553 229.259L149.023 229.05L147.501 228.817L145.986 228.559L144.478 228.278L142.98 227.973L141.49 227.645L140.01 227.295L138.541 226.923L137.082 226.529L135.633 226.115L134.197 225.681L132.772 225.228L131.359 224.756L129.959 224.265L128.572 223.758L127.198 223.233L125.838 222.692L124.491 222.136L123.158 221.565L121.839 220.98L120.534 220.382L119.244 219.771L117.968 219.148L116.706 218.514L115.459 217.869L114.226 217.214L113.008 216.551L111.804 215.879L110.614 215.199L109.439 214.512L108.278 213.819L107.13 213.121L105.996 212.417L104.875 211.709L103.768 210.997L102.673 210.281L101.591 209.564L100.521 208.844L99.4631 208.123L98.4167 207.401L97.3814 206.678L96.3568 205.956L95.3426 205.234L94.3383 204.513L93.3434 203.793L92.3575 203.076L91.38 202.36L90.4106 201.647L89.4488 200.937L88.4939 200.23L81.9659 195.383L81.0497 194.706L80.1364 194.033L79.2253 193.365L78.3161 192.7L77.4084 192.039L76.5018 191.381L75.596 190.727L74.6906 190.076L73.7854 189.428L72.8799 188.783L71.974 188.14L71.0675 187.499L70.16 186.86L69.2515 186.222L68.3418 185.585L61.9341 181.123L61.0132 180.479L60.0913 179.833L59.1685 179.183L58.2451 178.529L57.3212 177.87L56.3973 177.207L55.4736 176.538L54.5505 175.864L53.6284 175.183L52.7076 174.495L51.7887 173.8L50.8721 173.098L49.9584 172.387L49.048 171.668L48.1415 170.94L47.2395 170.202L46.3425 169.455L45.4512 168.699L44.5663 167.931L43.6883 167.154L42.8179 166.365L41.9559 165.566L41.1031 164.755L40.2602 163.933L39.4282 163.098L38.6079 162.252L37.8002 161.394L37.006 160.523L36.2265 159.64L35.4624 158.744L34.7148 157.835L33.9847 156.914L33.2731 155.981L32.581 155.035L31.9094 154.076L31.2593 153.105L30.6316 152.122L30.0273 151.127L29.4474 150.12L28.8926 149.102L28.364 148.073L27.8622 147.033L27.3882 145.983L26.9427 144.923L26.5263 143.854L26.1399 142.776L25.7839 141.69L25.459 140.597L25.1656 139.496L24.9043 138.388L24.6755 137.275L24.4795 136.157L24.3165 135.035L24.187 133.908L24.091 132.779L24.0286 131.648L24 130.514L24.0052 129.381L24.0441 128.247L24.1166 127.114L24.2226 125.982L24.362 124.853L24.5345 123.726L24.7398 122.604L24.9776 121.486L25.2476 120.372L25.5493 119.265L25.8824 118.164L26.2464 117.071L26.6409 115.985L27.0651 114.908L27.5187 113.84L28.0008 112.782L28.5108 111.734L29.0479 110.696L29.6111 109.671L30.1996 108.657L30.8125 107.655L31.4487 106.666L32.1072 105.69L32.7869 104.728L33.4867 103.779L34.2054 102.844L34.9418 101.923L35.6947 101.017L36.4629 100.125L37.2452 99.2471L38.0402 98.384L38.8467 97.5353L39.6634 96.701L40.4891 95.8809L41.3225 95.0748L42.1623 94.2826L43.0072 93.5039L43.8561 92.7384L44.7077 91.9858L45.5609 91.2457L46.4144 90.5177L47.2672 89.8012L48.1181 89.0957L48.9662 88.4008L49.8104 87.7157L50.6497 87.04L51.4832 86.373L52.3101 85.714L54.7432 83.7781L55.536 83.1441L56.3187 82.5146L57.0909 81.8887L57.852 81.2659L58.6019 80.6452L59.3402 80.0262L60.067 79.4081L60.7821 78.7902L61.4856 78.172L62.1776 77.5529L62.8583 76.9323L63.528 76.3098L64.1869 75.6848L64.8355 75.0569L65.4743 74.4257L66.1037 73.7909L66.7242 73.1522L67.3365 72.5093L67.9412 71.862L68.5389 71.2102L69.1304 70.5536L69.7164 69.8922L70.2976 69.226L70.8747 68.555L71.4486 67.8792L72.0201 67.1987L72.5899 66.5137L73.1588 65.8243L73.7276 65.1306L74.2971 64.4331L76.0174 62.3196L76.5972 61.6092L77.1814 60.8966L77.7707 60.182L78.3656 59.4659L78.9669 58.7488L79.5751 58.031L80.1908 57.3131L80.8145 56.5954L81.4466 55.8785L82.0876 55.1627L82.7379 54.4486L83.3979 53.7365L84.0679 53.027L84.7482 52.3203L85.4391 51.6169L86.1407 50.9172L86.8533 50.2216L87.577 49.5302L88.3119 48.8436L89.0581 48.1618L89.8156 47.4853L90.5846 46.8143L91.365 46.149L92.157 45.4898L92.9605 44.837L93.7756 44.1908L94.6023 43.5514L95.4404 42.9192L96.2901 42.2943L97.1513 41.6771L98.0239 41.0677L98.9078 40.4664L99.8031 39.8735L100.71 39.2891L101.627 38.7134L102.556 38.1468L103.496 37.5893L104.446 37.0412L105.407 36.5026L106.379 35.9738L107.362 35.4549L108.354 34.946L109.357 34.4474L110.37 33.9591L111.393 33.4814L112.426 33.0143L113.469 32.558L114.521 32.1126L115.582 31.6782L116.652 31.2548L117.732 30.8426L118.82 30.4416L119.917 30.0519L121.022 29.6735L122.136 29.3066L123.258 28.951L124.388 28.6069L125.526 28.2742L126.672 27.953L127.825 27.6431L128.986 27.3445L130.154 27.0571L131.329 26.7806L132.511 26.5147L133.7 26.2593L134.897 26.014L136.1 25.7784L137.309 25.5522L138.526 25.3349L139.75 25.1262L140.98 24.9256L142.218 24.7326L143.463 24.5467L144.715 24.3675L145.974 24.1945L147.241 24.0271L148.516 23.865L149.8 23.7076L151.091 23.5545L152.392 23.4053L153.702 23.2594L155.021 23.1166L156.35 22.9764L157.69 22.8385L159.04 22.7026L160.402 22.5684L161.775 22.4357L163.161 22.3043L164.559 22.174L165.971 22.0448L167.396 21.9166L168.836 21.7894L170.29 21.6633L171.76 21.5384L173.245 21.4149L174.746 21.293L176.263 21.1731L177.798 21.0554L179.349 20.9405L180.918 20.8288L182.505 20.7208L184.11 20.6172L185.733 20.5187L187.375 20.4259L189.034 20.3398L190.713 20.2611L192.409 20.1907L194.123 20.1297L195.856 20.0791L197.606 20.0399L199.373 20.0132L201.157 20L202.958 20.0014L204.774 20.0186L206.606 20.0526L208.452 20.1045L210.312 20.1754L212.185 20.2664L214.07 20.3785L215.966 20.5129L217.873 20.6706L219.789 20.8526L221.714 21.0598L223.645 21.2934L225.583 21.5541L227.525 21.843L229.471 22.1609L231.419 22.5086L233.368 22.887L235.317 23.2967L237.263 23.7385L239.207 24.2131L241.145 24.721L243.077 25.2628L245.001 25.839L246.916 26.45L248.82 27.0963L250.712 27.7781L252.59 28.4957L254.453 29.2494L256.298 30.0392L258.125 30.8652L259.932 31.7275L261.718 32.6261L263.48 33.5608L265.219 34.5315L266.931 35.5379L268.617 36.5799L270.273 37.6569L271.9 38.7688L273.496 39.915L275.059 41.0951L276.589 42.3086L278.083 43.5551L279.541 44.8338L280.962 46.1442L282.343 47.4857L283.685 48.8575L284.985 50.2589L286.244 51.6891L287.459 53.1473L288.629 54.6326L289.755 56.1441L290.834 57.6809L291.867 59.242L292.852 60.8264L293.788 62.4331L294.676 64.061L295.514 65.7089L296.301 67.3759L297.039 69.0606L297.725 70.7621L298.361 72.4791L298.945 74.2104L299.477 75.9548L299.958 77.7111L300.388 79.4782L300.766 81.2548L301.093 83.0396L301.37 84.8316L301.595 86.6295L301.77 88.4321L301.896 90.2383L301.972 92.0469L302 93.8567L301.98 95.6668L301.912 97.4759L301.798 99.2831L301.637 101.087L301.432 102.888L301.183 104.683L300.89 106.472L300.555 108.255L300.179 110.03L299.762 111.796L299.306 113.554L298.812 115.301L298.28 117.037L297.711 118.763L297.107 120.476L296.469 122.176L295.797 123.863L295.093 125.536L294.358 127.196L293.593 128.84L292.8 130.469L291.979 132.083L291.132 133.681L290.26 135.263L289.364 136.828L288.446 138.377L287.506 139.909L286.547 141.425L285.569 142.923L284.573 144.405L283.561 145.87L282.533 147.318L281.492 148.749L280.438 150.164L279.372 151.562L278.296 152.944L277.21 154.31L276.115 155.661L275.013 156.995L273.904 158.315L272.789 159.62L271.67 160.911L270.547 162.187L269.42 163.45L268.29 164.699L267.159 165.936L266.026 167.16L264.893 168.373L263.76 169.574L262.626 170.764L261.493 171.943L260.362 173.112L259.231 174.272L258.102 175.422L256.975 176.563Z" fill="url(#paint1_linear_780_16201)"/>
</mask>
<g mask="url(#mask0_780_16201)">
<path fill-rule="evenodd" clip-rule="evenodd" d="M86.0389 107.247C84.9426 105.981 84.248 104.107 84.248 102.016C84.248 98.7837 85.9087 96.0673 88.1473 95.3193C89.0154 92.2146 91.9849 89.9249 95.5104 89.9249C97.4118 89.9249 99.1514 90.5908 100.487 91.6915C100.976 91.8572 103.889 92.7655 106.765 91.9712C109.918 91.1005 119.815 90.2732 132.865 84.3952C139.131 81.5729 157.827 74.7728 157.827 74.7728C157.827 74.7728 169.377 73.0673 175.242 72.9261C175.839 72.7158 176.162 72.602 176.162 72.602C176.162 72.602 200.978 71.6913 219.462 80.4682C236.989 88.7903 233.3 92.5988 236.675 93.3305C240.303 94.1169 250.788 118.949 252.499 142.76C254.209 166.571 253.675 204.467 250.36 207.869C250.224 208.009 250.014 208.234 249.735 208.537C252.118 208.57 255.227 208.436 259.23 207.975C270.138 206.717 282.355 190.136 285.63 182.542C288.511 175.861 295.147 182.437 295.563 186.589C295.981 190.742 298.488 209.427 282.408 232.473C267.883 253.292 243.815 261.403 236.991 262.93L237.693 270.187L245.425 274.337L246.656 277.807L244.946 279.78L242.893 280.528L244.741 284.474L244.878 288.487L240.362 290.189L235.024 289.236L231.945 286.923L231.466 291.821L226.471 295.223L220.244 292.91L215.523 287.943L214.77 291.618L211.966 293.794L206.971 293.862L203.527 292.379L202.18 288.555L202.044 283.725L198.896 285.018L193.353 287.331H187.811L184.117 285.97L183.501 280.732L191.301 275.562L193.08 266.105L193.142 264.379C192.816 264.477 192.524 264.529 192.267 264.531C186.997 264.574 178.363 263.731 169.447 262.28C169.834 264.264 170.473 266.457 171.521 267.983C173.915 271.47 174.514 271.555 176.652 273.17C178.79 274.786 180.151 276.75 179.211 278.281C178.27 279.812 177.268 280.84 175.386 281.095C173.504 281.351 171.442 279.074 169.817 278.308C168.192 277.543 163.908 274.616 164.507 275.466C165.106 276.317 163.224 286.521 162.026 288.053C160.829 289.583 153.419 288.881 153.046 287.712C152.364 285.577 152.789 281.249 152.789 281.249L153.407 277.051L151.763 275.892L144.835 282.865L139.617 283.886L136.796 284.401L133.879 282.682L133.63 277.762L130.209 277.847L125.729 277.4L123.709 272.66L126.823 270.213L127.643 268.664L127.409 265.172L136.453 262.115L137.308 258.373L137.65 253.016L137.768 252.59C131.52 247.756 126.309 245.809 121.98 235.88C118.624 228.183 118.466 221.219 119.949 211.888L119.669 212.849C119.619 213.021 119.549 213.182 119.463 213.329C119.317 214.784 117.631 215.932 115.575 215.932C113.424 215.932 111.678 214.674 111.678 213.124C111.678 212.866 111.726 212.617 111.817 212.379C111.413 211.86 111.256 211.164 111.453 210.486L114.84 198.838L113.169 199.403L107.9 201.046L105.49 199.096L105.406 196.031L107.928 192.882L113.057 190.653L118.971 182.154L121.381 175.856L121.444 175.896L125.193 163.006C125.273 162.732 125.403 162.486 125.571 162.275C124.799 159.67 123.819 157.067 122.769 154.262C121.577 151.075 105.545 145.226 103.244 116.83C103.236 116.731 103.228 116.632 103.22 116.534C102.484 116.616 101.73 116.659 100.962 116.659C93.4646 116.659 87.2332 112.585 86.0389 107.247Z" fill="#ABB288"/>
<path fill-rule="evenodd" clip-rule="evenodd" d="M130.058 85.4475C135.057 83.2795 145.056 78.9436 150.968 76.9571C155.694 75.3693 161.241 74.2268 165.529 73.5283C169.211 72.9285 174.013 72.8752 176.696 72.7664C178.337 72.6998 179.987 72.7181 181.623 72.8752C186.531 73.3469 198.264 73.261 206.146 75.5965C217.635 79.0004 232.475 86.1402 239.469 97.3803C249.795 113.977 252.552 134.268 253.325 158.439C253.859 175.15 252.099 197.585 250.673 208.527C249.957 214.025 246.654 220.277 244.771 224.09C243.433 226.802 240.666 230.794 239.383 231.403C238.101 232.013 237.543 229.108 237.074 227.746C236.561 226.258 236.761 223.679 236.304 222.474C235.977 221.611 234.559 221.413 234.337 220.518C234.095 219.54 234.462 217.863 234.85 216.606C235.548 214.339 237.987 209.194 238.528 206.911C238.837 205.608 238.827 203.382 238.101 202.915C237.374 202.447 235.135 204.389 234.166 204.105C233.197 203.821 232.164 202.356 232.284 201.214C232.484 199.314 234.152 195.049 235.363 192.71C236.426 190.658 238.956 189.294 239.554 187.183C240.153 185.07 239.469 181.824 238.956 180.039C238.556 178.648 236.732 177.644 236.475 176.467C236.218 175.291 236.899 174.068 237.416 172.981C238.286 171.152 240.98 167.368 241.692 165.497C242.137 164.331 241.921 162.804 241.692 161.755C241.488 160.813 240.703 160.091 240.324 159.204C239.882 158.17 239.654 156.511 239.041 155.548C238.469 154.648 237.674 153.715 236.646 153.422C235.406 153.067 232.968 153.79 231.6 153.422C230.355 153.086 229.167 152.266 228.435 151.211C227.68 150.119 226.925 148.093 227.067 146.874C227.209 145.655 228.469 144.824 229.29 143.897C230.674 142.338 234.009 139.347 235.363 137.519C236.362 136.17 237.268 134.596 237.416 132.927C237.573 131.155 236.903 128.391 236.304 126.889C235.827 125.691 234.807 124.38 233.823 123.913C232.84 123.445 231.401 123.799 230.402 124.083C229.443 124.355 228.791 125.599 227.837 125.614C226.881 125.628 225.499 124.749 224.672 124.168C223.929 123.646 223.632 122.628 222.875 122.127C221.978 121.532 220.283 121.427 219.284 120.596C218.243 119.732 216.675 118.399 216.632 116.939C216.59 115.48 218.115 113.254 219.027 111.837C219.854 110.552 220.851 109.144 222.106 108.435C223.361 107.727 225.67 108.308 226.554 107.585C227.437 106.862 227.509 105.289 227.409 104.098C227.309 102.908 227.025 101.207 225.955 100.442C224.786 99.6055 221.75 100.087 220.396 99.0811C219.041 98.0748 218.157 95.8212 217.829 94.4039C217.538 93.1458 218.315 91.7535 218.429 90.5771C218.532 89.5046 219.073 88.2685 218.513 87.3456C217.844 86.2401 215.862 84.6243 214.408 83.944C213 83.2851 211.03 83.703 209.789 83.2636C208.709 82.881 208.11 81.3942 206.967 81.3078C202.091 80.9393 185.812 80.9818 180.538 81.0527C178.784 81.0762 176.718 81.4495 175.321 81.733C174.234 81.9534 173.236 82.5039 172.156 82.7534C170.745 83.0794 168.493 83.6605 166.853 83.6889C165.32 83.7154 163.717 82.9802 162.32 82.9236C161.03 82.8712 159.654 82.9094 158.471 83.3487C157.288 83.7881 156.063 84.5582 155.221 85.5597C154.352 86.5944 154.48 88.8763 153.254 89.5567C152.027 90.2369 149.662 89.6602 147.865 89.6417C145.827 89.6207 143.098 89.2504 141.026 89.4308C139.12 89.5966 137.283 90.6684 135.436 90.7234C133.588 90.7783 130.838 90.64 129.941 89.7607C129.045 88.8814 129.72 86.5921 130.058 85.4475ZM234.985 172.002C234.588 172.341 233.968 172.447 233.453 172.351C232.913 172.249 232.201 171.858 231.746 171.393C231.227 170.863 230.672 169.983 230.344 169.172C230.001 168.323 229.716 167.111 229.687 166.299C229.663 165.613 230.001 164.854 230.169 164.296C230.308 163.833 230.453 163.309 230.694 162.946C230.922 162.603 231.249 162.311 231.614 162.118C232.124 161.85 233.066 161.291 233.759 161.335C234.453 161.379 235.292 161.886 235.774 162.379C236.256 162.873 236.516 163.607 236.65 164.296C236.811 165.123 236.767 166.429 236.737 167.343C236.711 168.161 236.762 169.016 236.474 169.782C236.183 170.558 235.49 171.574 234.985 172.002ZM216.821 108.271C216.309 108.408 215.62 108.403 215.051 108.248C214.393 108.07 213.388 107.747 212.875 107.201C212.363 106.655 212.136 105.718 211.978 104.972C211.824 104.237 211.717 103.303 211.934 102.72C212.146 102.148 212.827 101.68 213.279 101.472C213.693 101.281 214.196 101.4 214.647 101.472C215.413 101.594 217.132 101.903 217.875 102.207C218.385 102.416 218.802 102.876 219.108 103.3C219.415 103.723 219.684 104.269 219.714 104.749C219.744 105.228 219.542 105.748 219.288 106.175C219.023 106.621 218.533 107.074 218.122 107.424C217.728 107.758 217.322 108.136 216.821 108.271ZM210.804 128.175C210.562 128.168 210.327 128.022 210.154 127.854C209.873 127.581 209.257 127.078 209.123 126.539C208.857 125.48 208.308 122.827 208.561 121.5C208.786 120.328 209.788 119.089 210.647 118.58C211.506 118.071 212.866 118.153 213.719 118.446C214.571 118.74 215.333 119.519 215.76 120.341C216.323 121.43 217.004 123.837 217.105 124.978C217.173 125.75 216.686 126.68 216.365 127.185C216.106 127.591 215.651 127.925 215.176 128.01C214.25 128.175 211.641 128.201 210.804 128.175ZM231.227 173.533C231.649 173.432 232.217 173.39 232.572 173.461C232.878 173.522 233.165 173.72 233.362 173.961C233.598 174.249 233.912 174.742 233.989 175.191C234.067 175.641 233.967 176.183 233.829 176.654C233.663 177.21 233.314 178.137 233.003 178.527C232.767 178.822 232.328 178.966 231.963 178.99C231.598 179.014 231.162 178.861 230.814 178.669C230.417 178.449 229.845 178.127 229.577 177.67C229.296 177.192 229.051 176.398 229.128 175.798C229.206 175.197 229.694 174.446 230.043 174.068C230.337 173.751 230.806 173.634 231.227 173.533ZM227.59 191.013C227.758 190.633 228.285 190.424 228.702 190.442C229.23 190.466 230.162 190.778 230.753 191.155C231.345 191.533 231.98 192.294 232.254 192.708C232.427 192.968 232.495 193.338 232.398 193.634C232.203 194.223 231.492 195.665 231.088 196.238C230.821 196.617 230.407 196.905 229.976 197.077C229.537 197.252 228.873 197.484 228.451 197.291C228.03 197.097 227.683 196.428 227.447 195.918C227.211 195.406 227.017 194.804 227.034 194.223C227.058 193.406 227.312 191.643 227.59 191.013ZM232.986 181.642C233.473 181.241 234.309 181.167 234.87 181.419C235.431 181.672 236.056 182.457 236.35 183.159C236.667 183.916 236.738 185.053 236.776 185.967C236.812 186.86 236.865 187.988 236.574 188.642C236.305 189.246 235.498 189.675 235.027 189.891C234.64 190.068 234.115 190.087 233.749 189.935C233.382 189.783 233.096 189.33 232.83 188.977C232.505 188.546 231.959 187.97 231.798 187.349C231.589 186.543 231.376 185.09 231.574 184.139C231.769 183.204 232.437 182.096 232.986 181.642ZM216.999 140.896C216.513 140.382 216.423 139.504 216.326 138.89C216.238 138.339 216.439 137.776 216.415 137.219C216.389 136.605 216.187 135.885 216.168 135.212C216.149 134.513 216.094 133.727 216.303 133.027C216.546 132.214 217.133 131.006 217.626 130.33C218.043 129.758 218.736 129.186 219.263 128.97C219.733 128.778 220.295 128.908 220.787 129.037C221.523 129.23 222.783 129.791 223.68 130.129C224.509 130.442 225.59 130.791 226.169 131.066C226.535 131.24 226.929 131.443 227.155 131.779C227.436 132.195 227.758 132.932 227.851 133.563C227.966 134.353 227.891 135.595 227.851 136.528C227.812 137.407 227.828 138.456 227.603 139.158C227.409 139.769 226.987 140.328 226.505 140.741C226.023 141.153 225.344 141.419 224.711 141.632C223.937 141.893 222.749 142.216 221.864 142.301C221.043 142.38 220.188 142.373 219.397 142.146C218.586 141.911 217.51 141.439 216.999 140.896ZM215.991 92.2782C215.202 92.5928 214.941 92.6995 214.44 92.7134C211.389 92.7977 211.183 91.1035 210.324 90.0933C209.511 89.1355 209.717 87.1732 210.324 86.3315C210.931 85.4897 212.969 84.8743 213.968 85.0427C214.967 85.211 215.807 86.4534 216.315 87.3416C216.823 88.2298 217.156 89.5303 217.016 90.3721C216.877 91.2059 216.964 91.8901 215.991 92.2782ZM225.975 162.816C225.196 162.477 224.937 162.367 224.575 162.022C222.375 159.918 223.445 158.584 223.568 157.268C223.684 156.019 225.236 154.789 226.266 154.63C227.295 154.47 229.165 155.482 229.744 156.309C230.324 157.134 230.022 158.601 229.742 159.585C229.461 160.567 228.763 161.715 228.061 162.206C227.365 162.692 226.936 163.234 225.975 162.816ZM233.6 206.482C234.292 206.974 234.523 207.135 234.804 207.547C236.518 210.059 235.192 211.143 234.798 212.406C234.423 213.604 232.649 214.486 231.608 214.431C230.568 214.375 228.95 212.998 228.555 212.071C228.161 211.143 228.762 209.77 229.241 208.866C229.721 207.962 230.644 206.984 231.434 206.648C232.215 206.316 232.748 205.875 233.6 206.482ZM213.133 137.716C212.942 138.42 212.127 139.023 211.396 139.054C210.517 139.092 208.593 138.427 207.864 137.94C207.309 137.569 207.004 136.793 207.023 136.129C207.047 135.302 207.551 133.658 208.004 132.98C208.367 132.436 209.089 132.128 209.742 132.06C210.41 131.99 211.507 132.237 212.012 132.562C212.471 132.858 212.653 133.478 212.769 134.01C212.956 134.87 213.362 136.877 213.133 137.716ZM229.033 130.838C228.546 130.723 228.055 130.376 227.844 129.924C227.624 129.448 227.595 128.486 227.71 127.984C227.812 127.545 228.139 127.125 228.54 126.914C229.134 126.602 230.517 126.182 231.275 126.112C231.891 126.054 232.639 126.219 233.091 126.491C233.532 126.755 233.92 127.232 233.989 127.739C234.066 128.322 233.857 129.456 233.562 129.991C233.297 130.472 232.759 130.848 232.217 130.949C231.462 131.09 229.762 131.009 229.033 130.838Z" fill="#838A60"/>
<path fill-rule="evenodd" clip-rule="evenodd" d="M191.462 216.116C191.963 216.016 193.157 216.46 193.925 216.171C194.719 215.871 195.493 214.978 196.224 214.32C197.1 213.531 198.35 212.279 199.18 211.436C199.875 210.729 200.904 208.95 201.205 209.259C201.506 209.567 201.479 212.134 200.986 213.286C200.494 214.438 198.988 215.49 198.249 216.171C197.741 216.639 197.188 217.091 196.553 217.368C195.823 217.685 194.701 218.366 193.87 218.493C193.112 218.609 192.064 218.347 191.571 218.13C191.109 217.925 190.932 217.105 190.914 216.769C190.899 216.486 191.182 216.171 191.462 216.116Z" fill="#8F9970"/>
<path fill-rule="evenodd" clip-rule="evenodd" d="M188.177 198.302C188.862 198.217 190.344 198.174 191.342 198.047C192.291 197.926 193.366 197.523 194.164 197.536C194.85 197.549 195.775 197.834 196.131 198.132C196.44 198.39 196.466 198.956 196.303 199.323C196.032 199.932 195.449 201.398 194.507 201.788C193.481 202.214 191.213 202.015 190.145 201.873C189.399 201.775 188.576 201.491 188.092 200.938C187.607 200.385 187.222 198.996 187.236 198.557C187.247 198.235 187.854 198.342 188.177 198.302Z" fill="#8F9970"/>
<path fill-rule="evenodd" clip-rule="evenodd" d="M201.429 220.6C201.72 220.237 204.57 220.964 205.146 220.46C205.757 219.925 206.287 219.024 206.734 218.229C207.253 217.304 207.737 215.951 208.266 214.909C208.773 213.908 209.562 212.015 209.909 211.969C210.255 211.925 210.518 213.752 210.346 214.637C210.127 215.761 209.506 217.523 208.886 218.629C208.36 219.567 207.688 220.74 207.05 221.366C206.523 221.881 205.502 222.871 204.965 223.098C204.541 223.277 203.648 223.379 202.788 223.106C201.337 222.642 201.169 220.923 201.429 220.6Z" fill="#8F9970"/>
<path fill-rule="evenodd" clip-rule="evenodd" d="M213.411 218.065C214.05 217.92 215.761 217.988 216.313 217.14C216.979 216.116 217.086 213.666 217.407 211.915C217.855 209.484 218.42 204.922 218.995 202.554C219.403 200.874 220.272 199.338 220.856 197.71C221.467 196.005 222.108 194.134 222.663 192.323C223.228 190.472 224.068 186.308 224.25 186.608C224.433 186.907 224.146 191.639 223.757 194.119C223.356 196.676 222.298 199.651 221.841 201.955C221.451 203.932 221.288 205.946 221.02 207.943C220.747 209.984 220.491 212.559 220.199 214.201C219.982 215.418 219.734 216.841 219.268 217.794C218.856 218.638 218.236 219.466 217.407 219.916C216.522 220.397 214.771 220.768 213.958 220.678C213.317 220.607 212.782 219.817 212.535 219.371C212.316 218.974 212.335 218.229 212.481 218.011C212.627 217.794 213.109 218.134 213.411 218.065Z" fill="#8F9970"/>
<path fill-rule="evenodd" clip-rule="evenodd" d="M193.134 264.578L193.142 264.379C192.816 264.477 192.524 264.529 192.267 264.531C186.997 264.574 178.363 263.731 169.447 262.28C169.834 264.264 170.473 266.457 171.521 267.983C173.915 271.47 174.514 271.555 176.652 273.17C178.79 274.786 180.151 276.75 179.211 278.281C178.27 279.812 177.268 280.84 175.386 281.095C173.504 281.351 171.442 279.074 169.817 278.308C168.192 277.543 163.908 274.616 164.507 275.466C165.106 276.317 163.224 286.521 162.026 288.052C160.829 289.583 153.419 288.881 153.046 287.712C152.364 285.577 152.789 281.249 152.789 281.249L153.407 277.051L151.763 275.892L144.835 282.865L139.617 283.886L136.796 284.401L133.879 282.682L133.63 277.762L130.209 277.847L125.729 277.399L123.709 272.66L126.823 270.213L127.643 268.664L127.409 265.172L136.453 262.115L137.308 258.373L137.65 253.016L137.768 252.59C131.52 247.756 126.309 245.809 121.98 235.88C121.649 235.122 121.35 234.371 121.08 233.624C121.226 233.509 121.371 233.393 121.513 233.275C124.676 236.553 127.241 240.529 131.002 243.108C134.878 245.765 139.955 247.781 144.767 249.22C150.246 250.859 157.447 252.062 163.878 252.941C170.359 253.827 177.049 254.23 183.657 254.536C186.532 254.668 189.853 254.824 193.352 254.957C193.422 256.972 193.522 259.899 193.403 261.892C193.349 262.783 193.257 263.684 193.134 264.578ZM236.761 253.367C237.429 253.235 238.082 253.094 238.717 252.941C245.342 251.344 251.48 247.803 257.293 244.437C263.083 241.084 268.942 236.686 273.597 232.744C277.843 229.149 282.186 225.434 285.224 220.785C288.364 215.98 290.57 209.336 292.441 203.911C293.975 199.462 294.493 192.246 295.812 189.254C296.318 196.208 296.174 212.743 282.408 232.473C267.883 253.292 243.815 261.403 236.991 262.93L237.595 269.173C237.285 268.354 237.036 267.469 236.938 266.655C236.624 264.061 236.824 258.647 236.767 255.769C236.752 255.028 236.758 254.195 236.761 253.367ZM238.142 270.428L245.425 274.337L246.656 277.807L244.946 279.78L242.893 280.528L242.957 280.665C242.565 280.148 241.885 279.716 241.385 279.325C240.316 278.49 237.094 276.987 236.852 276.604C236.609 276.222 239.048 277.086 239.931 277.029C240.714 276.979 241.656 276.561 242.155 276.264C242.522 276.046 243.06 275.647 242.925 275.243C242.753 274.733 241.798 273.815 241.129 273.203C240.415 272.551 239.205 272.202 238.648 271.332C238.483 271.073 238.311 270.766 238.142 270.428ZM243.258 281.308L244.741 284.474L244.878 288.487L240.362 290.189L235.024 289.236L231.945 286.923L231.466 291.821L226.471 295.223L220.244 292.91L215.523 287.943L214.77 291.618L211.966 293.794L206.971 293.862L203.527 292.379L202.18 288.555L202.044 283.725L198.896 285.018L193.353 287.331H187.811L184.117 285.97L183.501 280.732L188.402 277.484C188.805 278.189 189.705 278.894 190.494 279.07C191.891 279.382 194.942 278.857 196.567 278.645C197.815 278.482 199.051 278.046 199.779 278.258C200.496 278.468 200.667 279.224 200.929 279.921C201.371 281.097 201.84 282.774 202.609 283.455C203.379 284.135 206.403 286.483 207.686 286.894C208.619 287.193 209.753 287.262 210.594 287.319C211.306 287.367 212.08 287.042 212.632 286.592C213.345 286.011 213.901 283.804 214.871 283.832C215.84 283.861 217.084 286.519 218.548 287.404C220.33 288.481 222.911 290.295 225.562 290.295C226.516 290.295 226.931 290.326 227.094 290.356C227.02 290.435 227.338 290.399 227.094 290.356C227.109 290.34 227.137 290.32 227.187 290.295C228.1 289.841 230.451 288.495 231.036 287.575C231.542 286.777 231.25 285.531 230.693 284.768C229.568 283.223 224.307 278.503 224.279 278.305C224.25 278.106 229.054 282.415 230.523 283.577C231.327 284.214 232.092 285.025 233.088 285.278C234.372 285.604 236.681 285.534 238.22 285.534C239.76 285.534 240.043 285.703 240.701 285.193C241.542 284.541 243.153 282.6 243.267 281.621C243.279 281.514 243.276 281.409 243.258 281.308Z" fill="#8F9970"/>
<path fill-rule="evenodd" clip-rule="evenodd" d="M129.505 98.9631C129.549 98.9925 129.553 99.151 129.533 99.2945C129.057 102.633 126.193 105.508 121.453 105.508C116.884 105.508 114.365 103.371 113.671 100.205C113.623 99.9859 113.611 99.734 113.676 99.6852C113.74 99.6363 113.888 99.7907 114.057 99.9123C116.104 101.385 117.924 102.039 121.385 102.039C125.03 102.039 127.229 100.729 129.265 99.1183C129.372 99.0339 129.46 98.9338 129.505 98.9631Z" fill="#8F9970"/>
<path fill-rule="evenodd" clip-rule="evenodd" d="M142.035 122.822C141.025 122.842 140.011 122.852 138.994 122.852C131.209 122.852 117.096 122.348 110.585 121.605C108.091 121.321 105.939 120.931 104.083 120.459L104.001 120.438V116.582L109.572 117.494L127.619 118.26L153.791 116.729L176.257 114.024L187.062 109.841L188.378 106.916C189.636 107.881 190.313 108.892 190.313 109.926C190.313 113.003 183.82 116.32 173.915 118.823C173.195 122.026 171.947 125.897 170.076 126.203C168.331 126.489 166.863 123.396 166.019 120.509C164.525 120.776 162.984 121.025 161.405 121.253C160.795 124.117 159.73 127.292 157.989 127.577C156.295 127.855 154.862 124.947 154.007 122.135C152.476 122.281 150.922 122.406 149.349 122.51C148.724 125.235 147.684 128.075 146.041 128.344C144.331 128.624 142.886 125.658 142.035 122.822Z" fill="#8F9970"/>
<path fill-rule="evenodd" clip-rule="evenodd" d="M107.25 193.813L112.176 190.547L116.181 186.034L118.526 182.275L120.99 176.288L125.204 162.41L126.19 167.961L126.463 177.105L125.971 186.956L124.055 195.663L121.318 204.862L119.128 212.427L117.048 215.311L114.421 216.345L111.793 213.842L111.684 209.923L115.735 197.841L114.092 199.093L110.096 200.29L107.469 200.943L105.389 198.712L105.717 196.045L107.25 193.813Z" fill="#8F9970"/>
<path fill-rule="evenodd" clip-rule="evenodd" d="M139.495 117.975L148.016 117.485C148.016 117.485 147.141 126.313 144.002 126.758C140.863 127.204 138.643 117.886 139.495 117.975Z" fill="#FDFFDD"/>
<path fill-rule="evenodd" clip-rule="evenodd" d="M151.11 117.329L159.63 116.838C159.63 116.838 158.756 125.666 155.616 126.112C152.478 126.558 150.258 117.239 151.11 117.329Z" fill="#FDFFDD"/>
<path fill-rule="evenodd" clip-rule="evenodd" d="M162.859 116.169L171.841 115.099C171.841 115.099 170.505 124.507 167.365 124.953C164.226 125.399 162.007 116.08 162.859 116.169Z" fill="#FDFFDD"/>
<path fill-rule="evenodd" clip-rule="evenodd" d="M182.788 89.3353C181.05 87.0127 180.017 84.1109 180.017 80.9646C180.017 73.3469 186.071 67.1622 193.527 67.1622C200.983 67.1622 207.037 73.3469 207.037 80.9646C207.037 84.1732 205.962 87.1275 204.162 89.4726C201.009 88.7184 197.233 88.2793 193.176 88.2793C189.373 88.2793 185.816 88.6654 182.788 89.3353Z" fill="white"/>
<path fill-rule="evenodd" clip-rule="evenodd" d="M130.899 85.1361C130.49 83.8197 130.27 82.4183 130.27 80.9646C130.27 73.3469 136.323 67.1622 143.779 67.1622C149.235 67.1622 153.94 70.4731 156.071 75.2335L149.669 77.1766L138.371 82.1837L130.899 85.1361Z" fill="white"/>
<path d="M194.139 85.4807C196.475 85.4807 198.369 83.042 198.369 80.0337C198.369 77.0255 196.475 74.5868 194.139 74.5868C191.802 74.5868 189.908 77.0255 189.908 80.0337C189.908 83.042 191.802 85.4807 194.139 85.4807Z" fill="black"/>
<path d="M191.279 79.4306C192.34 79.4306 193.2 78.5754 193.2 77.5204C193.2 76.4654 192.34 75.6102 191.279 75.6102C190.218 75.6102 189.358 76.4654 189.358 77.5204C189.358 78.5754 190.218 79.4306 191.279 79.4306Z" fill="white"/>
<path fill-rule="evenodd" clip-rule="evenodd" d="M138.905 81.1877C138.742 80.6084 138.654 79.9836 138.654 79.3322C138.654 76.3259 140.549 73.8853 142.884 73.8853C144.888 73.8853 146.569 75.6837 147.004 78.0944C145.924 78.3247 143.964 79.4202 142.832 79.8112C141.072 80.419 140.452 80.7259 138.905 81.1877Z" fill="black"/>
<path d="M140.025 78.7291C141.086 78.7291 141.946 77.8738 141.946 76.8189C141.946 75.7639 141.086 74.9087 140.025 74.9087C138.964 74.9087 138.103 75.7639 138.103 76.8189C138.103 77.8738 138.964 78.7291 140.025 78.7291Z" fill="white"/>
<path fill-rule="evenodd" clip-rule="evenodd" d="M156.346 74.5722C163.963 72.6402 174.37 70.8952 181.816 72.3888C181.899 72.4055 181.975 72.4374 182.042 72.481C184.623 69.0111 188.769 66.7596 193.439 66.7596C199.132 66.7596 204.045 70.1054 206.296 74.9254C206.339 74.924 206.383 74.9269 206.428 74.9346C206.428 74.9346 233.582 79.5963 245.001 105.834C256.214 131.601 255.84 185.716 251.309 207.634C253.687 208.122 263.161 209.235 273.087 199.032C279.166 192.783 282.345 186.84 284.484 183.221C285.462 181.566 286.254 180.38 286.98 179.805C288.12 178.902 289.583 178.832 291.001 179.347C292.974 180.065 294.839 181.939 295.426 183.974C296.388 187.305 300.25 204.22 286.544 227.686C273.122 250.664 243.867 262.468 237.431 263.735C237.449 264.014 237.468 264.289 237.489 264.559C237.629 266.342 237.832 267.911 238.13 269.038C238.296 269.666 238.468 270.142 238.709 270.386C240.124 271.81 242.446 272.49 244.209 273.15C245 273.447 245.69 273.74 246.182 274.068C246.607 274.352 246.9 274.673 247.053 275.021C247.543 276.133 247.696 277.898 246.747 279.175C246.214 279.893 245.332 280.484 243.927 280.688C244.704 281.777 245.555 283.615 245.78 285.417C245.968 286.907 245.727 288.359 244.795 289.39C244.17 290.083 243.228 290.603 241.852 290.792C237.677 291.366 234.423 289.605 232.71 288.359C232.733 290.79 231.837 294.252 227.405 295.512C224.855 296.236 222.345 295.24 220.265 293.734C218.512 292.464 217.069 290.846 216.181 289.731C215.99 290.597 215.67 291.401 215.179 292.035C213.096 294.729 211.301 294.961 208.523 295.03C205.744 295.098 203.845 293.618 202.108 291.545C201.65 290.999 201.4 290.223 201.299 289.351C201.167 288.212 201.282 286.902 201.358 285.877C201.378 285.614 201.385 285.321 201.387 285.082C199.511 285.866 194.501 287.874 191.756 288.385C188.536 288.986 185.31 287.421 184.035 286.954C183.51 286.761 183.09 286.165 182.89 285.31C182.538 283.811 182.737 281.487 182.93 280.814C183.037 280.443 183.295 280.093 183.83 279.684C184.73 278.994 186.589 277.968 189.956 275.378C190.455 274.995 190.83 274.28 191.149 273.345C191.689 271.762 192.016 269.581 192.203 267.114C192.247 266.532 192.283 265.933 192.312 265.323C184.794 265.432 177.188 264.62 170.8 263.615C170.981 264.351 171.342 265.552 171.915 266.832C172.784 268.774 174.14 270.914 176.192 271.843C178.126 272.718 179.13 273.75 179.65 274.717C180.449 276.202 180.124 277.577 180.035 278.214C179.972 278.66 179.38 279.706 178.394 280.559C176.939 281.817 174.719 282.686 172.511 280.838C170.187 278.894 166.84 277.358 165.336 276.721C165.26 279.103 164.885 282.436 164.244 284.88C163.874 286.288 163.394 287.41 162.865 287.971C161.979 288.909 161.2 289.505 160.274 289.82C158.939 290.275 157.261 290.137 154.357 289.437C152.74 289.046 151.9 287.636 151.614 285.783C151.148 282.76 152.154 278.534 152.566 276.991L151.775 276.714C150.778 277.888 147.46 281.712 145.361 283.126C142.783 284.863 139.291 285.378 135.797 284.634C134.204 284.294 133.368 283.083 133.023 281.647C132.758 280.542 132.801 279.315 132.96 278.336C131.669 278.74 129.065 279.16 126.64 278.372C125.031 277.848 124.086 276.634 123.567 275.355C123.07 274.131 122.972 272.857 123.015 272.156C123.032 271.88 123.155 271.587 123.401 271.303C123.645 271.023 124.031 270.732 124.498 270.459C125.14 270.085 125.946 269.731 126.681 269.443C126.48 269.075 126.361 268.632 126.312 268.144C126.229 267.31 126.345 266.335 126.468 265.482C126.503 265.241 126.635 264.98 126.901 264.735C127.252 264.413 127.917 264.069 128.762 263.733C130.265 263.136 132.377 262.513 134.021 261.859C134.979 261.479 135.776 261.122 136.09 260.715C136.426 260.281 136.592 259.43 136.709 258.465C136.974 256.281 136.853 253.531 136.815 252.826C130.985 249.187 122.797 242.324 119.483 231.125C118.144 226.6 117.598 221.366 118.33 215.347C117.863 215.817 117.265 216.248 116.483 216.592C114.788 217.336 113.466 216.754 112.53 215.755C111.676 214.843 111.171 213.555 111.027 212.732C110.969 212.403 111.066 211.586 111.301 210.495C111.948 207.501 113.531 202.174 114.236 199.846C112.417 200.35 110.49 200.798 109.084 201.357C107.888 201.832 106.556 201.474 105.596 200.565C103.601 198.676 103.091 194.112 110.255 191.045C112.919 189.905 115.238 186.843 117.225 183.155C121.822 174.626 124.527 162.705 124.734 161.773C123.628 156.851 122.18 154.058 121.789 153.362C103.463 140.804 103.102 120.056 103.119 117.783C99.1149 117.296 95.6987 116.648 93.1152 115.83C90.6687 115.055 88.946 114.102 88.0956 113.027C84.6514 108.673 83.804 104.885 83.9995 101.916C84.2676 97.8418 86.513 95.2689 86.9768 94.7782C87.3218 94.0922 89.3686 90.3454 93.3217 89.4489C95.1823 89.0269 97.4722 89.2196 100.207 90.6909C102.137 91.7294 105.466 91.6116 109.479 90.8877C115.572 89.7885 123.183 87.2194 130.004 84.6063C129.67 83.4091 129.492 82.1481 129.492 80.8461C129.492 73.0716 135.841 66.7596 143.66 66.7596C149.213 66.7596 154.024 69.9426 156.346 74.5722ZM155.061 74.9066C152.908 70.8314 148.608 68.0491 143.66 68.0491C136.556 68.0491 130.789 73.7832 130.789 80.8461C130.789 81.9836 130.939 83.0867 131.219 84.137C138.953 81.1285 145.461 78.1703 147.254 77.4106C148.631 76.8267 151.465 75.8667 155.061 74.9066ZM159.326 117.189C156.715 117.471 154.014 117.722 151.256 117.939C151.496 119.013 152.227 121.972 153.402 123.992C153.69 124.487 154.004 124.924 154.348 125.248C154.627 125.509 154.918 125.697 155.24 125.741C155.516 125.779 155.772 125.66 156.019 125.467C156.364 125.197 156.68 124.787 156.977 124.299C158.057 122.52 158.824 119.755 159.168 118.056C159.237 117.71 159.292 117.414 159.326 117.189ZM161.551 116.938C161.247 116.974 160.943 117.009 160.636 117.044C160.608 117.352 160.544 117.789 160.439 118.31C160.073 120.123 159.24 123.068 158.086 124.966C157.239 126.358 156.167 127.17 155.062 127.018C154.007 126.873 153.041 125.947 152.28 124.637C150.961 122.371 150.16 118.994 149.951 118.038C149.602 118.064 149.253 118.09 148.903 118.115C148.874 118.406 148.816 118.796 148.725 119.254C148.38 120.981 147.584 123.765 146.454 125.553C145.625 126.865 144.574 127.629 143.464 127.477C142.409 127.333 141.444 126.406 140.682 125.097C139.44 122.963 138.658 119.844 138.396 118.689C127.365 119.117 116.327 118.998 107.4 118.225C106.376 118.137 105.38 118.039 104.415 117.933C104.418 120.635 105.051 140.241 122.459 152.242C122.563 152.279 122.658 152.342 122.733 152.429C126.625 155.068 131.344 157.328 137.064 158.943C137.408 159.041 137.608 159.398 137.511 159.74C137.413 160.083 137.054 160.281 136.71 160.184C131.73 158.778 127.487 156.897 123.873 154.705C126.292 160.379 131.234 177.083 121.979 205.189C121.289 207.286 120.744 209.304 120.332 211.245C120.338 211.349 120.319 211.455 120.271 211.557L120.263 211.574C118.72 219.072 119.149 225.425 120.728 230.761C125.407 246.575 140.149 253.436 143.168 254.722C143.497 254.863 143.649 255.242 143.509 255.569C143.367 255.897 142.986 256.048 142.657 255.908C141.844 255.561 140.207 254.821 138.146 253.627C138.185 254.844 138.205 256.9 137.997 258.62C137.846 259.865 137.552 260.941 137.118 261.502C136.804 261.907 136.159 262.328 135.31 262.715C133.601 263.493 131.005 264.23 129.244 264.93C128.75 265.127 128.326 265.318 128.02 265.508C127.912 265.576 127.785 265.687 127.743 265.725C127.638 266.465 127.531 267.299 127.603 268.016C127.641 268.397 127.721 268.743 127.926 268.983L127.927 268.985C128.319 268.85 128.598 268.762 128.678 268.738L136.882 265.584C137.215 265.456 137.591 265.621 137.72 265.953C137.849 266.286 137.683 266.659 137.349 266.788L129.125 269.949C129.111 269.954 129.096 269.959 129.081 269.963C129.081 269.963 126.643 270.702 125.155 271.571C124.875 271.734 124.632 271.899 124.458 272.068C124.395 272.128 124.322 272.233 124.309 272.253C124.276 272.836 124.364 273.874 124.77 274.873C125.157 275.827 125.841 276.756 127.043 277.146C129.621 277.984 132.441 277.283 132.995 276.947C133.109 276.878 133.237 276.848 133.362 276.854C133.399 276.772 133.437 276.702 133.473 276.647C134.085 275.721 142.541 268.136 142.541 268.136C142.807 267.898 143.218 267.92 143.457 268.185C143.696 268.449 143.674 268.857 143.408 269.095C143.408 269.095 135.153 276.454 134.557 277.356C134.439 277.533 134.333 277.925 134.246 278.417C134.099 279.254 134.047 280.361 134.284 281.347C134.513 282.298 135.013 283.147 136.069 283.372C139.196 284.039 142.326 283.613 144.634 282.058C147.029 280.445 151.066 275.547 151.066 275.547C151.239 275.338 151.525 275.258 151.783 275.348L153.569 275.976C153.896 276.09 154.075 276.44 153.974 276.77C153.974 276.77 152.782 280.676 152.787 284.031C152.789 285.084 152.905 286.081 153.241 286.864C153.522 287.52 153.963 288.014 154.663 288.183C157.214 288.799 158.682 289 159.854 288.6C160.599 288.347 161.207 287.843 161.919 287.089C162.29 286.695 162.591 285.939 162.865 285.003C163.573 282.58 163.978 279.004 164.043 276.555C164.071 275.526 163.945 274.401 163.926 274.237C163.748 274.034 163.711 273.733 163.856 273.488C164.037 273.181 164.435 273.078 164.744 273.259L164.868 273.348L164.993 273.487L165.148 273.795C165.242 274.063 165.312 274.545 165.338 275.182C165.339 275.231 165.341 275.279 165.342 275.328C166.518 275.807 170.608 277.561 173.346 279.852C174.922 281.171 176.503 280.485 177.543 279.587C177.985 279.203 178.337 278.778 178.556 278.426C178.658 278.263 178.737 278.129 178.75 278.037C178.819 277.544 179.124 276.474 178.506 275.325C178.082 274.537 177.232 273.73 175.655 273.017C173.319 271.96 171.719 269.568 170.73 267.356C169.993 265.709 169.594 264.171 169.439 263.395C160.78 261.958 154.675 260.249 154.675 260.249C154.331 260.153 154.13 259.796 154.227 259.454C154.324 259.112 154.683 258.912 155.027 259.008C155.027 259.008 173.973 264.315 192.363 264.033C192.656 254.599 191.44 243.109 191.44 243.109C191.403 242.756 191.661 242.438 192.018 242.401C192.374 242.364 192.693 242.621 192.73 242.975C192.73 242.975 194.244 257.325 193.496 267.211C193.3 269.804 192.945 272.095 192.377 273.759C191.958 274.989 191.406 275.894 190.75 276.399C187.848 278.63 186.061 279.708 185.04 280.406C184.739 280.612 184.512 280.778 184.35 280.934C184.264 281.017 184.201 281.085 184.177 281.168C184.034 281.665 183.901 283.207 184.054 284.449C184.101 284.829 184.173 285.18 184.289 285.454C184.346 285.584 184.384 285.707 184.483 285.743C185.646 286.17 188.578 287.666 191.517 287.118C194.554 286.552 200.436 284.094 201.447 283.654L201.703 283.581L201.917 283.58L202.104 283.626L202.275 283.715L202.43 283.856L202.568 284.071C202.621 284.186 202.665 284.341 202.685 284.536C202.767 285.278 202.494 286.951 202.539 288.506C202.564 289.371 202.671 290.203 203.104 290.719C204.574 292.474 206.139 293.799 208.491 293.74C210.845 293.682 212.386 293.531 214.151 291.25C214.773 290.447 215.043 289.322 215.117 288.181C215.101 288.086 215.106 287.99 215.131 287.899C215.158 287.185 215.113 286.474 215.033 285.84C214.946 285.135 214.811 284.522 214.669 284.098C214.616 283.942 214.522 283.75 214.511 283.725C214.275 283.473 214.281 283.077 214.527 282.832C214.781 282.58 215.191 282.58 215.445 282.832C215.657 283.042 215.973 283.751 216.172 284.751C216.346 285.63 216.456 286.745 216.41 287.881C216.859 288.527 218.633 290.957 221.029 292.691C222.788 293.965 224.891 294.884 227.049 294.271C231.543 292.995 231.635 288.972 231.326 287.179C231.21 287.026 231.172 286.834 231.21 286.656C231.186 286.575 231.164 286.508 231.142 286.453C230.235 284.146 227.425 280.722 223.819 278.791C223.504 278.623 223.386 278.232 223.556 277.919C223.725 277.605 224.119 277.488 224.434 277.657C228.342 279.749 231.366 283.483 232.35 285.983C232.4 286.11 232.457 286.299 232.51 286.537C233.348 287.313 236.813 290.183 241.673 289.515C242.675 289.377 243.375 289.033 243.83 288.53C244.519 287.766 244.632 286.678 244.494 285.576C244.246 283.597 243.162 281.541 242.424 280.912C241.334 279.983 238.856 278.564 237.022 277.825C236.33 277.547 235.749 277.351 235.405 277.375C235.049 277.401 234.737 277.135 234.711 276.78C234.685 276.425 234.953 276.115 235.311 276.089C235.775 276.056 236.576 276.254 237.508 276.629C239.236 277.325 241.494 278.594 242.801 279.564C242.893 279.507 243 279.473 243.116 279.468C244.44 279.414 245.258 279.009 245.703 278.409C246.358 277.528 246.203 276.306 245.865 275.537C245.773 275.329 245.543 275.177 245.255 275.013C244.849 274.783 244.33 274.573 243.752 274.357C241.831 273.638 239.328 272.844 237.787 271.291C237.437 270.938 237.118 270.278 236.876 269.366C236.563 268.181 236.343 266.532 236.196 264.658C235.638 257.515 236.122 247.035 236.122 247.035C236.139 246.68 236.442 246.404 236.8 246.421C237.157 246.437 237.434 246.74 237.418 247.095C237.418 247.095 237.025 255.577 237.357 262.435C243.938 261.056 272.335 249.443 285.422 227.039C298.818 204.103 295.12 187.585 294.18 184.329C293.699 182.667 292.167 181.144 290.555 180.558C289.582 180.204 288.571 180.194 287.788 180.814C287.143 181.325 286.472 182.404 285.602 183.875C283.429 187.55 280.194 193.582 274.019 199.929C263.639 210.599 253.684 209.449 251.035 208.897C250.428 211.583 248.005 221.836 245.679 225.129C245.473 225.42 245.069 225.49 244.776 225.286C244.483 225.082 244.413 224.679 244.618 224.388C247.201 220.729 249.861 208.212 249.91 207.982L249.911 207.979V207.977C254.529 186.633 255.043 132.157 243.811 106.346C233.715 83.1493 211.014 77.2388 206.864 76.3376C207.346 77.7533 207.607 79.2696 207.607 80.8461C207.607 83.9322 206.606 86.7878 204.911 89.1098C206.51 89.465 208.132 89.9086 209.763 90.4558C210.103 90.5696 210.286 90.9357 210.171 91.2729C210.056 91.61 209.688 91.7914 209.349 91.6777C207.421 91.031 205.507 90.5334 203.631 90.1576C195.276 88.4841 187.691 89.2294 183.131 90.037L183.129 90.0373C180.351 90.5294 178.703 91.0439 178.703 91.0439C178.362 91.1508 177.998 90.962 177.89 90.6226C177.782 90.2832 177.972 89.9209 178.314 89.814C178.314 89.814 179.615 89.4056 181.861 88.9624C180.23 86.6676 179.271 83.8672 179.271 80.8461C179.271 78.1971 180.009 75.718 181.289 73.6004C173.865 72.2043 163.559 74.0358 156.163 75.9508C156.156 75.9527 156.149 75.9544 156.142 75.9561C152.274 76.9586 149.204 77.986 147.762 78.5967C145.915 79.3797 139.07 82.4919 131.032 85.5935C122.808 88.7665 113.34 91.9207 106.658 92.5944C103.653 92.8974 101.189 92.6856 99.5892 91.825C97.2118 90.5458 95.228 90.3392 93.6101 90.7061C89.9536 91.5353 88.2028 95.2087 88.1094 95.4098C88.0924 95.4486 88.0714 95.4861 88.0464 95.5217C88.022 95.5564 87.9945 95.5883 87.9644 95.617C87.8467 95.7354 85.5511 98.0897 85.2936 102C85.1134 104.738 85.939 108.215 89.115 112.229C89.8535 113.163 91.3842 113.928 93.5087 114.601C96.9028 115.676 101.765 116.443 107.513 116.941C130.015 118.889 166.018 116.675 181.153 111.988C183.759 111.181 185.732 110.313 186.865 109.364C187.41 108.908 187.751 108.456 187.785 107.963C187.805 107.665 187.703 107.364 187.495 107.053C187.298 106.756 187.379 106.356 187.677 106.159C187.975 105.963 188.378 106.044 188.576 106.34C189.348 107.499 189.248 108.609 188.39 109.662C187.348 110.942 184.959 112.16 181.539 113.219C179.043 113.992 175.982 114.699 172.51 115.332C172.527 115.56 172.456 116.196 172.273 117.055C171.872 118.937 170.978 122.013 169.783 124C169.296 124.809 168.75 125.444 168.181 125.801C167.711 126.097 167.218 126.22 166.712 126.151C165.657 126.006 164.691 125.08 163.929 123.77C162.452 121.232 161.626 117.302 161.551 116.938ZM171.221 115.561C168.617 116.009 165.805 116.417 162.842 116.783C162.985 117.462 163.743 120.875 165.051 123.125C165.339 123.62 165.653 124.057 165.997 124.381C166.276 124.642 166.567 124.829 166.889 124.873C167.165 124.911 167.421 124.782 167.672 124.579C168.028 124.291 168.358 123.856 168.67 123.338C169.796 121.465 170.627 118.562 171.004 116.788C171.125 116.217 171.208 115.779 171.221 115.561ZM209.862 213.065C209.281 214.649 208.424 216.833 207.467 218.558C206.782 219.791 206.029 220.79 205.301 221.262C202.644 222.983 200.238 220.939 199.681 219.649C199.571 219.393 199.536 218.687 199.628 217.721C199.817 215.746 200.395 212.483 200.821 210.222C198.973 212.404 197.024 214.501 195.631 215.647C194.894 216.253 194.268 216.6 193.862 216.664C191.314 217.066 189.681 215.768 188.582 214.386C188.192 213.898 188.122 213.047 188.423 212.03C188.981 210.143 190.718 207.558 192.162 206.35C192.881 205.746 193.514 204.559 194.046 203.324C194.888 201.367 195.448 199.268 195.537 198.85C195.547 198.808 195.518 198.772 195.492 198.734C195.442 198.662 195.371 198.596 195.292 198.535C195.043 198.347 194.702 198.218 194.389 198.2C194.066 198.181 193.321 198.367 192.379 198.557C190.787 198.877 188.703 199.235 187.004 199.012C185.976 198.877 185.32 198.469 184.898 197.935C184.485 197.413 184.295 196.748 184.25 196.029C184.199 195.209 184.336 194.314 184.444 193.539C184.608 192.372 185.039 191.873 185.789 191.395C186.372 191.024 187.208 190.673 188.347 189.842C190.61 188.192 194.273 184.185 196.989 179.285C198.055 177.361 198.32 174.232 198.287 171.175C198.236 166.459 197.432 161.9 197.432 161.9C197.37 161.549 197.606 161.215 197.958 161.154C198.311 161.092 198.648 161.326 198.709 161.677C198.709 161.677 199.531 166.339 199.584 171.16C199.619 174.461 199.276 177.83 198.125 179.907C195.299 185.008 191.469 189.164 189.114 190.882C188.162 191.576 187.415 191.951 186.842 192.272C186.208 192.627 185.847 192.878 185.729 193.716C185.632 194.411 185.498 195.214 185.544 195.949C185.573 196.395 185.662 196.815 185.918 197.139C186.166 197.452 186.57 197.654 187.173 197.733C188.738 197.939 190.656 197.587 192.121 197.292C193.218 197.072 194.09 196.891 194.465 196.912C195.142 196.952 195.889 197.283 196.338 197.737C196.734 198.137 196.911 198.629 196.806 199.12C196.711 199.56 196.125 201.771 195.238 203.831C194.618 205.273 193.838 206.633 192.997 207.336C191.711 208.413 190.164 210.714 189.667 212.394C189.574 212.706 189.519 212.994 189.521 213.242C189.522 213.38 189.531 213.501 189.598 213.586C190.448 214.653 191.69 215.702 193.658 215.39C193.929 215.347 194.312 215.059 194.804 214.654C196.214 213.493 198.207 211.324 200.068 209.108C200.533 208.554 200.991 207.997 201.428 207.452C201.434 207.444 201.44 207.437 201.446 207.43C202.761 205.793 203.898 204.263 204.558 203.244C204.824 202.831 205.048 202.38 205.073 202.328C205.112 201.996 205.404 201.745 205.745 201.759C206.102 201.775 206.38 202.076 206.365 202.431C206.36 202.535 206.331 202.687 206.252 202.873C206.15 203.118 205.944 203.485 205.649 203.941C204.988 204.963 203.859 206.486 202.55 208.122C202.375 208.993 201.494 213.43 201.076 216.513C200.96 217.373 200.879 218.125 200.863 218.656C200.857 218.873 200.878 219.124 200.881 219.159C201.263 220.012 202.85 221.31 204.594 220.181C205.19 219.795 205.77 218.946 206.331 217.935C207.766 215.35 208.963 211.705 209.317 210.751C209.397 210.538 209.505 210.254 209.633 209.924C209.636 209.914 209.64 209.904 209.644 209.894C210.349 208.07 211.637 204.855 212.117 203.901C212.277 203.583 212.666 203.454 212.987 203.613C213.307 203.772 213.436 204.159 213.276 204.477C212.816 205.393 211.599 208.433 210.899 210.24C210.938 210.846 211.116 213.347 211.52 215.191C211.631 215.696 211.757 216.15 211.907 216.489C211.972 216.635 212.029 216.756 212.105 216.825C212.967 217.599 213.994 217.708 215.102 217.096C215.291 216.992 215.442 216.781 215.589 216.527C215.783 216.19 215.948 215.775 216.09 215.331C216.545 213.911 216.763 212.192 216.823 211.484C216.896 210.619 217.575 205.823 218.208 202.651C218.499 201.194 218.806 200.065 219.022 199.717C219.678 198.664 223.253 190.101 224.01 183.582C224.605 178.451 224.869 173.486 222.538 164.583C222.447 164.238 222.656 163.887 223.002 163.796C223.348 163.707 223.703 163.913 223.793 164.258C226.183 173.383 225.909 178.472 225.298 183.73C224.516 190.467 220.803 199.307 220.124 200.396C219.941 200.691 219.727 201.665 219.48 202.903C218.857 206.022 218.187 210.74 218.116 211.59C218.04 212.484 217.725 214.859 217.05 216.478C216.706 217.305 216.246 217.939 215.731 218.223C214.067 219.142 212.528 218.945 211.235 217.781C210.852 217.436 210.493 216.557 210.253 215.465C210.089 214.717 209.96 213.864 209.862 213.065ZM203.504 88.8184C205.26 86.631 206.31 83.8595 206.31 80.8461C206.31 73.7832 200.543 68.0491 193.439 68.0491C186.335 68.0491 180.568 73.7832 180.568 80.8461C180.568 83.8062 181.581 86.5329 183.281 88.7019C187.911 87.9145 195.33 87.2468 203.504 88.8184ZM119.018 211.192C119.445 209.141 120.016 207.007 120.746 204.789C126.714 186.664 126.696 173.382 125.321 164.834C124.214 169.111 121.812 177.375 118.368 183.765C116.221 187.749 113.646 190.998 110.768 192.23C104.991 194.703 104.882 198.108 106.491 199.631C107.075 200.184 107.874 200.449 108.603 200.159C110.334 199.471 112.848 198.947 114.992 198.283C115.005 198.278 115.019 198.274 115.032 198.271C115.267 198.198 115.497 198.123 115.721 198.045C117.056 197.587 118.179 197.097 118.609 196.354C118.788 196.047 119.185 195.94 119.495 196.117C119.805 196.295 119.912 196.69 119.733 196.998C119.188 197.94 117.838 198.683 116.145 199.264C116.007 199.312 115.867 199.358 115.725 199.404C115.328 200.7 113.829 205.635 112.946 209.164C112.687 210.2 112.482 211.111 112.375 211.769C112.319 212.117 112.281 212.373 112.305 212.511C112.417 213.155 112.811 214.162 113.479 214.877C114.067 215.504 114.895 215.879 115.958 215.412C117.417 214.771 118.058 213.743 118.438 212.819C118.692 212.201 118.845 211.623 119.018 211.192ZM147.597 118.205C144.993 118.378 142.356 118.523 139.712 118.636C139.997 119.86 140.707 122.565 141.804 124.451C142.092 124.947 142.406 125.383 142.751 125.707C143.028 125.969 143.32 126.156 143.641 126.2C143.922 126.238 144.18 126.131 144.426 125.949C144.764 125.7 145.07 125.319 145.356 124.867C146.406 123.204 147.131 120.609 147.453 119.002C147.516 118.688 147.566 118.416 147.597 118.205Z" fill="black"/>
<path fill-rule="evenodd" clip-rule="evenodd" d="M114.96 96.4773C114.685 96.7045 114.276 96.6667 114.047 96.3928C113.818 96.119 113.856 95.7122 114.132 95.4849C114.132 95.4849 120.919 89.854 129.092 95.2256C129.391 95.4218 129.473 95.8221 129.276 96.1189C129.078 96.4158 128.675 96.4975 128.377 96.3013C121.048 91.4843 114.96 96.4773 114.96 96.4773ZM116.518 104.67C116.191 104.526 116.042 104.146 116.186 103.82C116.33 103.494 116.713 103.346 117.04 103.489C117.04 103.489 121.156 105.282 125.478 103.236C125.801 103.083 126.188 103.22 126.342 103.541C126.496 103.862 126.359 104.248 126.035 104.401C121.161 106.708 116.518 104.67 116.518 104.67ZM121.377 96.1636C122.835 96.1636 124.122 96.5351 124.923 97.0782C125.609 97.5434 125.967 98.1472 125.967 98.7677C125.967 99.3883 125.609 99.992 124.923 100.457C124.122 101 122.835 101.372 121.377 101.372C119.92 101.372 118.633 101 117.832 100.457C117.146 99.992 116.788 99.3883 116.788 98.7677C116.788 98.1472 117.146 97.5434 117.832 97.0782C118.633 96.5351 119.92 96.1636 121.377 96.1636ZM121.377 97.4531C120.224 97.4531 119.196 97.7137 118.562 98.1435C118.291 98.3276 118.085 98.5222 118.085 98.7677C118.085 99.0132 118.291 99.2078 118.562 99.3919C119.196 99.8217 120.224 100.082 121.377 100.082C122.531 100.082 123.559 99.8217 124.193 99.3919C124.464 99.2078 124.67 99.0132 124.67 98.7677C124.67 98.5222 124.464 98.3276 124.193 98.1435C123.559 97.7137 122.531 97.4531 121.377 97.4531ZM94.2046 90.8953C95.2976 90.8953 96.261 91.2357 96.8618 91.7297C97.3639 92.1425 97.6339 92.6657 97.6339 93.2163C97.6339 93.7669 97.3639 94.2901 96.8618 94.7029C96.261 95.1969 95.2976 95.5374 94.2046 95.5374C93.1117 95.5374 92.1482 95.1969 91.5474 94.7029C91.0453 94.2901 90.7754 93.7669 90.7754 93.2163C90.7754 92.6657 91.0453 92.1425 91.5474 91.7297C92.1482 91.2357 93.1117 90.8953 94.2046 90.8953ZM94.2046 92.1848C93.5693 92.1848 92.9916 92.3313 92.5748 92.5825C92.2919 92.7531 92.0723 92.9562 92.0723 93.2163C92.0723 93.4763 92.2919 93.6795 92.5748 93.85C92.9916 94.1012 93.5693 94.2479 94.2046 94.2479C94.8399 94.2479 95.4177 94.1012 95.8343 93.85C96.1173 93.6795 96.3369 93.4763 96.3369 93.2163C96.3369 92.9562 96.1173 92.7531 95.8343 92.5825C95.4177 92.3313 94.8399 92.1848 94.2046 92.1848Z" fill="black"/>
<path d="M121.377 100.727C123.554 100.727 125.319 99.8498 125.319 98.7677C125.319 97.6856 123.554 96.8083 121.377 96.8083C119.201 96.8083 117.436 97.6856 117.436 98.7677C117.436 99.8498 119.201 100.727 121.377 100.727Z" fill="black"/>
<path d="M94.2046 94.8926C95.7404 94.8926 96.9854 94.1421 96.9854 93.2163C96.9854 92.2904 95.7404 91.5399 94.2046 91.5399C92.6688 91.5399 91.4238 92.2904 91.4238 93.2163C91.4238 94.1421 92.6688 94.8926 94.2046 94.8926Z" fill="black"/>
<path fill-rule="evenodd" clip-rule="evenodd" d="M209.436 56.1511C209.29 57.7659 207.855 58.9599 206.234 58.8157L183.213 56.7683C181.592 56.6241 180.394 55.1961 180.541 53.5813C180.687 51.9664 182.122 50.7725 183.743 50.9166L206.764 52.964C208.385 53.1082 209.583 54.5362 209.436 56.1511Z" fill="#2A2E17"/>
<path fill-rule="evenodd" clip-rule="evenodd" d="M156.196 53.7239C156.326 55.3397 155.115 56.7556 153.492 56.8837L132.398 58.5496C130.775 58.6777 129.352 57.4699 129.222 55.8541C129.092 54.2382 130.303 52.8224 131.926 52.6942L153.021 51.0283C154.643 50.9002 156.066 52.108 156.196 53.7239Z" fill="#2A2E17"/>
</g>
<defs>
<filter id="filter0_d_780_16201" x="0" y="0" width="326" height="258" filterUnits="userSpaceOnUse" color-interpolation-filters="sRGB">
<feFlood flood-opacity="0" result="BackgroundImageFix"/>
<feColorMatrix in="SourceAlpha" type="matrix" values="0 0 0 0 0 0 0 0 0 0 0 0 0 0 0 0 0 0 127 0" result="hardAlpha"/>
<feOffset dy="4"/>
<feGaussianBlur stdDeviation="12"/>
<feComposite in2="hardAlpha" operator="out"/>
<feColorMatrix type="matrix" values="0 0 0 0 0.156863 0 0 0 0 0.207843 0 0 0 0 0.513726 0 0 0 0.1 0"/>
<feBlend mode="normal" in2="BackgroundImageFix" result="effect1_dropShadow_780_16201"/>
<feBlend mode="normal" in="SourceGraphic" in2="effect1_dropShadow_780_16201" result="shape"/>
</filter>
<linearGradient id="paint0_linear_780_16201" x1="175.178" y1="20.5667" x2="140.621" y2="229.846" gradientUnits="userSpaceOnUse">
<stop stop-color="white"/>
<stop offset="1" stop-color="#F6F8FF"/>
</linearGradient>
<linearGradient id="paint1_linear_780_16201" x1="305.131" y1="-151.401" x2="187.06" y2="-344.594" gradientUnits="userSpaceOnUse">
<stop stop-color="#A6858F"/>
<stop offset="1" stop-color="#877596"/>
</linearGradient>
</defs>
</svg>
