<svg width="23" height="22" viewBox="0 0 23 22" fill="none" xmlns="http://www.w3.org/2000/svg">
<path d="M11.332 4C11.0487 4 10.8112 3.90417 10.6195 3.7125C10.4279 3.52083 10.332 3.28333 10.332 3V1C10.332 0.716667 10.4279 0.479167 10.6195 0.2875C10.8112 0.0958333 11.0487 0 11.332 0C11.6154 0 11.8529 0.0958333 12.0445 0.2875C12.2362 0.479167 12.332 0.716667 12.332 1V3C12.332 3.28333 12.2362 3.52083 12.0445 3.7125C11.8529 3.90417 11.6154 4 11.332 4ZM16.282 6.05C16.0987 5.86667 16.007 5.6375 16.007 5.3625C16.007 5.0875 16.0987 4.85 16.282 4.65L17.682 3.225C17.882 3.025 18.1195 2.925 18.3945 2.925C18.6695 2.925 18.907 3.025 19.107 3.225C19.2904 3.40833 19.382 3.64167 19.382 3.925C19.382 4.20833 19.2904 4.44167 19.107 4.625L17.682 6.05C17.4987 6.23333 17.2654 6.325 16.982 6.325C16.6987 6.325 16.4654 6.23333 16.282 6.05ZM19.332 12C19.0487 12 18.8112 11.9042 18.6195 11.7125C18.4279 11.5208 18.332 11.2833 18.332 11C18.332 10.7167 18.4279 10.4792 18.6195 10.2875C18.8112 10.0958 19.0487 10 19.332 10H21.332C21.6154 10 21.8529 10.0958 22.0445 10.2875C22.2362 10.4792 22.332 10.7167 22.332 11C22.332 11.2833 22.2362 11.5208 22.0445 11.7125C21.8529 11.9042 21.6154 12 21.332 12H19.332ZM11.332 22C11.0487 22 10.8112 21.9042 10.6195 21.7125C10.4279 21.5208 10.332 21.2833 10.332 21V19C10.332 18.7167 10.4279 18.4792 10.6195 18.2875C10.8112 18.0958 11.0487 18 11.332 18C11.6154 18 11.8529 18.0958 12.0445 18.2875C12.2362 18.4792 12.332 18.7167 12.332 19V21C12.332 21.2833 12.2362 21.5208 12.0445 21.7125C11.8529 21.9042 11.6154 22 11.332 22ZM4.98203 6.05L3.55703 4.65C3.35703 4.45 3.25703 4.20833 3.25703 3.925C3.25703 3.64167 3.35703 3.40833 3.55703 3.225C3.74036 3.04167 3.9737 2.95 4.25703 2.95C4.54036 2.95 4.7737 3.04167 4.95703 3.225L6.38203 4.65C6.56536 4.83333 6.65703 5.06667 6.65703 5.35C6.65703 5.63333 6.56536 5.86667 6.38203 6.05C6.18203 6.23333 5.9487 6.325 5.68203 6.325C5.41536 6.325 5.18203 6.23333 4.98203 6.05ZM17.682 18.775L16.282 17.35C16.0987 17.15 16.007 16.9125 16.007 16.6375C16.007 16.3625 16.0987 16.1333 16.282 15.95C16.4654 15.7667 16.6945 15.675 16.9695 15.675C17.2445 15.675 17.482 15.7667 17.682 15.95L19.107 17.35C19.307 17.5333 19.4029 17.7667 19.3945 18.05C19.3862 18.3333 19.2904 18.575 19.107 18.775C18.907 18.975 18.6654 19.075 18.382 19.075C18.0987 19.075 17.8654 18.975 17.682 18.775ZM1.33203 12C1.0487 12 0.811198 11.9042 0.619531 11.7125C0.427865 11.5208 0.332031 11.2833 0.332031 11C0.332031 10.7167 0.427865 10.4792 0.619531 10.2875C0.811198 10.0958 1.0487 10 1.33203 10H3.33203C3.61536 10 3.85286 10.0958 4.04453 10.2875C4.2362 10.4792 4.33203 10.7167 4.33203 11C4.33203 11.2833 4.2362 11.5208 4.04453 11.7125C3.85286 11.9042 3.61536 12 3.33203 12H1.33203ZM3.55703 18.775C3.3737 18.5917 3.28203 18.3583 3.28203 18.075C3.28203 17.7917 3.3737 17.5583 3.55703 17.375L4.98203 15.95C5.16536 15.7667 5.39453 15.675 5.66953 15.675C5.94453 15.675 6.18203 15.7667 6.38203 15.95C6.58203 16.15 6.68203 16.3875 6.68203 16.6625C6.68203 16.9375 6.58203 17.175 6.38203 17.375L4.98203 18.775C4.78203 18.975 4.54036 19.075 4.25703 19.075C3.9737 19.075 3.74036 18.975 3.55703 18.775ZM11.332 17C9.66537 17 8.2487 16.4167 7.08203 15.25C5.91536 14.0833 5.33203 12.6667 5.33203 11C5.33203 9.33333 5.91536 7.91667 7.08203 6.75C8.2487 5.58333 9.66537 5 11.332 5C12.9987 5 14.4154 5.58333 15.582 6.75C16.7487 7.91667 17.332 9.33333 17.332 11C17.332 12.6667 16.7487 14.0833 15.582 15.25C14.4154 16.4167 12.9987 17 11.332 17ZM11.332 15C12.432 15 13.3737 14.6083 14.157 13.825C14.9404 13.0417 15.332 12.1 15.332 11C15.332 9.9 14.9404 8.95833 14.157 8.175C13.3737 7.39167 12.432 7 11.332 7C10.232 7 9.29036 7.39167 8.50703 8.175C7.7237 8.95833 7.33203 9.9 7.33203 11C7.33203 12.1 7.7237 13.0417 8.50703 13.825C9.29036 14.6083 10.232 15 11.332 15Z" fill="#283583"/>
</svg>
