<svg width="30" height="30" viewBox="0 0 30 30" fill="none" xmlns="http://www.w3.org/2000/svg">
<path d="M5 26.6667V28.3333C5 28.8056 4.84028 29.2014 4.52083 29.5208C4.20139 29.8403 3.80556 30 3.33333 30H1.66667C1.19444 30 0.798611 29.8403 0.479167 29.5208C0.159722 29.2014 0 28.8056 0 28.3333V15L3.5 5C3.66667 4.5 3.96528 4.09722 4.39583 3.79167C4.82639 3.48611 5.30556 3.33333 5.83333 3.33333H10V0H20V3.33333H24.1667C24.6944 3.33333 25.1736 3.48611 25.6042 3.79167C26.0347 4.09722 26.3333 4.5 26.5 5L30 15V28.3333C30 28.8056 29.8403 29.2014 29.5208 29.5208C29.2014 29.8403 28.8056 30 28.3333 30H26.6667C26.1944 30 25.7986 29.8403 25.4792 29.5208C25.1597 29.2014 25 28.8056 25 28.3333V26.6667H5ZM4.66667 11.6667H25.3333L23.5833 6.66667H6.41667L4.66667 11.6667ZM7.5 21.6667C8.19444 21.6667 8.78472 21.4236 9.27083 20.9375C9.75694 20.4514 10 19.8611 10 19.1667C10 18.4722 9.75694 17.8819 9.27083 17.3958C8.78472 16.9097 8.19444 16.6667 7.5 16.6667C6.80556 16.6667 6.21528 16.9097 5.72917 17.3958C5.24306 17.8819 5 18.4722 5 19.1667C5 19.8611 5.24306 20.4514 5.72917 20.9375C6.21528 21.4236 6.80556 21.6667 7.5 21.6667ZM22.5 21.6667C23.1944 21.6667 23.7847 21.4236 24.2708 20.9375C24.7569 20.4514 25 19.8611 25 19.1667C25 18.4722 24.7569 17.8819 24.2708 17.3958C23.7847 16.9097 23.1944 16.6667 22.5 16.6667C21.8056 16.6667 21.2153 16.9097 20.7292 17.3958C20.2431 17.8819 20 18.4722 20 19.1667C20 19.8611 20.2431 20.4514 20.7292 20.9375C21.2153 21.4236 21.8056 21.6667 22.5 21.6667ZM3.33333 23.3333H26.6667V15H3.33333V23.3333Z" fill="#6972A8"/>
</svg>
