<svg width="80" height="80" viewBox="0 0 80 80" fill="none" xmlns="http://www.w3.org/2000/svg">
<path d="M43.9167 54.6247L35 51.4997L27.25 54.4997C26.9722 54.6108 26.7014 54.6455 26.4375 54.6038C26.1736 54.5622 25.9306 54.4719 25.7083 54.333C25.4861 54.1941 25.3125 54.0066 25.1875 53.7705C25.0625 53.5344 25 53.2636 25 52.958V29.583C25 29.2219 25.1042 28.9025 25.3125 28.6247C25.5208 28.3469 25.8056 28.1386 26.1667 27.9997L33.9167 25.3747C34.0833 25.3191 34.2569 25.2775 34.4375 25.2497C34.6181 25.2219 34.8056 25.208 35 25.208C35.1944 25.208 35.3819 25.2219 35.5625 25.2497C35.7431 25.2775 35.9167 25.3191 36.0833 25.3747L45 28.4997L52.75 25.4997C53.0278 25.3886 53.2986 25.3538 53.5625 25.3955C53.8264 25.4372 54.0694 25.5275 54.2917 25.6663C54.5139 25.8052 54.6875 25.9927 54.8125 26.2288C54.9375 26.465 55 26.7358 55 27.0413V50.4163C55 50.7775 54.8958 51.0969 54.6875 51.3747C54.4792 51.6525 54.1944 51.8608 53.8333 51.9997L46.0833 54.6247C45.9167 54.6802 45.7431 54.7219 45.5625 54.7497C45.3819 54.7775 45.1944 54.7913 45 54.7913C44.8056 54.7913 44.6181 54.7775 44.4375 54.7497C44.2569 54.7219 44.0833 54.6802 43.9167 54.6247ZM43.3333 50.9163V31.4163L36.6667 29.083V48.583L43.3333 50.9163ZM46.6667 50.9163L51.6667 49.2497V29.4997L46.6667 31.4163V50.9163ZM28.3333 50.4997L33.3333 48.583V29.083L28.3333 30.7497V50.4997Z" fill="#6972A8"/>
</svg>
