<svg width="28" height="32" viewBox="0 0 28 32" fill="none" xmlns="http://www.w3.org/2000/svg">
<path d="M0.666992 22.834V7.00065C0.666992 5.52843 1.04894 4.35482 1.81283 3.47982C2.57671 2.60482 3.58366 1.93815 4.83366 1.47982C6.08366 1.02148 7.50727 0.715929 9.10449 0.563151C10.7017 0.410373 12.3337 0.333984 14.0003 0.333984C15.8337 0.333984 17.5628 0.410373 19.1878 0.563151C20.8128 0.715929 22.2295 1.02148 23.4378 1.47982C24.6462 1.93815 25.5975 2.60482 26.292 3.47982C26.9864 4.35482 27.3337 5.52843 27.3337 7.00065V22.834C27.3337 24.4729 26.7712 25.8548 25.6462 26.9798C24.5212 28.1048 23.1392 28.6673 21.5003 28.6673L24.0003 31.1673V32.0007H20.667L17.3337 28.6673H10.667L7.33366 32.0007H4.00033V31.1673L6.50033 28.6673C4.86144 28.6673 3.47949 28.1048 2.35449 26.9798C1.22949 25.8548 0.666992 24.4729 0.666992 22.834ZM14.0003 3.66732C11.0559 3.66732 8.9031 3.84093 7.54199 4.18815C6.18088 4.53537 5.25033 4.91732 4.75033 5.33398H23.417C23.0003 4.86176 22.1045 4.46593 20.7295 4.14648C19.3545 3.82704 17.1114 3.66732 14.0003 3.66732ZM4.00033 13.6673H12.3337V8.66732H4.00033V13.6673ZM21.5003 17.0007H4.00033H24.0003H21.5003ZM15.667 13.6673H24.0003V8.66732H15.667V13.6673ZM8.16699 23.6673C8.88921 23.6673 9.48644 23.4312 9.95866 22.959C10.4309 22.4868 10.667 21.8895 10.667 21.1673C10.667 20.4451 10.4309 19.8479 9.95866 19.3757C9.48644 18.9034 8.88921 18.6673 8.16699 18.6673C7.44477 18.6673 6.84755 18.9034 6.37533 19.3757C5.9031 19.8479 5.66699 20.4451 5.66699 21.1673C5.66699 21.8895 5.9031 22.4868 6.37533 22.959C6.84755 23.4312 7.44477 23.6673 8.16699 23.6673ZM19.8337 23.6673C20.5559 23.6673 21.1531 23.4312 21.6253 22.959C22.0975 22.4868 22.3337 21.8895 22.3337 21.1673C22.3337 20.4451 22.0975 19.8479 21.6253 19.3757C21.1531 18.9034 20.5559 18.6673 19.8337 18.6673C19.1114 18.6673 18.5142 18.9034 18.042 19.3757C17.5698 19.8479 17.3337 20.4451 17.3337 21.1673C17.3337 21.8895 17.5698 22.4868 18.042 22.959C18.5142 23.4312 19.1114 23.6673 19.8337 23.6673ZM6.50033 25.334H21.5003C22.2225 25.334 22.8198 25.0979 23.292 24.6257C23.7642 24.1534 24.0003 23.5562 24.0003 22.834V17.0007H4.00033V22.834C4.00033 23.5562 4.23644 24.1534 4.70866 24.6257C5.18088 25.0979 5.7781 25.334 6.50033 25.334ZM14.0003 5.33398H23.417H4.75033H14.0003Z" fill="#6972A8"/>
</svg>
