<svg width="40" height="32" viewBox="0 0 40 32" fill="none" xmlns="http://www.w3.org/2000/svg">
<path d="M19.95 28.65V30.35C19.95 30.8173 19.792 31.2092 19.476 31.5255C19.16 31.8418 18.7683 32 18.301 32C17.8337 32 17.4417 31.8418 17.125 31.5255C16.8083 31.2092 16.65 30.8173 16.65 30.35V20.05C16.65 19.8943 16.6583 19.7388 16.675 19.5835C16.6917 19.4278 16.7333 19.2667 16.8 19.1L19.1 12.35C19.3 11.7427 19.6625 11.2492 20.1875 10.8695C20.7125 10.4898 21.3 10.3 21.95 10.3H34.7C35.35 10.3 35.9375 10.4898 36.4625 10.8695C36.9875 11.2492 37.35 11.7427 37.55 12.35L39.85 19.1C39.9167 19.2667 39.9583 19.4278 39.975 19.5835C39.9917 19.7388 40 19.8943 40 20.05V30.35C40 30.8173 39.842 31.2092 39.526 31.5255C39.21 31.8418 38.8183 32 38.351 32C37.8837 32 37.4917 31.8418 37.175 31.5255C36.8583 31.2092 36.7 30.8173 36.7 30.35V28.65H19.95ZM19.3 18.05H37.35L35.45 12.3H21.2L19.3 18.05ZM22 25.35C22.5527 25.35 23.0158 25.1632 23.3895 24.7895C23.7632 24.4158 23.95 23.9527 23.95 23.4C23.95 22.8473 23.7632 22.3842 23.3895 22.0105C23.0158 21.6368 22.5527 21.45 22 21.45C21.4473 21.45 20.9842 21.6368 20.6105 22.0105C20.2368 22.3842 20.05 22.8473 20.05 23.4C20.05 23.9527 20.2368 24.4158 20.6105 24.7895C20.9842 25.1632 21.4473 25.35 22 25.35ZM34.65 25.35C35.2027 25.35 35.6658 25.1632 36.0395 24.7895C36.4132 24.4158 36.6 23.9527 36.6 23.4C36.6 22.8473 36.4132 22.3842 36.0395 22.0105C35.6658 21.6368 35.2027 21.45 34.65 21.45C34.0973 21.45 33.6342 21.6368 33.2605 22.0105C32.8868 22.3842 32.7 22.8473 32.7 23.4C32.7 23.9527 32.8868 24.4158 33.2605 24.7895C33.6342 25.1632 34.0973 25.35 34.65 25.35ZM4.95 32C4.61933 32 4.395 31.8417 4.277 31.525C4.159 31.2083 4.21667 30.9333 4.45 30.7L7.05 28.1C5.15 28.1 3.5 27.525 2.1 26.375C0.7 25.225 0 23.75 0 21.95V5.55C0 3.35 0.866667 1.875 2.6 1.125C4.33333 0.375 7.76667 0 12.9 0C17.6667 0 21.0083 0.383333 22.925 1.15C24.8417 1.91667 25.8 3.18333 25.8 4.95V7.3C25.8 7.725 25.6553 8.08117 25.366 8.3685C25.077 8.65617 24.7187 8.8 24.291 8.8C23.8637 8.8 23.5083 8.65617 23.225 8.3685C22.9417 8.08117 22.8 7.725 22.8 7.3V4.95H3V18.4H13.65C14.075 18.4 14.4313 18.5437 14.719 18.831C15.0063 19.1187 15.15 19.475 15.15 19.9V30.5C15.15 30.925 15.0063 31.2812 14.719 31.5685C14.4313 31.8562 14.075 32 13.65 32H4.95ZM5.55 23.9C6.10233 23.9 6.5655 23.7132 6.9395 23.3395C7.31317 22.9658 7.5 22.5027 7.5 21.95C7.5 21.3973 7.31317 20.9342 6.9395 20.5605C6.5655 20.1868 6.10233 20 5.55 20C4.99767 20 4.5345 20.1868 4.1605 20.5605C3.78683 20.9342 3.6 21.3973 3.6 21.95C3.6 22.5027 3.78683 22.9658 4.1605 23.3395C4.5345 23.7132 4.99767 23.9 5.55 23.9ZM18.65 26.65H38V20.05H18.65V26.65Z" fill="#6972A8"/>
</svg>
